<?xml version="1.0" encoding="UTF-8" standalone="no"?>
<svg
   xmlns="http://www.w3.org/2000/svg"
   viewBox="0 0 602.78668 430.29333"
   height="430.29333"
   width="602.78668"
   xml:space="preserve"
   id="svg2"
   version="1.1"><defs
     id="defs6"><clipPath
       id="clipPath60"
       clipPathUnits="userSpaceOnUse"><path
         id="path58"
         d="m 1269.32,1631.35 c -35.99,0 -67.63,14.82 -89.46,38.77 l -0.23,0.23 c -2.78,2.55 -5.46,5.23 -8.01,8.01 l -0.34,0.35 c -2.78,2.55 -5.57,5.23 -8.13,8.12 l -0.23,0.23 c -2.78,2.56 -5.45,5.23 -8.02,8.02 l -0.33,0.33 c -2.79,2.56 -5.57,5.24 -8.14,8.14 l -0.22,0.22 c -2.78,2.56 -5.46,5.24 -8.02,8.02 l -0.33,0.33 c -2.79,2.57 -5.58,5.24 -8.13,8.14 l -0.23,0.22 c -2.78,2.56 -5.46,5.24 -8.02,8.02 l -0.33,0.33 c -2.79,2.57 -5.57,5.25 -8.14,8.14 l -0.22,0.22 c -2.79,2.56 -5.46,5.24 -8.02,8.02 l -0.34,0.34 c -24.28,21.84 -39.21,53.69 -39.21,90.02 v 83.11 H 458.035 c -26.293,0 -52.586,6.57 -74.535,26.3 -6.348,4.78 -12.145,10.13 -17.152,15.8 -3.008,2.57 -5.797,5.36 -8.36,8.37 -3.008,2.56 -5.793,5.35 -8.355,8.35 -3.008,2.56 -5.789,5.35 -8.356,8.35 -3.007,2.57 -5.789,5.36 -8.351,8.36 -3.008,2.56 -5.797,5.35 -8.363,8.36 -3,2.56 -5.79,5.34 -8.352,8.35 -3.008,2.57 -5.793,5.35 -8.356,8.36 -3.007,2.56 -5.792,5.35 -8.355,8.36 -3.008,2.56 -5.797,5.34 -8.359,8.35 -25.286,23.11 -37.922,54.07 -37.903,85.47 0.02,26.44 9.012,53.19 26.985,75.85 l 811.287,1008.71 c 2.12,0 2.12,2.11 4.35,4.34 2.23,2.23 4.45,4.35 6.57,8.8 6.57,2.12 8.8,4.35 10.91,6.58 2.24,2.11 6.69,4.34 8.81,6.57 4.46,2.23 6.57,4.35 13.14,4.35 2.23,4.45 4.46,6.57 8.81,6.57 2.22,2.22 6.57,2.22 13.14,4.45 2.23,0 6.58,0 8.8,2.12 h 15.38 c 0,0 2.11,0 4.34,0 2.23,0 2.23,0 4.35,0 h 13.15 c 4.45,-2.12 6.68,-2.12 11.02,-2.12 2.12,-2.23 8.8,-2.23 13.15,-4.45 2.23,0 6.57,-2.12 8.8,-2.12 4.34,-4.45 8.69,-6.57 10.92,-8.8 4.34,-2.23 6.57,-4.46 11.03,-6.57 0,0 2.12,0 2.12,-2.23 2.22,0 6.57,-2.23 6.57,-4.35 l 4.79,-4.78 c 1.89,-0.9 3.56,-2.24 3.56,-3.58 l 0.45,-0.44 c 1.79,-1.78 3.23,-3.23 4.34,-4.34 1.9,-0.89 3.57,-2.23 3.57,-3.57 l 0.45,-0.44 c 1.78,-1.79 3.22,-3.24 4.34,-4.35 1.9,-0.89 3.57,-2.23 3.57,-3.56 l 0.44,-0.45 c 1.78,-1.78 3.23,-3.23 4.35,-4.35 1.89,-0.89 3.56,-2.23 3.56,-3.56 l 0.45,-0.45 c 1.78,-1.78 3.23,-3.23 4.34,-4.34 1.9,-0.89 3.57,-2.23 3.57,-3.57 l 0.44,-0.44 c 1.79,-1.78 3.23,-3.23 4.35,-4.35 1.89,-0.89 3.56,-2.23 3.56,-3.56 l 0.45,-0.44 c 1.78,-1.79 3.23,-3.24 4.35,-4.35 1.89,-0.9 3.56,-2.23 3.56,-3.57 l 0.44,-0.44 c 1.79,-1.79 3.24,-3.23 4.35,-4.35 1.89,-0.89 3.57,-2.23 3.57,-3.56 l 0.44,-0.45 c 1.78,-1.78 3.23,-3.23 4.34,-4.35 1.9,-0.88 3.57,-2.22 3.57,-3.56 l 0.45,-0.44 c 1.78,-1.79 3.23,-3.23 4.34,-4.35 1.89,-0.89 3.56,-2.23 3.56,-3.56 l 8.81,-8.81 c 2.22,-2.23 4.34,-6.57 6.57,-8.8 2.23,-2.11 4.35,-4.34 8.8,-10.91 0,-2.23 2.12,-6.58 4.35,-8.8 2.23,-4.35 2.23,-6.58 4.45,-13.15 0,-2.23 2.12,-6.58 2.12,-8.8 2.19,-4.28 2.23,-6.51 2.23,-12.85 0,-0.02 0,-0.05 0,-0.07 0,-0.03 0,-0.05 0,-0.08 0,-0.02 0,-0.05 0,-0.07 0,-0.03 0,-0.06 0,-0.08 0,-4.35 2.12,-6.57 2.12,-10.92 v -825.32 0 c 11.03,-6.35 20.83,-14.26 29.29,-23.51 l 0.12,-0.11 c 2.89,-2.56 5.68,-5.35 8.24,-8.24 l 0.11,-0.11 c 2.9,-2.57 5.68,-5.35 8.25,-8.25 l 0.11,-0.11 c 2.89,-2.56 5.68,-5.35 8.24,-8.25 l 0.11,-0.11 c 2.9,-2.56 5.69,-5.35 8.25,-8.24 l 0.11,-0.11 c 2.89,-2.57 5.68,-5.35 8.25,-8.25 l 0.11,-0.11 c 2.89,-2.56 5.68,-5.34 8.24,-8.24 l 0.11,-0.12 c 2.9,-2.56 5.68,-5.34 8.24,-8.24 l 0.12,-0.11 c 2.89,-2.56 5.68,-5.35 8.24,-8.24 l 0.11,-0.12 c 2.9,-2.56 5.68,-5.34 8.25,-8.24 l 0.11,-0.11 c 24.62,-22.17 40.1,-54.03 40.1,-88.91 0,-67.96 -54.81,-120.54 -122.76,-120.54 h -21.95 v -166.67 c 0,-67.96 -52.59,-120.66 -120.55,-120.66 m -489.644,611.97 v 0 h 285.544 v 354.4 l -285.544,-354.4" /></clipPath></defs><g
     transform="matrix(1.3333333,0,0,-1.3333333,0,477.29333)"
     id="g10"><g
       transform="scale(0.1)"
       id="g12"><path
         id="path14"
         style="fill:#999b9b;fill-opacity:1;fill-rule:nonzero;stroke:none"
         d="M 754.438,1534.97 C 617.633,1401.03 594.66,1193.81 623.496,1012.32 c 0.75,-4.12 7.117,-3 7.117,0.87 0,41.32 -1.25,82.26 -1.121,123.08 0.746,1.88 1.371,3.62 2.117,5.49 35.704,25.97 68.532,55.3 88.879,95.49 22.84,44.94 31.828,95.63 49.305,142.56 1.621,4.49 -3.168,3.17 -6.305,0.86 -83.215,-61.38 -109.746,-127.43 -133.621,-215.69 1.117,45.82 4.613,91.63 14.477,137.44 17.972,83.76 53.551,166.76 113.715,228.92 2.246,2.38 -1.25,6 -3.621,3.63" /><path
         id="path16"
         style="fill:#d4d6d3;fill-opacity:1;fill-rule:nonzero;stroke:none"
         d="m 780.148,1519.35 c 23.543,-0.79 38.293,-38.42 56.633,-49.38 9.703,-5.85 19.157,-5.49 25.973,4.07 18.176,25.38 -6.758,56.67 -30.207,74.18 16.769,-6.9 30.68,-19.02 48.762,-22.45 10.953,-2.02 19.461,2.05 22.015,13.18 7.969,34.59 -35.414,49.97 -65.176,50.7 14.43,10.03 55.786,37.31 33.813,50.72 -22.266,13.45 -70.793,-25.54 -86.625,-38.38 -23.266,-18.88 -51.012,-47.08 -52.063,-76.61 -1.359,-34.47 28.766,-13.26 46.875,-6.03" /><path
         id="path18"
         style="fill:#e7e8e5;fill-opacity:1;fill-rule:nonzero;stroke:none"
         d="m 773.34,1513.55 c 30.09,13.68 87.898,-6.02 92.816,5.38 9.965,23.18 -36.23,39.08 -61.164,42.16 22.965,6.22 66.965,16.13 65.613,38.28 -1.652,27.04 -67.492,3.79 -100.812,-21.77 -41.988,-32.19 -41.707,-63.24 -34.77,-69.47 9.524,-8.53 33.352,3.15 38.317,5.42" /><path
         id="path20"
         style="fill:#999b9b;fill-opacity:1;fill-rule:nonzero;stroke:none"
         d="m 442.863,1548.23 c 141.809,-128.65 172.641,-334.83 150.731,-517.29 -0.59,-4.15 -6.992,-3.27 -7.141,0.6 -1.574,41.29 -1.883,82.24 -3.558,123.03 -0.821,1.84 -1.512,3.57 -2.336,5.4 -36.661,24.59 -70.579,52.66 -92.442,92.06 -24.535,44.03 -35.441,94.33 -54.691,140.56 -1.789,4.44 3.043,3.29 6.269,1.11 85.489,-58.17 114.508,-123.17 141.731,-210.45 -2.863,45.73 -8.102,91.37 -19.699,136.78 -21.149,83.01 -59.852,164.61 -122.34,224.44 -2.332,2.28 1.023,6.03 3.476,3.76" /><path
         id="path22"
         style="fill:#d4d6d3;fill-opacity:1;fill-rule:nonzero;stroke:none"
         d="m 417.766,1531.64 c -23.485,-1.68 -36.797,-39.84 -54.707,-51.51 -9.477,-6.2 -18.934,-6.2 -26.114,3.1 -19.129,24.66 4.602,56.88 27.371,75.26 -16.5,-7.52 -29.937,-20.17 -47.871,-24.29 -10.871,-2.42 -19.527,1.31 -22.507,12.35 -9.278,34.26 33.492,51.28 63.203,53.13 -14.797,9.48 -57.161,35.16 -35.719,49.4 21.734,14.29 71.715,-22.83 88.019,-35.05 23.969,-17.98 52.77,-45.12 54.938,-74.58 2.676,-34.39 -28.238,-14.34 -46.613,-7.81" /><path
         id="path24"
         style="fill:#e7e8e5;fill-opacity:1;fill-rule:nonzero;stroke:none"
         d="m 424.793,1526.11 c -30.59,12.52 -87.605,-9.36 -92.953,1.83 -10.84,22.8 34.723,40.44 59.519,44.47 -23.187,5.34 -67.531,13.57 -67.019,35.76 0.621,27.08 67.297,6.35 101.566,-17.92 43.176,-30.58 44.082,-61.62 37.383,-68.1 -9.187,-8.88 -33.441,1.89 -38.496,3.96" /><path
         id="path26"
         style="fill:#999b9b;fill-opacity:1;fill-rule:nonzero;stroke:none"
         d="m 587.879,1208.49 c 10.473,-67.8 23.449,-137.89 44.027,-203.4 1.969,-5.961 10.828,-4.44 9.914,1.99 -9.316,62.69 -26.293,124.21 -35.609,186.89 -9.465,63.42 -14.527,127.72 -10.895,191.86 5.977,105.62 34.653,217.97 103.579,300.62 1.515,1.96 -1.704,4.73 -3.262,2.91 -137.988,-160.89 -116.031,-358.15 -115.906,-375.83 -19.532,66.61 -39.664,142.96 -113.555,210.78 -3.192,2.93 -5.676,1.53 -5.149,-3.44 13.219,-123.53 47.567,-188.03 119.188,-254.08 2.035,-19.58 4.559,-39.07 7.668,-58.3" /><path
         id="path28"
         style="fill:#d4d6d3;fill-opacity:1;fill-rule:nonzero;stroke:none"
         d="m 700.141,1667.94 c 24.82,11.03 59.062,-20.58 83.617,-22.73 13.008,-1.18 22.633,3.94 24.894,17.3 6.086,35.48 -35.539,55.39 -68.679,61.76 20.871,1.29 41.402,-4.29 61.886,1.25 12.379,3.43 19.164,11.93 16.211,24.76 -9.144,39.9 -61.898,34.03 -93.144,19.79 9.922,17.68 39.101,66.79 9.558,69.64 -29.875,2.76 -60.601,-62.12 -70.562,-83.42 -14.641,-31.29 -29.227,-74.53 -15.449,-105.68 15.929,-36.46 36.511,0.72 51.668,17.33" /><path
         id="path30"
         style="fill:#e7e8e5;fill-opacity:1;fill-rule:nonzero;stroke:none"
         d="m 695.996,1658.49 c 24.336,29.35 94.223,38.02 93.594,52.31 -1.332,29.07 -57.266,22.31 -84.688,12.95 20.692,18.02 61.356,50.45 48.809,72.75 -15.328,27.22 -71.93,-30.04 -93.645,-73.33 -27.351,-54.53 -11.437,-86.62 -1.101,-89.58 14.176,-4.05 33.012,20.06 37.031,24.9" /><path
         id="path32"
         style="fill:#d4d6d3;fill-opacity:1;fill-rule:nonzero;stroke:none"
         d="M 497.094,1171.3 436.238,706.328 h 370.317 c -7.625,41.203 -76.551,465.512 -76.551,465.512 l -232.91,-0.54" /><path
         id="path34"
         style="fill:#e7e8e5;fill-opacity:1;fill-rule:nonzero;stroke:none"
         d="m 4108.38,2530.64 h 264.801 v 111.902 H 4108.38 Z" /><path
         id="path36"
         style="fill:#e7e8e5;fill-opacity:1;fill-rule:nonzero;stroke:none"
         d="m 4256.09,2783.64 h 264.81 v -111.9 h -264.81 v 111.9" /><path
         id="path38"
         style="fill:#e7e8e5;fill-opacity:1;fill-rule:nonzero;stroke:none"
         d="m 3960.65,2671.74 h 264.813 v 111.898 H 3960.65 Z" /><path
         id="path40"
         style="fill:#e7e8e5;fill-opacity:1;fill-rule:nonzero;stroke:none"
         d="m 147.719,1199.32 h 264.804 v -111.9 H 147.719 v 111.9" /><path
         id="path42"
         style="fill:#e7e8e5;fill-opacity:1;fill-rule:nonzero;stroke:none"
         d="M 0,1340.41 H 264.809 V 1228.52 H 0 v 111.89" /><path
         id="path44"
         style="fill:#e7e8e5;fill-opacity:1;fill-rule:nonzero;stroke:none"
         d="m 4256.09,1199.44 h 264.81 v -111.91 h -264.81 v 111.91" /><path
         id="path46"
         style="fill:#e7e8e5;fill-opacity:1;fill-rule:nonzero;stroke:none"
         d="M 1149.52,3462.4 H 884.711 v 111.9 h 264.809 v -111.9" /><path
         id="path48"
         style="fill:#e7e8e5;fill-opacity:1;fill-rule:nonzero;stroke:none"
         d="M 1001.8,3321.31 H 736.996 V 3433.2 H 1001.8 v -111.89" /><path
         id="path50"
         style="fill:#17282f;fill-opacity:1;fill-rule:nonzero;stroke:none"
         d="m 339.945,706.699 480.125,2.442 480.13,0.879 960.25,1.671 960.25,-1.66 480.13,-0.883 480.12,-2.449 -480.12,-2.437 -480.13,-0.883 -960.25,-1.668 -960.25,1.68 -480.13,0.89 -480.125,2.418" /><path
         id="path52"
         style="fill:#fabb1e;fill-opacity:1;fill-rule:nonzero;stroke:none"
         d="m 1065.22,2597.72 v -354.4 H 779.676 l 285.544,354.4 m 429.26,-469.59 -0.11,0.11 c -2.57,2.9 -5.35,5.68 -8.25,8.24 l -0.11,0.12 c -2.56,2.89 -5.35,5.68 -8.24,8.24 l -0.12,0.11 c -2.56,2.9 -5.34,5.68 -8.24,8.24 l -0.11,0.12 c -2.56,2.9 -5.35,5.68 -8.24,8.24 l -0.11,0.11 c -2.57,2.9 -5.36,5.68 -8.25,8.25 l -0.11,0.11 c -2.56,2.89 -5.35,5.68 -8.25,8.24 l -0.11,0.11 c -2.56,2.9 -5.35,5.69 -8.24,8.25 l -0.11,0.11 c -2.57,2.9 -5.35,5.68 -8.25,8.25 l -0.11,0.11 c -2.56,2.89 -5.35,5.68 -8.24,8.24 l -0.12,0.11 c -8.46,9.25 -18.26,17.16 -29.29,23.51 v 825.32 c 0,4.35 -2.12,6.57 -2.12,10.92 0,6.57 0,8.8 -2.23,13.15 0,2.22 -2.12,6.57 -2.12,8.8 -2.22,6.57 -2.22,8.8 -4.45,13.15 -2.23,2.22 -4.35,6.57 -4.35,8.8 -4.45,6.57 -6.57,8.8 -8.8,10.91 -2.23,2.23 -4.35,6.57 -6.57,8.8 l -8.81,8.81 c 0,1.33 -1.67,2.67 -3.56,3.56 -1.11,1.12 -2.56,2.56 -4.34,4.35 l -0.45,0.44 c 0,1.34 -1.67,2.68 -3.57,3.56 -1.11,1.12 -2.56,2.57 -4.34,4.35 l -0.44,0.45 c 0,1.33 -1.68,2.67 -3.57,3.56 -1.11,1.12 -2.56,2.56 -4.35,4.35 l -0.44,0.44 c 0,1.34 -1.67,2.67 -3.56,3.57 -1.12,1.11 -2.57,2.56 -4.35,4.35 l -0.45,0.44 c 0,1.33 -1.67,2.67 -3.56,3.56 -1.12,1.12 -2.56,2.57 -4.35,4.35 l -0.44,0.44 c 0,1.34 -1.67,2.68 -3.57,3.57 -1.11,1.11 -2.56,2.56 -4.34,4.34 l -0.45,0.45 c 0,1.33 -1.67,2.67 -3.56,3.56 -1.12,1.12 -2.57,2.57 -4.35,4.35 l -0.44,0.45 c 0,1.33 -1.67,2.67 -3.57,3.56 -1.12,1.11 -2.56,2.56 -4.34,4.35 l -0.45,0.44 c 0,1.34 -1.67,2.68 -3.57,3.57 -1.11,1.11 -2.55,2.56 -4.34,4.34 l -0.45,0.44 c 0,1.34 -1.67,2.68 -3.56,3.58 l -4.79,4.78 c 0,2.12 -4.35,4.35 -6.57,4.35 0,2.23 -2.12,2.23 -2.12,2.23 -4.46,2.11 -6.69,4.34 -11.03,6.57 -2.23,2.23 -6.58,4.35 -10.92,8.8 -2.23,0 -6.57,2.12 -8.8,2.12 -4.35,2.22 -11.03,2.22 -13.15,4.45 -4.34,0 -6.57,0 -11.02,2.12 h -13.15 c -2.12,0 -2.12,0 -4.35,0 -2.23,0 -4.34,0 -4.34,0 h -15.38 c -2.22,-2.12 -6.57,-2.12 -8.8,-2.12 -6.57,-2.23 -10.92,-2.23 -13.14,-4.45 -4.35,0 -6.58,-2.12 -8.81,-6.57 -6.57,0 -8.68,-2.12 -13.14,-4.35 -2.12,-2.23 -6.57,-4.46 -8.81,-6.57 -2.11,-2.23 -4.34,-4.46 -10.91,-6.58 -2.12,-4.45 -4.34,-6.57 -6.57,-8.8 -2.23,-2.23 -2.23,-4.34 -4.35,-4.34 L 280.223,2197.31 c -39.325,-49.58 -35.649,-118.76 10.918,-161.32 2.562,-3.01 5.351,-5.79 8.359,-8.35 2.563,-3.01 5.348,-5.8 8.355,-8.36 2.563,-3.01 5.348,-5.79 8.356,-8.36 2.562,-3.01 5.352,-5.79 8.352,-8.35 2.566,-3.01 5.355,-5.8 8.363,-8.36 2.562,-3 5.344,-5.79 8.351,-8.36 2.567,-3 5.348,-5.79 8.356,-8.35 2.562,-3 5.347,-5.79 8.355,-8.35 2.563,-3.01 5.352,-5.8 8.36,-8.37 5.007,-5.67 10.804,-11.02 17.152,-15.8 21.949,-19.73 48.242,-26.3 74.535,-26.3 h 607.185 v -83.11 c 0,-36.33 14.93,-68.18 39.21,-90.02 l 0.34,-0.34 c 2.56,-2.78 5.23,-5.46 8.02,-8.02 l 0.22,-0.22 c 2.57,-2.89 5.35,-5.57 8.14,-8.14 l 0.33,-0.33 c 2.56,-2.78 5.24,-5.46 8.02,-8.02 l 0.23,-0.22 c 2.55,-2.9 5.34,-5.57 8.13,-8.14 l 0.33,-0.33 c 2.56,-2.78 5.24,-5.46 8.02,-8.02 l 0.22,-0.22 c 2.57,-2.9 5.35,-5.58 8.14,-8.14 l 0.33,-0.33 c 2.57,-2.79 5.24,-5.46 8.02,-8.02 l 0.23,-0.23 c 2.56,-2.89 5.35,-5.57 8.13,-8.12 l 0.34,-0.35 c 2.55,-2.78 5.23,-5.46 8.01,-8.01 l 0.23,-0.23 c 21.83,-23.95 53.47,-38.77 89.46,-38.77 67.96,0 120.55,52.7 120.55,120.66 v 166.67 h 21.95 c 67.95,0 122.76,52.58 122.76,120.54 0,34.88 -15.48,66.74 -40.1,88.91" /><g
         id="g54"><g
           clip-path="url(#clipPath60)"
           id="g56"><path
             id="path62"
             style="fill:#2251aa;fill-opacity:1;fill-rule:nonzero;stroke:none"
             d="m 253.219,1631.35 h 1281.36 V 3249.8 H 253.219 Z" /></g></g><path
         id="path64"
         style="fill:#406fbf;fill-opacity:1;fill-rule:nonzero;stroke:none"
         d="m 1065.17,2784.98 -436.35,-541.6 h 436.35 z m 385.91,-662.19 c 0,-67.98 -54.82,-120.6 -122.8,-120.6 h -21.92 v -166.66 c 0,-67.97 -52.63,-120.58 -120.58,-120.58 -67.99,0 -120.61,52.61 -120.61,120.58 v 166.66 h -686.315 -2.191 -2.195 c -26.313,0 -52.625,6.57 -74.559,26.32 -54.812,41.66 -61.387,116.2 -19.726,168.83 l 811.296,1008.64 c 2.2,0 2.2,2.19 4.39,4.38 2.2,2.19 4.39,4.39 6.58,8.78 6.56,2.19 8.75,4.37 10.95,6.57 2.19,2.19 6.58,4.39 8.78,6.58 4.39,2.2 6.59,4.39 13.14,4.39 2.2,4.38 4.39,6.57 8.78,6.57 2.2,2.2 6.59,2.2 13.17,4.39 2.2,0 6.56,0 8.75,2.19 4.39,0 10.98,0 15.37,0 0,0 2.19,0 4.39,0 2.19,0 2.19,0 4.36,0 4.39,0 10.97,0 13.17,0 4.38,-2.19 6.58,-2.19 10.97,-2.19 2.17,-2.19 8.76,-2.19 13.14,-4.39 2.2,0 6.59,-2.19 8.78,-2.19 4.39,-4.38 8.75,-6.57 10.95,-8.77 4.39,-2.19 6.58,-4.39 10.97,-6.58 0,0 2.2,0 2.2,-2.2 2.19,0 6.58,-2.18 6.58,-4.37 4.39,-4.39 6.56,-6.59 8.75,-8.78 2.2,-2.19 4.39,-6.58 6.59,-8.77 2.19,-2.2 4.39,-4.39 8.78,-10.96 0,-2.2 2.19,-6.58 4.39,-8.78 2.19,-4.37 2.19,-6.57 4.39,-13.15 0,-2.19 2.16,-6.57 2.16,-8.77 2.2,-4.39 2.2,-6.57 2.2,-13.16 0,-4.38 2.2,-6.58 2.2,-10.95 0,-2.2 0,-4.39 0,-6.59 v -885.85 h 21.92 c 67.98,0 122.8,-54.82 122.8,-120.59" /><path
         id="path66"
         style="fill:#fabb1e;fill-opacity:1;fill-rule:nonzero;stroke:none"
         d="M 2448.42,2094.26 C 2384.8,2000 2312.5,1958.34 2244.53,1958.34 c -37.43,0 -76.87,12.59 -115.64,39.77 -3.12,4.01 -6.13,8.25 -9.14,12.59 -61.38,92.14 -105.27,232.4 -105.27,388.15 0,157.87 43.89,296.02 105.27,390.27 65.85,92.14 140.38,135.92 208.34,133.81 36.1,1.11 73.42,-10.7 110.07,-35.99 3.46,-4.68 6.91,-9.36 10.26,-14.26 61.38,-94.25 105.28,-232.4 105.28,-390.27 0,-155.75 -43.9,-296.01 -105.28,-388.15 m 285.31,828.67 c -24.95,37.99 -53.69,73.19 -85.78,104.38 -1.22,1.34 -2.45,2.57 -3.79,3.68 l -1.11,1.12 c -1.01,1.11 -2.01,2.23 -3.12,3.23 -2.79,3 -5.8,5.79 -8.69,8.69 l -0.78,0.67 c -1.01,1 -2,2 -3.01,3 l -1.11,1.12 c -1.01,1.11 -2,2.22 -3.13,3.23 -2.78,3.01 -5.79,5.79 -8.68,8.68 l -0.78,0.68 c -1.01,1 -2.01,2 -3.01,3 l -1.11,1.12 c -1.01,1.11 -2.01,2.23 -3.13,3.23 -2.78,3.01 -5.79,5.79 -8.69,8.69 l -0.78,0.67 c -1,1 -2,2 -3.01,3.01 l -1.11,1.11 c -1,1.11 -2,2.23 -3.12,3.23 -2.78,3.01 -5.79,5.8 -8.69,8.69 l -0.78,0.67 c -1.01,1.11 -1.89,2.12 -3.01,3.01 l -1.11,1.12 c -88.02,90.79 -202.88,150.84 -331.67,150.84 -173.24,0 -315.73,-103.05 -407.87,-243.32 -96.48,-140.38 -146.83,-322.42 -149.06,-524.07 2.23,-199.53 52.58,-383.7 149.06,-524.07 24.85,-37.1 53.26,-71.97 84.9,-102.95 1.45,-1.44 2.9,-2.78 4.34,-4.22 l 0.56,-0.56 c 2.56,-2.68 5.24,-5.24 7.8,-7.8 1.33,-1.45 2.67,-2.79 4.01,-4.12 1.45,-1.45 2.9,-2.79 4.35,-4.24 l 0.55,-0.56 c 2.57,-2.67 5.24,-5.23 7.8,-7.79 1.34,-1.45 2.68,-2.79 4.01,-4.12 1.45,-1.46 2.9,-2.79 4.34,-4.24 l 0.56,-0.56 c 2.56,-2.67 5.24,-5.23 7.8,-7.79 1.34,-1.46 2.67,-2.79 4.01,-4.12 1.45,-1.46 2.9,-2.8 4.35,-4.24 l 0.56,-0.56 c 2.55,-2.67 5.23,-5.23 7.79,-7.8 1.34,-1.45 2.68,-2.78 4.01,-4.12 1.45,-1.45 2.9,-2.78 4.35,-4.23 l 0.55,-0.56 c 2.57,-2.67 5.24,-5.24 7.81,-7.8 86.67,-86.56 198.41,-144.61 326.98,-144.61 168.78,0 313.51,105.29 405.64,243.43 94.26,140.38 146.95,324.54 146.95,524.07 0,201.66 -52.69,383.7 -146.95,524.08" /><path
         id="path68"
         style="fill:#2251aa;fill-opacity:1;fill-rule:nonzero;stroke:none"
         d="m 2328.09,1631.35 c -128.57,0 -240.31,58.05 -326.98,144.61 -2.57,2.56 -5.24,5.13 -7.81,7.8 l -0.55,0.56 c -1.45,1.45 -2.9,2.78 -4.35,4.23 -1.33,1.34 -2.67,2.67 -4.01,4.12 -2.56,2.57 -5.24,5.13 -7.79,7.8 l -0.56,0.56 c -1.45,1.44 -2.9,2.78 -4.35,4.24 -1.34,1.33 -2.67,2.66 -4.01,4.12 -2.56,2.56 -5.24,5.12 -7.8,7.79 l -0.56,0.56 c -1.44,1.45 -2.89,2.78 -4.34,4.24 -1.33,1.33 -2.67,2.67 -4.01,4.12 -2.56,2.56 -5.23,5.12 -7.8,7.79 l -0.55,0.56 c -1.45,1.45 -2.9,2.79 -4.35,4.24 -1.34,1.33 -2.68,2.67 -4.01,4.12 -2.56,2.56 -5.24,5.12 -7.8,7.8 l -0.56,0.56 c -1.44,1.44 -2.89,2.78 -4.34,4.22 -4.33,4.24 -8.59,8.54 -12.79,12.91 87.87,-91.32 202.76,-153.35 335.75,-153.35 168.86,0 313.54,105.24 405.67,243.38 3.7,5.51 7.35,11.1 10.92,16.74 0.32,0.27 0.64,0.53 0.96,0.8 18.46,-2.33 42.41,-5.26 56.33,-6.95 8.44,31.3 17.04,61.01 25.4,88.34 18.13,21.7 34.78,44.58 49.83,68.47 -8.19,-75.45 -6.58,-114.77 -3.31,-151.13 -16.73,-35.23 -35.63,-68.61 -56.59,-99.82 -92.13,-138.14 -236.86,-243.43 -405.64,-243.43 m 493.35,1117.82 c -30.14,58.94 -69.02,111.87 -114.55,157.49 -16.75,35.16 -35.69,68.51 -56.7,99.78 -21.43,32.64 -45.7,63.27 -72.46,91.05 0.92,-0.8 1.71,-1.69 2.59,-2.66 l 0.78,-0.67 c 2.9,-2.89 5.91,-5.68 8.69,-8.69 1.12,-1 2.12,-2.12 3.12,-3.23 l 1.11,-1.11 c 1.01,-1.01 2.01,-2.01 3.01,-3.01 l 0.78,-0.67 c 2.9,-2.9 5.91,-5.68 8.69,-8.69 1.12,-1 2.12,-2.12 3.13,-3.23 l 1.11,-1.12 c 1,-1 2,-2 3.01,-3 l 0.78,-0.68 c 2.89,-2.89 5.9,-5.67 8.68,-8.68 1.13,-1.01 2.12,-2.12 3.13,-3.23 l 1.11,-1.12 c 1.01,-1 2,-2 3.01,-3 l 0.78,-0.67 c 2.89,-2.9 5.9,-5.69 8.69,-8.69 1.11,-1 2.11,-2.12 3.12,-3.23 l 1.11,-1.12 c 1.34,-1.11 2.57,-2.34 3.79,-3.68 32.09,-31.19 60.83,-66.39 85.78,-104.38 35.24,-52.48 64.67,-110.79 87.71,-173.76" /><path
         id="path70"
         style="fill:#2251aa;fill-opacity:1;fill-rule:nonzero;stroke:none"
         d="m 1842.22,1950.16 c -1.87,2.72 -3.72,5.44 -5.56,8.18 -19.81,28.83 -37.66,59.48 -53.57,91.75 0.02,-0.02 0,0 0.02,-0.02 15.9,-32.26 33.77,-62.92 53.58,-91.74 1.83,-2.74 3.67,-5.45 5.53,-8.17" /><path
         id="path72"
         style="fill:#2251aa;fill-opacity:1;fill-rule:nonzero;stroke:none"
         d="m 1746.67,2829.35 c 23.25,64.26 53.28,123.72 89.99,177.13 24.53,37.35 52.63,72.05 83.92,102.87 -31.29,-30.83 -59.37,-65.55 -83.89,-102.91 -36.72,-53.4 -66.76,-112.83 -90.02,-177.09" /><path
         id="path74"
         style="fill:#406fbf;fill-opacity:1;fill-rule:nonzero;stroke:none"
         d="m 2553.68,2482.38 c 0,157.88 -43.85,296.02 -105.24,390.32 -63.6,92.08 -135.93,135.94 -203.92,133.74 -67.98,2.2 -142.52,-41.66 -208.29,-133.74 -61.4,-94.3 -105.27,-232.44 -105.27,-390.32 0,-155.68 43.87,-296.01 105.27,-388.1 65.77,-94.29 140.31,-135.95 208.29,-135.95 67.99,0 140.32,41.66 203.92,135.95 61.39,92.09 105.24,232.42 105.24,388.1 m -866.1,0 c 2.2,201.73 52.62,383.73 149.11,524.06 92.08,140.33 234.6,243.39 407.83,243.39 168.86,0 313.54,-103.06 405.67,-243.39 94.27,-140.33 146.9,-322.33 146.9,-524.06 0,-199.52 -52.63,-383.71 -146.9,-524.05 -92.13,-138.14 -236.81,-243.38 -405.67,-243.38 -173.23,0 -315.75,105.24 -407.83,243.38 -96.49,140.34 -146.91,324.53 -149.11,524.05" /><path
         id="path76"
         style="fill:#fabb1e;fill-opacity:1;fill-rule:nonzero;stroke:none"
         d="m 3798.22,2597.72 v -354.4 h -285.55 l 285.55,354.4 m 429.37,-469.59 -0.11,0.11 c -2.68,2.9 -5.46,5.68 -8.24,8.24 l -0.12,0.12 c -2.67,2.89 -5.46,5.68 -8.24,8.24 l -0.11,0.11 c -2.68,2.9 -5.46,5.68 -8.24,8.24 l -0.12,0.12 c -2.67,2.9 -5.46,5.68 -8.24,8.24 l -0.11,0.11 c -2.68,2.9 -5.46,5.68 -8.25,8.25 l -0.11,0.11 c -2.67,2.89 -5.46,5.68 -8.24,8.24 l -0.12,0.11 c -2.66,2.9 -5.46,5.69 -8.24,8.25 l -0.11,0.11 c -2.67,2.9 -5.46,5.68 -8.24,8.25 l -0.12,0.11 c -2.67,2.89 -5.46,5.68 -8.24,8.24 l -0.12,0.11 c -8.46,9.25 -18.38,17.27 -29.4,23.51 v 825.32 c 0,4.35 -2.12,6.57 -2.12,10.92 0,6.57 0,8.8 -2.23,13.15 0,2.22 -2.12,6.57 -2.12,8.8 -2.22,6.57 -2.22,8.8 -4.45,13.15 -2.12,2.22 -4.34,6.57 -4.34,8.8 -4.35,6.57 -6.58,8.8 -8.81,10.91 -2.23,2.23 -4.34,6.57 -6.58,8.8 l -8.79,8.81 c 0,1.33 -1.67,2.67 -3.57,3.56 -1.11,1.12 -2.56,2.56 -4.34,4.35 l -0.45,0.44 c 0,1.34 -1.67,2.68 -3.57,3.56 -1.11,1.12 -2.56,2.57 -4.34,4.35 l -0.44,0.45 c 0,1.33 -1.67,2.67 -3.57,3.56 -1.11,1.12 -2.57,2.56 -4.34,4.35 l -0.45,0.44 c 0,1.34 -1.67,2.67 -3.57,3.57 -1.11,1.11 -2.55,2.56 -4.34,4.35 l -0.44,0.44 c 0,1.33 -1.68,2.67 -3.58,3.56 -1.11,1.12 -2.55,2.57 -4.33,4.35 l -0.45,0.44 c 0,1.34 -1.67,2.68 -3.57,3.57 -1.11,1.11 -2.56,2.56 -4.34,4.34 l -0.45,0.45 c 0,1.33 -1.67,2.67 -3.56,3.56 -1.12,1.12 -2.56,2.57 -4.35,4.35 l -0.44,0.45 c 0,1.33 -1.67,2.67 -3.56,3.56 -1.12,1.11 -2.57,2.56 -4.35,4.35 l -0.45,0.44 c 0,1.34 -1.67,2.68 -3.56,3.57 -1.12,1.11 -2.56,2.56 -4.35,4.34 l -0.45,0.44 c 0,1.34 -1.67,2.68 -3.56,3.58 l -4.79,4.78 c 0,2.12 -4.34,4.35 -6.57,4.35 0,2.23 -2.24,2.23 -2.24,2.23 -4.33,2.11 -6.56,4.34 -10.91,6.57 -2.23,2.23 -6.57,4.35 -10.92,8.8 -2.23,0 -6.57,2.12 -8.8,2.12 -4.35,2.22 -10.92,2.22 -13.15,4.45 -4.45,0 -6.57,0 -11.02,2.12 h -13.16 c -2.1,0 -2.1,0 -4.33,0 -2.12,0 -4.35,0 -4.35,0 h -15.38 c -2.22,-2.12 -6.57,-2.12 -8.8,-2.12 -6.57,-2.23 -10.92,-2.23 -13.14,-4.45 -4.35,0 -6.57,-2.12 -8.8,-6.57 -6.47,0 -8.69,-2.12 -13.16,-4.35 -2.1,-2.23 -6.57,-4.46 -8.68,-6.57 -2.23,-2.23 -4.46,-4.46 -11.03,-6.58 -2.23,-4.45 -4.35,-6.57 -6.57,-8.8 -2.23,-2.23 -2.23,-4.34 -4.35,-4.34 L 3013.22,2197.31 c -39.33,-49.58 -35.64,-118.76 10.92,-161.32 2.57,-3.01 5.35,-5.79 8.36,-8.35 2.56,-3.01 5.35,-5.8 8.36,-8.36 2.56,-3.01 5.34,-5.79 8.35,-8.36 2.57,-3.01 5.35,-5.79 8.36,-8.35 2.56,-3.01 5.35,-5.8 8.36,-8.36 2.55,-3 5.34,-5.79 8.35,-8.36 2.56,-3 5.35,-5.79 8.36,-8.35 2.55,-3 5.34,-5.79 8.35,-8.35 2.56,-3.01 5.35,-5.8 8.35,-8.37 5.01,-5.67 10.82,-11.02 17.16,-15.8 21.95,-19.73 48.24,-26.3 74.53,-26.3 h 607.19 v -83.11 c 0,-36.21 14.92,-68.18 39.21,-90.02 l 0.22,-0.22 c 2.57,-2.9 5.36,-5.58 8.14,-8.14 l 0.33,-0.33 c 2.57,-2.78 5.24,-5.46 8.03,-8.03 l 0.21,-0.21 c 2.57,-2.9 5.35,-5.58 8.14,-8.14 l 0.34,-0.33 c 2.56,-2.79 5.24,-5.46 8.02,-8.03 l 0.22,-0.22 c 2.56,-2.89 5.34,-5.57 8.14,-8.13 l 0.33,-0.34 c 2.56,-2.78 5.23,-5.46 8.02,-8.02 l 0.22,-0.22 c 2.56,-2.9 5.35,-5.57 8.14,-8.13 l 0.33,-0.34 c 2.56,-2.78 5.23,-5.46 8.02,-8.01 l 0.22,-0.23 c 2.57,-2.9 5.35,-5.58 8.13,-8.13 l 0.34,-0.34 c 21.83,-23.95 53.37,-38.66 89.35,-38.66 67.96,0 120.55,52.7 120.55,120.66 v 166.67 h 21.94 c 68.08,0 122.88,52.58 122.88,120.54 0,34.88 -15.47,66.74 -40.1,88.91" /><path
         id="path78"
         style="fill:#2251aa;fill-opacity:1;fill-rule:nonzero;stroke:none"
         d="m 4002.32,1631.35 c -35.98,0 -67.52,14.71 -89.35,38.66 l -0.34,0.34 c -2.78,2.55 -5.56,5.23 -8.13,8.13 l -0.22,0.23 c -2.79,2.55 -5.46,5.23 -8.02,8.01 l -0.33,0.34 c -2.79,2.56 -5.58,5.23 -8.14,8.13 l -0.22,0.22 c -2.79,2.56 -5.46,5.24 -8.02,8.02 l -0.33,0.34 c -2.8,2.56 -5.58,5.24 -8.14,8.13 l -0.22,0.22 c -2.78,2.57 -5.46,5.24 -8.02,8.03 l -0.34,0.33 c -2.79,2.56 -5.57,5.24 -8.14,8.14 l -0.21,0.21 c -2.79,2.57 -5.46,5.25 -8.03,8.03 l -0.33,0.33 c -2.78,2.56 -5.57,5.24 -8.14,8.14 l -0.22,0.22 c -24.29,21.84 -39.21,53.81 -39.21,90.02 v 83.11 h -217.84 c 5.84,23.71 12.93,53.62 15.21,67.68 10.75,64.24 9.95,130.93 -1.82,194.58 -4.03,21.4 -9.54,42.11 -15.98,62.38 h 220.43 v 354.4 l -240.48,-298.47 c -8.72,22.28 -17.98,44.35 -27,66.6 l -0.62,1.33 -0.19,0.5 c -16.69,41.71 -28.27,81.34 -34.79,122.89 l -0.21,0.94 c -4.43,29.49 -6.4,59.75 -5.87,92.89 1.11,58.14 -11.63,113.25 -37.27,158.2 l 372.72,463.42 c 2.12,0 2.12,2.11 4.35,4.34 2.22,2.23 4.34,4.35 6.57,8.8 6.57,2.12 8.8,4.35 11.03,6.58 2.11,2.11 6.58,4.34 8.68,6.57 4.47,2.23 6.69,4.35 13.16,4.35 2.23,4.45 4.45,6.57 8.8,6.57 2.22,2.22 6.57,2.22 13.14,4.45 2.23,0 6.58,0 8.8,2.12 h 15.38 c 0,0 2.23,0 4.35,0 2.23,0 2.23,0 4.33,0 h 13.16 c 4.45,-2.12 6.57,-2.12 11.02,-2.12 2.23,-2.23 8.8,-2.23 13.15,-4.45 2.23,0 6.57,-2.12 8.8,-2.12 4.35,-4.45 8.69,-6.57 10.92,-8.8 4.35,-2.23 6.58,-4.46 10.91,-6.57 0,0 2.24,0 2.24,-2.23 2.23,0 6.57,-2.23 6.57,-4.35 l 4.79,-4.78 c 1.89,-0.9 3.56,-2.24 3.56,-3.58 l 0.45,-0.44 c 1.79,-1.78 3.23,-3.23 4.35,-4.34 1.89,-0.89 3.56,-2.23 3.56,-3.57 l 0.45,-0.44 c 1.78,-1.79 3.23,-3.24 4.35,-4.35 1.89,-0.89 3.56,-2.23 3.56,-3.56 l 0.44,-0.45 c 1.79,-1.78 3.23,-3.23 4.35,-4.35 1.89,-0.89 3.56,-2.23 3.56,-3.56 l 0.45,-0.45 c 1.78,-1.78 3.23,-3.23 4.34,-4.34 1.9,-0.89 3.57,-2.23 3.57,-3.57 l 0.45,-0.44 c 1.78,-1.78 3.22,-3.23 4.33,-4.35 1.9,-0.89 3.58,-2.23 3.58,-3.56 l 0.44,-0.44 c 1.79,-1.79 3.23,-3.24 4.34,-4.35 1.9,-0.9 3.57,-2.23 3.57,-3.57 l 0.45,-0.44 c 1.77,-1.79 3.23,-3.23 4.34,-4.35 1.9,-0.89 3.57,-2.23 3.57,-3.56 l 0.44,-0.45 c 1.78,-1.78 3.23,-3.23 4.34,-4.35 1.9,-0.88 3.57,-2.22 3.57,-3.56 l 0.45,-0.44 c 1.78,-1.79 3.23,-3.23 4.34,-4.35 1.9,-0.89 3.57,-2.23 3.57,-3.56 l 8.79,-8.81 c 2.24,-2.23 4.35,-6.57 6.58,-8.8 2.23,-2.11 4.46,-4.34 8.81,-10.91 0,-2.23 2.22,-6.58 4.34,-8.8 2.23,-4.35 2.23,-6.58 4.45,-13.15 0,-2.23 2.12,-6.58 2.12,-8.8 2.2,-4.28 2.23,-6.51 2.23,-12.85 0,-0.02 0,-0.05 0,-0.07 0,-0.03 0,-0.05 0,-0.08 0,-0.02 0,-0.05 0,-0.07 0,-0.03 0,-0.06 0,-0.08 0,-4.35 2.12,-6.57 2.12,-10.92 v -268.63 -111.9 -29.2 -111.9 -303.69 0 c 11.02,-6.24 20.94,-14.26 29.4,-23.51 l 0.12,-0.11 c 2.78,-2.56 5.57,-5.35 8.24,-8.24 l 0.12,-0.11 c 2.78,-2.57 5.57,-5.35 8.24,-8.25 l 0.11,-0.11 c 2.78,-2.56 5.58,-5.35 8.24,-8.25 l 0.12,-0.11 c 2.78,-2.56 5.57,-5.35 8.24,-8.24 l 0.11,-0.11 c 2.79,-2.57 5.57,-5.35 8.25,-8.25 l 0.11,-0.11 c 2.78,-2.56 5.57,-5.34 8.24,-8.24 l 0.12,-0.12 c 2.78,-2.56 5.56,-5.34 8.24,-8.24 l 0.11,-0.11 c 2.78,-2.56 5.57,-5.35 8.24,-8.24 l 0.12,-0.12 c 2.78,-2.56 5.56,-5.34 8.24,-8.24 l 0.11,-0.11 c 24.63,-22.17 40.1,-54.03 40.1,-88.91 0,-67.96 -54.8,-120.54 -122.88,-120.54 h -21.94 v -166.67 c 0,-67.96 -52.59,-120.66 -120.55,-120.66 m -553.28,287.33 h -65.33 c 24.41,80.59 46.06,160.32 49.6,160.32 0.14,0 0.25,-0.12 0.33,-0.37 15.87,-45.49 17.99,-106.95 15.4,-159.95" /><path
         id="path80"
         style="fill:#406fbf;fill-opacity:1;fill-rule:nonzero;stroke:none"
         d="m 3798.19,2784.98 -436.39,-541.6 h 436.39 z m 385.91,-662.19 c 0,-67.98 -54.82,-120.6 -122.8,-120.6 h -21.96 v -166.66 c 0,-67.97 -52.61,-120.58 -120.54,-120.58 -67.99,0 -120.61,52.61 -120.61,120.58 v 166.66 h -686.33 -2.19 -2.2 c -26.34,0 -52.62,6.57 -74.56,26.32 -54.83,41.66 -61.41,116.2 -19.71,168.83 l 811.27,1008.64 c 2.2,0 2.2,2.19 4.4,4.38 2.18,2.19 4.38,4.39 6.58,8.78 6.58,2.19 8.78,4.37 10.97,6.57 2.19,2.19 6.59,4.39 8.78,6.58 4.39,2.2 6.59,4.39 13.11,4.39 2.2,4.38 4.39,6.57 8.79,6.57 2.19,2.2 6.58,2.2 13.16,4.39 2.2,0 6.58,0 8.78,2.19 4.4,0 10.98,0 15.36,0 0,0 2.2,0 4.4,0 2.19,0 2.19,0 4.33,0 4.39,0 10.97,0 13.17,0 4.39,-2.19 6.58,-2.19 10.97,-2.19 2.2,-2.19 8.78,-2.19 13.17,-4.39 2.2,0 6.59,-2.19 8.78,-2.19 4.39,-4.38 8.73,-6.57 10.93,-8.77 4.38,-2.19 6.58,-4.39 10.96,-6.58 0,0 2.2,0 2.2,-2.2 2.2,0 6.58,-2.18 6.58,-4.37 4.4,-4.39 6.59,-6.59 8.78,-8.78 2.2,-2.19 4.4,-6.58 6.59,-8.77 2.19,-2.2 4.39,-4.39 8.78,-10.96 0,-2.2 2.19,-6.58 4.39,-8.78 2.19,-4.37 2.19,-6.57 4.38,-13.15 0,-2.19 2.15,-6.57 2.15,-8.77 2.2,-4.39 2.2,-6.57 2.2,-13.16 0,-4.38 2.18,-6.58 2.18,-10.95 0,-2.2 0,-4.39 0,-6.59 v -885.85 h 21.96 c 67.98,0 122.8,-54.82 122.8,-120.59" /><path
         id="path124"
         style="fill:#17282f;fill-opacity:1;fill-rule:nonzero;stroke:none"
         d="m 2563.1,1999.44 c -0.61,-4.76 1.95,-9.89 6.52,-10.9 10.57,-1.6 23.29,-3.33 37.56,-5.32 42.26,91.82 85.46,164.09 73.29,135.54 -17.63,-41.31 -33.27,-101.46 -36.36,-140.59 16.57,-2.2 55.03,-6.91 74.29,-9.25 44.18,163.83 92.86,284.18 87.12,246.38 -23.13,-152.46 -19.05,-202.29 -13.78,-255.58 179.32,-21.78 414.77,-47.55 585.47,-62.3 27.93,90.32 54.06,188.37 56.43,181.21 18.67,-53.52 18.3,-129.13 13.64,-187.08 54.39,-4.27 97.95,-6.62 124.63,-6.64 0,0 19.59,76.22 23.68,101.45 10.75,64.24 9.95,130.93 -1.82,194.58 -12.36,65.58 -38.57,124.59 -63.03,184.91 l -0.62,1.33 -0.19,0.5 c -16.69,41.71 -28.27,81.34 -34.79,122.89 l -0.21,0.94 c -4.43,29.49 -6.4,59.75 -5.87,92.89 2.18,113.85 -48.77,216.09 -145.7,253.12 -165.47,169.12 -392.79,91.48 -456.98,-51.47 l -0.19,-0.54 c -25.12,-64.08 -49.95,-147.81 -71.76,-212.32 l -0.12,-0.36 -0.27,-0.73 -0.07,-0.18 c -10.61,-30.71 -20.31,-56.78 -29.12,-74.24 -58.05,-114.78 -172.66,-174.13 -221.75,-498.24" /><path
         id="path126"
         style="fill:#17282f;fill-opacity:1;fill-rule:nonzero;stroke:none"
         d="m 3383.97,2803.2 c 62.12,-41.09 97.45,-97.17 100.21,-180.58 1.6,-48.61 0.4,-95.86 13.65,-142.59 13.67,-48.22 38.53,-88.76 64.17,-129.3 40.75,-64.43 67.55,-127.58 67.47,-209.24 -0.07,-82.93 -12.45,-179.9 -45.33,-254.91 l -0.62,0.27 c 28.06,76.44 38.25,184.32 32.54,266.92 -6.27,90.73 -48.74,150.57 -91.27,222.24 -33.78,56.94 -53.04,118.57 -55.1,188.19 -1.22,41.22 3.14,83.69 -8.8,123.3 -14.26,47.27 -48.28,79.14 -82.29,107.68 -4.63,3.88 0.66,11.14 5.37,8.02" /><path
         id="path128"
         style="fill:#17282f;fill-opacity:1;fill-rule:nonzero;stroke:none"
         d="m 2664,2378.83 c 51.86,60.9 104.78,112.19 138.91,189.94 31.09,70.84 52.03,146.56 83.56,217.28 0.51,1.14 2.1,0.54 1.61,-0.67 -50.11,-126.01 -69.19,-255.42 -156.67,-358.12 -47.54,-55.8 -94.68,-107.3 -128.86,-175.87 -35.92,-72.05 -55.41,-148.34 -64.6,-229.74 -0.31,-2.84 -3.72,-2.44 -3.71,0.31 0.18,132.8 48.34,261.24 129.76,356.87" /><path
         id="path130"
         style="fill:#f89b6a;fill-opacity:1;fill-rule:nonzero;stroke:none"
         d="m 2160.75,827.379 c 0,0 482.37,-130.848 562.19,-116.418 79.8,14.43 349.17,376.519 409.02,508.069 59.86,131.55 159.06,785.67 139.74,857.66 -19.33,71.99 -118.95,73.04 -203.26,-112.6 -84.31,-185.65 -283.43,-593.56 -318.9,-626.82 -35.47,-33.25 -627.97,-475.532 -588.79,-509.891" /><path
         id="path132"
         style="fill:#f89b6a;fill-opacity:1;fill-rule:nonzero;stroke:none"
         d="m 2681.04,753.898 c -74.01,38.774 -164.14,132.602 -225.46,142.411 -55.37,8.871 -76.73,-36.559 -76.73,-36.559 0,0 -28.25,62.672 -85.36,62.398 -29.39,-0.128 -54.99,-47.199 -54.99,-47.199 0,0 -24.82,49.231 -75.6,45.86 -40.45,-2.68 -60.05,-49.438 -60.05,-49.438 0,0 -45.83,36.129 -86.17,20.188 -81.8,-32.36 -95.48,-380.118 30.52,-438.879 58.72,-27.391 57.45,57.742 57.45,57.742 0,0 31.39,-121.973 103.01,-126.633 71.63,-4.648 63.31,105.852 63.31,105.852 0,0 31.45,-117.93 106.2,-115.262 77.81,2.781 50.54,111.883 50.54,111.883 0,0 49.39,-79.391 106.15,-64.242 93.71,25.011 -6.99,213.23 14.16,288.941 h 117.7 l 15.32,42.937" /><path
         id="path134"
         style="fill:#f89b6a;fill-opacity:1;fill-rule:nonzero;stroke:none"
         d="m 2574.23,827.91 c 73.28,-30.582 156.93,85.141 232.34,58.211 97.74,-34.902 7.34,-155.582 -140.85,-175.16 h -117.7 l 26.21,116.949" /><path
         id="path136"
         style="fill:#17282f;fill-opacity:1;fill-rule:nonzero;stroke:none"
         d="m 2098.68,864.43 c 0.13,1.152 -1.45,1.57 -1.79,0.422 -32.37,-113.301 -33.21,-247.704 7.27,-359.09 1.33,-3.66 7.85,-3.09 7.15,1.218 -19.77,122.801 -27.52,233.36 -12.63,357.45" /><path
         id="path138"
         style="fill:#17282f;fill-opacity:1;fill-rule:nonzero;stroke:none"
         d="m 2237.84,876.66 c 0.16,1.352 -2.07,1.649 -2.47,0.238 -32.71,-116.929 -29.5,-268.32 32.29,-391.23 2.11,-4.219 8.24,-5.879 6.17,-0.84 -34.89,84.844 -49.96,280.192 -35.99,391.832" /><path
         id="path140"
         style="fill:#17282f;fill-opacity:1;fill-rule:nonzero;stroke:none"
         d="m 2435.03,478.719 c -54.69,120.14 -65.35,245.73 -57.77,376.293 0.1,1.707 -2.31,1.668 -2.78,0.277 -21.11,-62.859 -17.28,-146.59 -8.78,-211.5 8.15,-62.148 27.98,-116.609 65.13,-166.988 1.43,-1.949 5.37,-0.66 4.2,1.918" /><path
         id="path142"
         style="fill:#17282f;fill-opacity:1;fill-rule:nonzero;stroke:none"
         d="m 2812.31,895.301 c -47.95,15.98 -97.27,-22.41 -137.67,-43.84 -13.24,-7.02 -26.37,-14.902 -40.7,-19.32 -31.96,-9.86 -55.7,-3.629 -69.55,5.257 -22.4,14.372 -92.38,84.102 -142.82,60.942 -15.74,-7.219 -34.27,-21.879 -43.22,-36.699 -15.41,27.961 -35.08,58.468 -69.24,64.089 -15.62,2.571 -30.22,-1.5 -42.76,-11.101 -6.39,-4.879 -11.97,-10.668 -16.82,-17.078 -4.42,-5.84 -8.98,-12.192 -11.57,-19.129 l -0.26,0.668 -1.02,2.148 c -0.69,1.434 -1.39,2.864 -2.12,4.274 -1.52,2.949 -3.27,5.84 -5.41,8.386 -1.98,2.34 -4.08,4.622 -6.45,6.563 -2.1,1.719 -4.59,3.148 -7.38,2.918 -0.9,-0.07 -1,-1.25 -0.17,-1.527 2.5,-0.872 3.99,-3.172 5.39,-5.274 1.61,-2.43 3.1,-4.937 4.78,-7.297 1.65,-2.332 3.36,-4.621 5.01,-6.941 0.87,-1.231 1.7,-2.469 2.5,-3.75 l 1.1,-1.828 1.62,-1.723 c 0.78,-0.918 1.89,-0.437 2.42,0.41 l 0.31,-0.019 c 5.46,4.218 9.34,10 13.9,15.152 5.12,5.789 10.46,11.488 16.7,16.09 11.87,8.75 26.4,12.937 41.04,10.058 30.61,-6.031 50.06,-33.199 66.36,-57.48 l 0.44,-0.289 -0.01,-0.012 1.25,-0.918 c 16.8,14.649 32.82,31.219 55.99,34.61 25.01,3.648 48.71,-8.352 69.41,-20.922 10.3,-6.258 20.37,-12.797 29.88,-20.207 8.5,-6.633 16.57,-13.961 25.7,-19.711 38.88,-24.492 81.48,-5.52 92.11,-0.981 21.19,9.071 40.92,20.5 60.74,32.18 20.12,11.859 41.42,23.59 65.01,26.309 21.01,2.429 44.49,-4.258 57.78,-21.598 7.23,-9.422 16.61,-27 -2.52,-67.051 l 0.55,-0.531 c 9.85,10.062 41.64,74.519 -20.3,95.172" /><path
         id="path144"
         style="fill:#273e47;fill-opacity:1;fill-rule:nonzero;stroke:none"
         d="m 3234.1,1469.11 -455.58,72.77 c 0,0 217.65,430.99 348.31,555.99 128.99,123.37 191.84,-3.01 172.84,-193.63 -21.07,-211.35 -65.57,-435.13 -65.57,-435.13" /><path
         id="path146"
         style="fill:#17282f;fill-opacity:1;fill-rule:nonzero;stroke:none"
         d="m 3219.25,1553.94 c -12.77,3.03 -25.85,4.93 -38.68,7.74 -12.47,2.75 -25.08,4.71 -37.69,6.68 -25.71,4.02 -51.49,7.56 -77.27,11.1 -50.8,6.97 -101.59,14.7 -152.56,20.28 -28.98,3.16 -57.84,7.56 -86.87,10.27 l -0.17,-1.54 c 50.49,-11.86 101.99,-20.58 153.17,-28.92 50.66,-8.27 101.55,-16.09 152.59,-21.67 14.29,-1.56 28.63,-3.37 42.99,-4.08 14.69,-0.72 29.53,-2.1 44.21,-2.32 1.42,-0.02 1.63,2.14 0.28,2.46" /><path
         id="path148"
         style="fill:#33535f;fill-opacity:1;fill-rule:nonzero;stroke:none"
         d="m 2980,706.699 h 1206.76 c 0,0 -501.42,1244.661 -756.36,1426.451 -76.54,54.58 -198.44,60.63 -280.66,-48.96 -67.41,-89.82 -254.48,-447.47 -263.03,-576.1 -8.15,-128.93 92.4,-255.62 92.4,-255.62 L 2980,706.699" /><path
         id="path150"
         style="fill:#ffffff;fill-opacity:1;fill-rule:nonzero;stroke:none"
         d="m 3379.88,1550.13 c 3.03,0.85 6.06,1.21 9.08,1.83 2.82,0.54 6.84,0.68 10.09,-0.68 6.84,-2.37 11.89,-9.47 11.95,-16.99 -0.11,-4.94 2.32,-9.38 6.5,-12.2 2.16,-1.38 4.41,-2.16 7.49,-2.52 3.03,-0.62 6.05,-0.98 9.08,-1.83 -3.03,-0.85 -6.05,-1.22 -9.08,-1.84 -2.97,-0.56 -6.9,-0.49 -10.13,0.97 -6.78,2.57 -11.47,10.06 -11.36,17.29 0.05,4.68 -2.64,9.24 -6.89,11.83 -2.24,1.33 -4.43,1.95 -7.65,2.31 -3.02,0.62 -6.05,0.99 -9.08,1.83" /><path
         id="path152"
         style="fill:#ffffff;fill-opacity:1;fill-rule:nonzero;stroke:none"
         d="m 2918.41,1550.13 c 3.02,0.85 6.05,1.21 9.08,1.83 2.81,0.54 6.83,0.68 10.08,-0.68 6.84,-2.37 11.89,-9.47 11.95,-16.99 -0.11,-4.94 2.32,-9.38 6.5,-12.2 2.16,-1.38 4.42,-2.16 7.48,-2.52 3.03,-0.62 6.06,-0.98 9.1,-1.83 -3.04,-0.85 -6.07,-1.22 -9.1,-1.84 -2.96,-0.56 -6.88,-0.49 -10.12,0.97 -6.77,2.57 -11.47,10.06 -11.35,17.29 0.05,4.68 -2.65,9.24 -6.89,11.83 -2.24,1.33 -4.45,1.95 -7.65,2.31 -3.03,0.62 -6.06,0.99 -9.08,1.83" /><path
         id="path154"
         style="fill:#ffffff;fill-opacity:1;fill-rule:nonzero;stroke:none"
         d="m 3547.47,950.691 c 3.03,0.84 6.05,1.207 9.08,1.821 2.81,0.547 6.83,0.687 10.08,-0.672 6.85,-2.371 11.89,-9.469 11.96,-16.988 -0.11,-4.942 2.32,-9.391 6.5,-12.204 2.15,-1.386 4.41,-2.168 7.48,-2.519 3.02,-0.617 6.05,-0.988 9.08,-1.828 -3.03,-0.852 -6.06,-1.231 -9.08,-1.852 -2.97,-0.558 -6.89,-0.48 -10.13,0.981 -6.77,2.558 -11.46,10.05 -11.35,17.289 0.05,4.679 -2.64,9.242 -6.89,11.832 -2.24,1.328 -4.45,1.949 -7.65,2.308 -3.03,0.621 -6.05,0.981 -9.08,1.832" /><path
         id="path156"
         style="fill:#ffffff;fill-opacity:1;fill-rule:nonzero;stroke:none"
         d="m 3756.05,1517.74 c 3.04,0.84 6.07,1.21 9.1,1.82 2.81,0.55 6.82,0.69 10.07,-0.67 6.84,-2.37 11.89,-9.47 11.96,-16.99 -0.11,-4.94 2.32,-9.39 6.49,-12.2 2.17,-1.39 4.42,-2.17 7.49,-2.52 3.03,-0.62 6.06,-0.98 9.08,-1.83 -3.02,-0.86 -6.05,-1.22 -9.08,-1.85 -2.97,-0.56 -6.88,-0.48 -10.13,0.98 -6.76,2.57 -11.47,10.06 -11.34,17.28 0.05,4.69 -2.65,9.25 -6.9,11.84 -2.23,1.33 -4.44,1.95 -7.64,2.31 -3.03,0.62 -6.06,0.98 -9.1,1.83" /><path
         id="path158"
         style="fill:#ffffff;fill-opacity:1;fill-rule:nonzero;stroke:none"
         d="m 3222.78,1822.61 c 3.03,0.84 6.06,1.21 9.08,1.83 2.82,0.54 6.83,0.68 10.08,-0.68 6.84,-2.37 11.89,-9.47 11.96,-16.99 -0.11,-4.94 2.32,-9.39 6.5,-12.2 2.16,-1.38 4.41,-2.16 7.48,-2.52 3.03,-0.62 6.05,-0.98 9.08,-1.84 -3.03,-0.85 -6.05,-1.21 -9.08,-1.84 -2.97,-0.55 -6.89,-0.48 -10.13,0.98 -6.76,2.57 -11.47,10.06 -11.34,17.28 0.04,4.69 -2.65,9.25 -6.9,11.84 -2.24,1.33 -4.44,1.95 -7.65,2.32 -3.02,0.61 -6.05,0.97 -9.08,1.82" /><path
         id="path160"
         style="fill:#ffffff;fill-opacity:1;fill-rule:nonzero;stroke:none"
         d="m 3551.02,1829.48 c 3.03,0.85 6.06,1.21 9.09,1.83 2.81,0.55 6.83,0.69 10.08,-0.67 6.84,-2.37 11.89,-9.47 11.96,-16.99 -0.12,-4.94 2.31,-9.4 6.49,-12.2 2.16,-1.4 4.42,-2.17 7.49,-2.53 3.03,-0.62 6.06,-0.99 9.08,-1.84 -3.02,-0.85 -6.05,-1.21 -9.08,-1.83 -2.97,-0.56 -6.89,-0.48 -10.13,0.97 -6.77,2.57 -11.47,10.06 -11.35,17.29 0.05,4.68 -2.65,9.24 -6.9,11.84 -2.23,1.32 -4.43,1.95 -7.64,2.3 -3.03,0.63 -6.06,0.99 -9.09,1.83" /><path
         id="path162"
         style="fill:#ffffff;fill-opacity:1;fill-rule:nonzero;stroke:none"
         d="m 3338.54,2144.63 c 3.03,0.84 6.06,1.2 9.09,1.82 2.81,0.55 6.83,0.69 10.08,-0.67 6.84,-2.37 11.89,-9.47 11.96,-16.99 -0.12,-4.94 2.31,-9.39 6.49,-12.2 2.16,-1.39 4.41,-2.17 7.49,-2.52 3.03,-0.62 6.06,-0.99 9.08,-1.84 -3.02,-0.85 -6.05,-1.22 -9.08,-1.84 -2.97,-0.56 -6.89,-0.48 -10.13,0.98 -6.77,2.56 -11.47,10.05 -11.35,17.29 0.05,4.67 -2.65,9.23 -6.9,11.83 -2.23,1.33 -4.43,1.95 -7.64,2.31 -3.03,0.62 -6.06,0.98 -9.09,1.83" /><path
         id="path164"
         style="fill:#ffffff;fill-opacity:1;fill-rule:nonzero;stroke:none"
         d="m 3142.21,1299.32 c 3.02,0.84 6.05,1.21 9.08,1.83 2.81,0.54 6.82,0.68 10.09,-0.68 6.83,-2.37 11.88,-9.47 11.94,-16.99 -0.11,-4.94 2.32,-9.38 6.5,-12.2 2.16,-1.38 4.42,-2.16 7.48,-2.52 3.03,-0.62 6.06,-0.98 9.1,-1.83 -3.04,-0.85 -6.07,-1.22 -9.1,-1.85 -2.97,-0.55 -6.88,-0.48 -10.12,0.98 -6.77,2.57 -11.47,10.06 -11.35,17.29 0.05,4.68 -2.65,9.24 -6.9,11.83 -2.23,1.33 -4.44,1.95 -7.64,2.31 -3.03,0.62 -6.06,0.99 -9.08,1.83" /><path
         id="path166"
         style="fill:#ffffff;fill-opacity:1;fill-rule:nonzero;stroke:none"
         d="m 3500.16,750.07 c 3.03,0.852 6.06,1.211 9.09,1.828 2.81,0.551 6.83,0.692 10.08,-0.668 6.84,-2.371 11.89,-9.48 11.96,-16.992 -0.11,-4.937 2.32,-9.386 6.49,-12.199 2.16,-1.391 4.43,-2.168 7.49,-2.519 3.03,-0.622 6.06,-0.989 9.08,-1.84 -3.02,-0.848 -6.05,-1.211 -9.08,-1.84 -2.97,-0.559 -6.89,-0.481 -10.12,0.98 -6.77,2.559 -11.48,10.051 -11.35,17.289 0.04,4.672 -2.65,9.231 -6.91,11.821 -2.23,1.34 -4.43,1.961 -7.64,2.32 -3.03,0.609 -6.06,0.98 -9.09,1.82" /><path
         id="path168"
         style="fill:#ffffff;fill-opacity:1;fill-rule:nonzero;stroke:none"
         d="m 3323.91,1045.2 c 3.03,0.85 6.06,1.21 9.09,1.83 2.81,0.54 6.83,0.68 10.08,-0.67 6.84,-2.38 11.89,-9.48 11.96,-17 -0.12,-4.94 2.31,-9.39 6.49,-12.2 2.16,-1.38 4.42,-2.17 7.49,-2.52 3.03,-0.62 6.06,-0.98 9.08,-1.83 -3.02,-0.85 -6.05,-1.22 -9.08,-1.84 -2.97,-0.57 -6.89,-0.49 -10.12,0.97 -6.78,2.57 -11.48,10.06 -11.36,17.29 0.05,4.68 -2.65,9.24 -6.9,11.83 -2.23,1.33 -4.44,1.95 -7.64,2.31 -3.03,0.62 -6.06,0.99 -9.09,1.83" /><path
         id="path170"
         style="fill:#ffffff;fill-opacity:1;fill-rule:nonzero;stroke:none"
         d="m 2997.87,991.578 c 3.03,0.844 6.05,1.211 9.08,1.82 2.81,0.551 6.84,0.692 10.09,-0.668 6.84,-2.371 11.88,-9.468 11.95,-16.992 -0.11,-4.937 2.32,-9.386 6.5,-12.199 2.16,-1.391 4.41,-2.168 7.49,-2.519 3.02,-0.629 6.05,-0.989 9.08,-1.84 -3.03,-0.86 -6.06,-1.219 -9.08,-1.84 -2.97,-0.559 -6.9,-0.481 -10.13,0.969 -6.78,2.57 -11.47,10.062 -11.36,17.293 0.05,4.687 -2.64,9.25 -6.89,11.839 -2.24,1.321 -4.44,1.95 -7.65,2.309 -3.03,0.621 -6.05,0.98 -9.08,1.828" /><path
         id="path172"
         style="fill:#ffffff;fill-opacity:1;fill-rule:nonzero;stroke:none"
         d="m 3474,1292.09 c 3.03,0.84 6.06,1.21 9.08,1.83 2.82,0.55 6.84,0.68 10.09,-0.67 6.84,-2.38 11.89,-9.48 11.96,-17 -0.12,-4.94 2.31,-9.38 6.49,-12.19 2.16,-1.39 4.42,-2.17 7.49,-2.52 3.03,-0.63 6.05,-0.99 9.08,-1.84 -3.03,-0.85 -6.05,-1.22 -9.08,-1.84 -2.97,-0.56 -6.89,-0.48 -10.13,0.97 -6.77,2.57 -11.47,10.06 -11.35,17.29 0.04,4.68 -2.65,9.25 -6.9,11.83 -2.24,1.33 -4.43,1.96 -7.65,2.32 -3.02,0.61 -6.05,0.97 -9.08,1.82" /><path
         id="path174"
         style="fill:#ffffff;fill-opacity:1;fill-rule:nonzero;stroke:none"
         d="m 3890.97,888 c 3.02,0.852 6.05,1.211 9.08,1.84 2.81,0.551 6.83,0.68 10.09,-0.68 6.83,-2.371 11.88,-9.469 11.95,-16.988 -0.12,-4.942 2.32,-9.391 6.49,-12.203 2.16,-1.391 4.43,-2.16 7.49,-2.508 3.03,-0.629 6.06,-1 9.09,-1.852 -3.03,-0.847 -6.06,-1.211 -9.09,-1.839 -2.97,-0.551 -6.89,-0.469 -10.12,0.98 -6.78,2.57 -11.48,10.059 -11.36,17.289 0.05,4.672 -2.65,9.231 -6.9,11.832 -2.23,1.328 -4.43,1.949 -7.64,2.309 -3.03,0.621 -6.06,0.98 -9.08,1.82" /><path
         id="path176"
         style="fill:#ffffff;fill-opacity:1;fill-rule:nonzero;stroke:none"
         d="m 3725.45,1134.68 c 3.03,0.84 6.05,1.21 9.08,1.83 2.81,0.54 6.83,0.68 10.09,-0.68 6.83,-2.37 11.88,-9.47 11.95,-16.99 -0.12,-4.94 2.32,-9.38 6.5,-12.2 2.15,-1.38 4.41,-2.16 7.49,-2.51 3.02,-0.63 6.05,-0.99 9.08,-1.84 -3.03,-0.85 -6.06,-1.22 -9.08,-1.85 -2.97,-0.55 -6.9,-0.47 -10.13,0.98 -6.78,2.57 -11.48,10.06 -11.36,17.29 0.05,4.68 -2.65,9.24 -6.89,11.83 -2.24,1.33 -4.45,1.95 -7.65,2.32 -3.03,0.61 -6.05,0.97 -9.08,1.82" /><path
         id="path178"
         style="fill:#ffffff;fill-opacity:1;fill-rule:nonzero;stroke:none"
         d="m 4077.27,775.18 c 3.03,0.84 6.06,1.211 9.09,1.832 2.81,0.539 6.83,0.679 10.08,-0.684 6.84,-2.367 11.89,-9.469 11.96,-16.988 -0.12,-4.942 2.32,-9.379 6.49,-12.199 2.16,-1.379 4.43,-2.172 7.49,-2.52 3.03,-0.621 6.06,-0.98 9.08,-1.832 -3.02,-0.848 -6.05,-1.219 -9.08,-1.84 -2.97,-0.558 -6.89,-0.488 -10.13,0.969 -6.77,2.57 -11.47,10.062 -11.35,17.293 0.05,4.68 -2.65,9.238 -6.9,11.828 -2.23,1.332 -4.43,1.949 -7.64,2.313 -3.03,0.617 -6.06,0.98 -9.09,1.828" /><path
         id="path180"
         style="fill:#ffffff;fill-opacity:1;fill-rule:nonzero;stroke:none"
         d="m 3250.88,1652.34 c -1.55,-2.74 -3.42,-5.14 -5.13,-7.72 -1.6,-2.37 -4.34,-5.31 -7.61,-6.66 -6.51,-3.15 -15.1,-1.7 -20.47,3.57 -3.4,3.57 -8.28,5 -13.21,4.03 -2.52,-0.55 -4.66,-1.59 -7.08,-3.51 -2.58,-1.7 -4.98,-3.58 -7.72,-5.12 1.54,2.74 3.42,5.13 5.12,7.72 1.7,2.49 4.54,5.22 7.85,6.48 6.61,2.97 15.22,0.99 20.25,-4.2 3.28,-3.35 8.41,-4.67 13.24,-3.5 2.52,0.65 4.52,1.76 7.04,3.78 2.58,1.7 4.98,3.59 7.72,5.13" /><path
         id="path182"
         style="fill:#ffffff;fill-opacity:1;fill-rule:nonzero;stroke:none"
         d="m 3129.79,1854.83 c -1.54,-2.74 -3.42,-5.14 -5.12,-7.72 -1.61,-2.37 -4.35,-5.31 -7.61,-6.65 -6.51,-3.15 -15.11,-1.71 -20.47,3.56 -3.42,3.57 -8.28,5 -13.22,4.04 -2.51,-0.55 -4.66,-1.6 -7.07,-3.51 -2.59,-1.7 -4.99,-3.59 -7.73,-5.13 1.54,2.74 3.42,5.14 5.12,7.72 1.71,2.5 4.53,5.22 7.85,6.48 6.6,2.97 15.23,0.99 20.26,-4.2 3.27,-3.34 8.39,-4.67 13.24,-3.49 2.52,0.64 4.52,1.75 7.04,3.77 2.58,1.7 4.98,3.59 7.71,5.13" /><path
         id="path184"
         style="fill:#ffffff;fill-opacity:1;fill-rule:nonzero;stroke:none"
         d="m 3740.83,1299.8 c -1.54,-2.75 -3.43,-5.14 -5.13,-7.72 -1.6,-2.38 -4.34,-5.32 -7.61,-6.66 -6.51,-3.15 -15.1,-1.7 -20.46,3.57 -3.42,3.57 -8.29,5 -13.23,4.03 -2.51,-0.55 -4.66,-1.59 -7.07,-3.51 -2.59,-1.7 -4.98,-3.59 -7.72,-5.12 1.53,2.74 3.42,5.14 5.12,7.72 1.7,2.49 4.53,5.21 7.85,6.47 6.6,2.98 15.22,1 20.25,-4.2 3.27,-3.34 8.41,-4.66 13.24,-3.49 2.52,0.65 4.52,1.76 7.04,3.77 2.58,1.71 4.98,3.6 7.72,5.14" /><path
         id="path186"
         style="fill:#ffffff;fill-opacity:1;fill-rule:nonzero;stroke:none"
         d="m 3435.08,1956.18 c -1.55,-2.75 -3.43,-5.14 -5.14,-7.72 -1.6,-2.38 -4.34,-5.31 -7.6,-6.66 -6.51,-3.15 -15.1,-1.71 -20.47,3.57 -3.41,3.57 -8.28,5 -13.22,4.03 -2.51,-0.55 -4.66,-1.59 -7.08,-3.52 -2.58,-1.7 -4.98,-3.58 -7.71,-5.11 1.53,2.74 3.41,5.13 5.11,7.72 1.71,2.49 4.53,5.21 7.85,6.47 6.61,2.97 15.23,1 20.26,-4.2 3.27,-3.34 8.4,-4.66 13.24,-3.49 2.52,0.64 4.52,1.76 7.04,3.77 2.58,1.71 4.97,3.59 7.72,5.14" /><path
         id="path188"
         style="fill:#ffffff;fill-opacity:1;fill-rule:nonzero;stroke:none"
         d="m 3223.26,2105.73 c -1.54,-2.74 -3.43,-5.14 -5.13,-7.71 -1.6,-2.38 -4.34,-5.32 -7.6,-6.66 -6.52,-3.15 -15.11,-1.7 -20.47,3.57 -3.42,3.57 -8.28,4.99 -13.23,4.03 -2.51,-0.55 -4.65,-1.6 -7.07,-3.52 -2.58,-1.7 -4.98,-3.58 -7.72,-5.12 1.53,2.75 3.42,5.14 5.12,7.73 1.71,2.49 4.53,5.21 7.85,6.47 6.6,2.97 15.22,1 20.25,-4.2 3.27,-3.34 8.41,-4.67 13.24,-3.49 2.52,0.64 4.53,1.75 7.05,3.77 2.57,1.7 4.98,3.59 7.71,5.13" /><path
         id="path190"
         style="fill:#ffffff;fill-opacity:1;fill-rule:nonzero;stroke:none"
         d="m 3423.17,1765.72 c 0.84,-3.03 1.21,-6.06 1.83,-9.09 0.55,-2.82 0.68,-6.83 -0.68,-10.08 -2.37,-6.84 -9.47,-11.89 -16.99,-11.96 -4.94,0.11 -9.38,-2.32 -12.19,-6.49 -1.39,-2.17 -2.17,-4.42 -2.52,-7.49 -0.63,-3.03 -0.99,-6.06 -1.84,-9.08 -0.85,3.02 -1.22,6.05 -1.85,9.08 -0.55,2.97 -0.47,6.89 0.98,10.13 2.57,6.76 10.06,11.47 17.29,11.34 4.68,-0.03 9.24,2.65 11.83,6.91 1.33,2.23 1.96,4.43 2.32,7.64 0.61,3.03 0.97,6.06 1.82,9.09" /><path
         id="path192"
         style="fill:#ffffff;fill-opacity:1;fill-rule:nonzero;stroke:none"
         d="m 3351,1233.02 c 0.85,-3.03 1.22,-6.05 1.83,-9.08 0.55,-2.81 0.69,-6.83 -0.66,-10.08 -2.38,-6.83 -9.49,-11.88 -17,-11.95 -4.94,0.11 -9.39,-2.33 -12.2,-6.51 -1.39,-2.15 -2.17,-4.41 -2.52,-7.48 -0.62,-3.02 -0.99,-6.05 -1.84,-9.08 -0.85,3.03 -1.21,6.06 -1.83,9.08 -0.57,2.97 -0.49,6.89 0.96,10.13 2.57,6.77 10.06,11.48 17.3,11.35 4.68,-0.05 9.24,2.65 11.82,6.89 1.33,2.24 1.97,4.45 2.32,7.65 0.61,3.03 0.98,6.05 1.82,9.08" /><path
         id="path194"
         style="fill:#ffffff;fill-opacity:1;fill-rule:nonzero;stroke:none"
         d="m 4050.59,986.27 c 0.85,-3.02 1.22,-6.051 1.83,-9.079 0.55,-2.812 0.69,-6.832 -0.66,-10.089 -2.38,-6.832 -9.49,-11.883 -17,-11.954 -4.94,0.122 -9.39,-2.32 -12.2,-6.488 -1.39,-2.16 -2.17,-4.43 -2.52,-7.488 -0.62,-3.031 -0.99,-6.063 -1.84,-9.09 -0.85,3.027 -1.21,6.059 -1.83,9.09 -0.57,2.969 -0.49,6.887 0.96,10.117 2.57,6.781 10.06,11.481 17.3,11.359 4.68,-0.046 9.24,2.653 11.82,6.903 1.33,2.23 1.97,4.429 2.32,7.64 0.61,3.028 0.98,6.059 1.82,9.079" /><path
         id="path196"
         style="fill:#ffffff;fill-opacity:1;fill-rule:nonzero;stroke:none"
         d="m 3726.41,1691.95 c 0.85,-3.03 1.22,-6.06 1.83,-9.08 0.55,-2.82 0.68,-6.83 -0.67,-10.08 -2.38,-6.85 -9.48,-11.9 -17,-11.96 -4.94,0.11 -9.38,-2.32 -12.19,-6.5 -1.39,-2.16 -2.17,-4.41 -2.52,-7.48 -0.63,-3.03 -0.99,-6.05 -1.84,-9.08 -0.85,3.03 -1.22,6.05 -1.83,9.08 -0.57,2.97 -0.49,6.88 0.96,10.13 2.57,6.76 10.06,11.46 17.3,11.34 4.68,-0.04 9.24,2.65 11.82,6.9 1.33,2.24 1.96,4.44 2.32,7.65 0.61,3.02 0.98,6.05 1.82,9.08" /><path
         id="path198"
         style="fill:#ffffff;fill-opacity:1;fill-rule:nonzero;stroke:none"
         d="m 3726.41,836.66 c 0.84,-3.019 1.22,-6.051 1.83,-9.082 0.55,-2.808 0.68,-6.816 -0.67,-10.09 -2.38,-6.828 -9.48,-11.879 -17,-11.949 -4.94,0.121 -9.38,-2.309 -12.19,-6.488 -1.39,-2.16 -2.17,-4.422 -2.52,-7.481 -0.63,-3.039 -0.99,-6.07 -1.84,-9.101 -0.85,3.031 -1.22,6.062 -1.83,9.101 -0.57,2.969 -0.49,6.879 0.96,10.11 2.57,6.781 10.06,11.48 17.3,11.359 4.68,-0.051 9.24,2.652 11.82,6.902 1.33,2.231 1.96,4.438 2.32,7.637 0.61,3.031 0.98,6.063 1.82,9.082" /><path
         id="path200"
         style="fill:#ffffff;fill-opacity:1;fill-rule:nonzero;stroke:none"
         d="m 3890.97,1326.41 c 0.85,-3.03 1.21,-6.05 1.82,-9.08 0.55,-2.81 0.69,-6.83 -0.66,-10.08 -2.39,-6.85 -9.48,-11.89 -16.99,-11.95 -4.95,0.1 -9.4,-2.33 -12.21,-6.51 -1.39,-2.16 -2.17,-4.41 -2.52,-7.48 -0.63,-3.02 -0.99,-6.05 -1.84,-9.08 -0.85,3.03 -1.22,6.06 -1.83,9.08 -0.57,2.97 -0.49,6.89 0.96,10.13 2.57,6.77 10.06,11.46 17.3,11.35 4.68,-0.05 9.24,2.64 11.82,6.89 1.33,2.24 1.96,4.45 2.32,7.65 0.61,3.03 0.99,6.05 1.83,9.08" /><path
         id="path202"
         style="fill:#ffffff;fill-opacity:1;fill-rule:nonzero;stroke:none"
         d="m 3057.36,1213.97 c 0.84,-3.03 1.2,-6.06 1.83,-9.08 0.55,-2.82 0.68,-6.84 -0.68,-10.09 -2.37,-6.84 -9.47,-11.89 -16.99,-11.95 -4.94,0.1 -9.39,-2.33 -12.2,-6.5 -1.39,-2.17 -2.16,-4.42 -2.51,-7.49 -0.63,-3.03 -1,-6.05 -1.85,-9.08 -0.85,3.03 -1.21,6.05 -1.84,9.08 -0.55,2.97 -0.47,6.9 0.98,10.13 2.57,6.77 10.06,11.47 17.29,11.35 4.68,-0.04 9.23,2.64 11.83,6.9 1.33,2.24 1.95,4.43 2.31,7.65 0.62,3.02 0.98,6.05 1.83,9.08" /><path
         id="path204"
         style="fill:#ffffff;fill-opacity:1;fill-rule:nonzero;stroke:none"
         d="m 3073.55,1691.95 c 0.85,-3.03 1.21,-6.06 1.83,-9.08 0.55,-2.82 0.69,-6.83 -0.66,-10.08 -2.38,-6.85 -9.49,-11.9 -17,-11.96 -4.94,0.11 -9.39,-2.32 -12.2,-6.5 -1.39,-2.16 -2.17,-4.41 -2.52,-7.48 -0.63,-3.03 -0.99,-6.05 -1.84,-9.08 -0.85,3.03 -1.21,6.05 -1.84,9.08 -0.56,2.97 -0.48,6.88 0.97,10.13 2.57,6.76 10.06,11.46 17.3,11.34 4.67,-0.04 9.23,2.65 11.82,6.9 1.33,2.24 1.97,4.44 2.32,7.65 0.61,3.02 0.98,6.05 1.82,9.08" /><path
         id="path206"
         style="fill:#ffffff;fill-opacity:1;fill-rule:nonzero;stroke:none"
         d="m 3247.92,2002.65 c 0.84,-3.03 1.2,-6.05 1.82,-9.08 0.55,-2.81 0.69,-6.83 -0.67,-10.08 -2.37,-6.84 -9.47,-11.88 -16.99,-11.95 -4.94,0.1 -9.4,-2.33 -12.2,-6.51 -1.39,-2.15 -2.17,-4.41 -2.53,-7.48 -0.61,-3.02 -0.98,-6.05 -1.83,-9.08 -0.85,3.03 -1.21,6.06 -1.84,9.08 -0.56,2.97 -0.48,6.89 0.98,10.13 2.57,6.77 10.05,11.47 17.28,11.35 4.68,-0.05 9.24,2.64 11.84,6.89 1.33,2.24 1.95,4.45 2.3,7.65 0.63,3.03 0.99,6.05 1.84,9.08" /><path
         id="path208"
         style="fill:#ffffff;fill-opacity:1;fill-rule:nonzero;stroke:none"
         d="m 3201.1,1522.28 c 0.85,-3.03 1.21,-6.06 1.83,-9.08 0.56,-2.82 0.69,-6.83 -0.67,-10.08 -2.37,-6.85 -9.47,-11.9 -16.99,-11.96 -4.94,0.11 -9.39,-2.32 -12.2,-6.5 -1.39,-2.16 -2.17,-4.41 -2.52,-7.48 -0.62,-3.03 -0.99,-6.05 -1.84,-9.08 -0.85,3.03 -1.21,6.05 -1.84,9.08 -0.56,2.97 -0.48,6.89 0.98,10.13 2.57,6.77 10.05,11.46 17.29,11.35 4.67,-0.05 9.23,2.64 11.82,6.89 1.34,2.24 1.96,4.44 2.32,7.65 0.61,3.02 0.98,6.05 1.82,9.08" /><path
         id="path210"
         style="fill:#ffffff;fill-opacity:1;fill-rule:nonzero;stroke:none"
         d="m 3621.41,1457.71 c 0.84,-3.03 1.21,-6.06 1.82,-9.08 0.56,-2.82 0.69,-6.83 -0.66,-10.09 -2.38,-6.84 -9.48,-11.89 -17,-11.95 -4.94,0.11 -9.39,-2.32 -12.19,-6.5 -1.4,-2.16 -2.17,-4.41 -2.53,-7.48 -0.62,-3.04 -0.99,-6.06 -1.84,-9.09 -0.85,3.03 -1.21,6.05 -1.83,9.09 -0.56,2.97 -0.48,6.89 0.97,10.13 2.57,6.77 10.06,11.46 17.29,11.35 4.68,-0.05 9.24,2.64 11.83,6.89 1.33,2.24 1.96,4.44 2.31,7.65 0.61,3.02 0.99,6.05 1.83,9.08" /><path
         id="path212"
         style="fill:#ffffff;fill-opacity:1;fill-rule:nonzero;stroke:none"
         d="m 3232.95,918.301 c 0.85,-3.031 1.21,-6.063 1.82,-9.09 0.55,-2.813 0.7,-6.832 -0.66,-10.082 -2.38,-6.84 -9.48,-11.891 -16.99,-11.957 -4.94,0.109 -9.4,-2.32 -12.21,-6.492 -1.39,-2.168 -2.17,-4.43 -2.52,-7.489 -0.62,-3.031 -0.98,-6.062 -1.83,-9.082 -0.85,3.02 -1.22,6.051 -1.84,9.082 -0.57,2.969 -0.49,6.887 0.97,10.118 2.56,6.769 10.05,11.48 17.29,11.351 4.68,-0.039 9.24,2.649 11.83,6.91 1.33,2.231 1.96,4.43 2.31,7.641 0.62,3.027 0.99,6.059 1.83,9.09" /><path
         id="path214"
         style="fill:#ffffff;fill-opacity:1;fill-rule:nonzero;stroke:none"
         d="m 3549.38,1610.19 c 1.55,2.74 3.43,5.14 5.13,7.71 1.6,2.39 4.35,5.32 7.61,6.66 6.51,3.16 15.11,1.7 20.47,-3.56 3.41,-3.57 8.28,-5 13.22,-4.03 2.51,0.54 4.66,1.59 7.07,3.51 2.59,1.7 4.98,3.58 7.72,5.12 -1.53,-2.74 -3.41,-5.14 -5.11,-7.72 -1.71,-2.5 -4.53,-5.22 -7.85,-6.48 -6.61,-2.97 -15.23,-1 -20.26,4.2 -3.27,3.35 -8.41,4.67 -13.24,3.5 -2.52,-0.65 -4.52,-1.76 -7.04,-3.77 -2.58,-1.71 -4.98,-3.6 -7.72,-5.14" /><path
         id="path216"
         style="fill:#ffffff;fill-opacity:1;fill-rule:nonzero;stroke:none"
         d="m 3304.2,1388.11 c 1.54,2.74 3.43,5.14 5.12,7.71 1.61,2.39 4.35,5.33 7.61,6.66 6.52,3.16 15.11,1.71 20.47,-3.56 3.42,-3.57 8.28,-5 13.22,-4.03 2.51,0.54 4.66,1.59 7.07,3.51 2.59,1.7 4.98,3.59 7.73,5.12 -1.53,-2.73 -3.42,-5.14 -5.12,-7.72 -1.71,-2.5 -4.53,-5.21 -7.85,-6.47 -6.6,-2.97 -15.22,-1.01 -20.25,4.2 -3.28,3.34 -8.41,4.66 -13.25,3.49 -2.52,-0.65 -4.52,-1.76 -7.04,-3.77 -2.58,-1.71 -4.98,-3.59 -7.71,-5.14" /><path
         id="path218"
         style="fill:#ffffff;fill-opacity:1;fill-rule:nonzero;stroke:none"
         d="m 3138.09,1060.95 c 1.55,2.74 3.43,5.14 5.14,7.72 1.6,2.37 4.35,5.31 7.61,6.65 6.51,3.15 15.1,1.71 20.46,-3.57 3.42,-3.56 8.29,-5 13.22,-4.03 2.51,0.55 4.66,1.59 7.08,3.51 2.58,1.7 4.98,3.59 7.72,5.13 -1.54,-2.74 -3.42,-5.14 -5.12,-7.72 -1.7,-2.5 -4.53,-5.22 -7.85,-6.48 -6.61,-2.97 -15.22,-0.99 -20.25,4.2 -3.28,3.34 -8.41,4.66 -13.24,3.49 -2.53,-0.64 -4.52,-1.75 -7.05,-3.77 -2.58,-1.7 -4.97,-3.59 -7.72,-5.13" /><path
         id="path220"
         style="fill:#ffffff;fill-opacity:1;fill-rule:nonzero;stroke:none"
         d="m 3209.9,720.988 c 1.54,2.742 3.43,5.141 5.13,7.723 1.6,2.367 4.34,5.309 7.61,6.66 6.51,3.149 15.1,1.688 20.46,-3.57 3.41,-3.571 8.29,-5 13.22,-4.031 2.52,0.539 4.66,1.589 7.08,3.511 2.58,1.699 4.98,3.578 7.72,5.117 -1.54,-2.738 -3.43,-5.136 -5.13,-7.718 -1.69,-2.489 -4.53,-5.219 -7.84,-6.481 -6.61,-2.969 -15.22,-0.988 -20.25,4.199 -3.28,3.352 -8.41,4.672 -13.24,3.5 -2.52,-0.648 -4.52,-1.757 -7.04,-3.777 -2.58,-1.703 -4.98,-3.59 -7.72,-5.133" /><path
         id="path222"
         style="fill:#ffffff;fill-opacity:1;fill-rule:nonzero;stroke:none"
         d="m 3531.31,1094.58 c 1.54,2.74 3.43,5.14 5.13,7.72 1.61,2.37 4.34,5.31 7.6,6.65 6.52,3.16 15.11,1.71 20.47,-3.56 3.42,-3.57 8.28,-5 13.22,-4.04 2.51,0.55 4.66,1.59 7.08,3.52 2.58,1.7 4.98,3.58 7.72,5.12 -1.54,-2.74 -3.42,-5.14 -5.12,-7.72 -1.71,-2.5 -4.53,-5.22 -7.85,-6.47 -6.6,-2.97 -15.23,-1 -20.25,4.19 -3.28,3.34 -8.4,4.67 -13.25,3.49 -2.52,-0.63 -4.52,-1.75 -7.04,-3.77 -2.58,-1.7 -4.97,-3.58 -7.71,-5.13" /><path
         id="path224"
         style="fill:#ffffff;fill-opacity:1;fill-rule:nonzero;stroke:none"
         d="m 3752.54,959.18 c 1.54,2.738 3.43,5.14 5.13,7.718 1.61,2.372 4.35,5.313 7.6,6.653 6.53,3.148 15.11,1.711 20.47,-3.571 3.42,-3.57 8.28,-5 13.22,-4.031 2.51,0.551 4.66,1.59 7.08,3.52 2.58,1.703 4.98,3.582 7.73,5.113 -1.54,-2.73 -3.43,-5.133 -5.13,-7.711 -1.71,-2.5 -4.53,-5.223 -7.85,-6.48 -6.6,-2.961 -15.22,-0.993 -20.25,4.199 -3.28,3.34 -8.4,4.66 -13.25,3.492 -2.52,-0.633 -4.52,-1.762 -7.04,-3.773 -2.58,-1.707 -4.97,-3.579 -7.71,-5.129" /><path
         id="path226"
         style="fill:#ffffff;fill-opacity:1;fill-rule:nonzero;stroke:none"
         d="m 3380.41,856.398 c 1.54,2.743 3.43,5.141 5.13,7.723 1.6,2.367 4.34,5.309 7.6,6.66 6.52,3.149 15.11,1.688 20.47,-3.57 3.42,-3.57 8.28,-5 13.22,-4.031 2.51,0.539 4.66,1.59 7.08,3.5 2.58,1.711 4.98,3.59 7.72,5.129 -1.53,-2.739 -3.42,-5.149 -5.12,-7.719 -1.71,-2.488 -4.53,-5.219 -7.85,-6.481 -6.6,-2.968 -15.22,-0.988 -20.25,4.2 -3.27,3.351 -8.41,4.671 -13.25,3.5 -2.51,-0.649 -4.52,-1.758 -7.04,-3.778 -2.57,-1.703 -4.98,-3.59 -7.71,-5.133" /><path
         id="path228"
         style="fill:#ffffff;fill-opacity:1;fill-rule:nonzero;stroke:none"
         d="m 3860.35,720.988 c 1.55,2.742 3.43,5.141 5.14,7.723 1.6,2.367 4.34,5.309 7.6,6.66 6.52,3.149 15.11,1.688 20.47,-3.57 3.41,-3.571 8.28,-5 13.22,-4.031 2.52,0.539 4.65,1.589 7.08,3.5 2.57,1.71 4.98,3.589 7.72,5.128 -1.54,-2.738 -3.43,-5.136 -5.13,-7.718 -1.7,-2.489 -4.53,-5.219 -7.85,-6.481 -6.6,-2.969 -15.21,-0.988 -20.24,4.199 -3.28,3.352 -8.41,4.672 -13.24,3.5 -2.52,-0.648 -4.53,-1.757 -7.05,-3.777 -2.57,-1.703 -4.98,-3.59 -7.72,-5.133" /><path
         id="path230"
         style="fill:#ffffff;fill-opacity:1;fill-rule:nonzero;stroke:none"
         d="m 3914.54,1086.88 c 1.54,2.73 3.43,5.14 5.14,7.71 1.6,2.38 4.34,5.32 7.59,6.65 6.53,3.16 15.11,1.71 20.47,-3.56 3.42,-3.56 8.28,-4.99 13.23,-4.03 2.51,0.54 4.65,1.59 7.08,3.51 2.57,1.7 4.98,3.59 7.71,5.13 -1.53,-2.74 -3.42,-5.15 -5.12,-7.73 -1.7,-2.5 -4.53,-5.21 -7.85,-6.47 -6.6,-2.97 -15.22,-1.01 -20.25,4.2 -3.27,3.34 -8.4,4.66 -13.24,3.49 -2.52,-0.64 -4.53,-1.76 -7.05,-3.77 -2.57,-1.7 -4.97,-3.59 -7.71,-5.13" /><path
         id="path232"
         style="fill:#ffffff;fill-opacity:1;fill-rule:nonzero;stroke:none"
         d="m 3037.96,809.57 c 1.54,2.739 3.43,5.141 5.12,7.719 1.61,2.371 4.35,5.313 7.61,6.652 6.52,3.161 15.11,1.707 20.47,-3.55 3.42,-3.582 8.28,-5 13.22,-4.039 2.51,0.539 4.66,1.589 7.07,3.507 2.59,1.7 4.98,3.582 7.73,5.121 -1.53,-2.742 -3.42,-5.14 -5.12,-7.718 -1.71,-2.5 -4.53,-5.211 -7.85,-6.473 -6.6,-2.969 -15.22,-1 -20.25,4.191 -3.28,3.352 -8.41,4.668 -13.25,3.5 -2.52,-0.64 -4.52,-1.761 -7.04,-3.781 -2.58,-1.699 -4.98,-3.578 -7.71,-5.129" /><path
         id="path234"
         style="fill:#ffffff;fill-opacity:1;fill-rule:nonzero;stroke:none"
         d="m 3010.55,1380.4 c 1.55,2.75 3.42,5.14 5.13,7.72 1.6,2.38 4.35,5.32 7.6,6.66 6.52,3.15 15.11,1.71 20.47,-3.56 3.42,-3.58 8.28,-5 13.22,-4.04 2.51,0.55 4.66,1.59 7.08,3.52 2.58,1.7 4.98,3.58 7.73,5.11 -1.55,-2.73 -3.43,-5.13 -5.13,-7.71 -1.7,-2.5 -4.53,-5.22 -7.85,-6.47 -6.6,-2.97 -15.22,-1.01 -20.25,4.19 -3.28,3.34 -8.4,4.66 -13.24,3.49 -2.53,-0.64 -4.52,-1.76 -7.05,-3.77 -2.58,-1.71 -4.97,-3.59 -7.71,-5.14" /><path
         id="path236"
         style="fill:#f89b6a;fill-opacity:1;fill-rule:nonzero;stroke:none"
         d="m 3336.77,2142.1 c -3.71,-18.66 -88.12,-141.79 -172.89,-140.63 -27.61,0.43 -32.01,151.22 -32.01,151.22 l -2.88,11.06 -40.05,154.81 179.32,123.64 25.96,16.44 c 0,0 8.16,-43.08 17.79,-96.82 0.47,-2.49 0.93,-4.98 1.38,-7.66 0.62,-3.02 1.25,-5.87 1.7,-8.72 1.54,-8.01 3.08,-16.2 4.44,-24.38 1.06,-6.23 2.14,-12.28 3.01,-18.85 1.05,-6.58 1.93,-12.98 2.99,-19.56 8.95,-65.06 12.7,-132.62 11.24,-140.55" /><path
         id="path238"
         style="fill:#17282f;fill-opacity:1;fill-rule:nonzero;stroke:none"
         d="M 3312.01,2361.82 C 3271.44,2236.2 3173.96,2182.3 3128.99,2163.75 l -40.05,154.81 179.32,123.64 25.96,16.44 c 0,0 8.16,-43.08 17.79,-96.82" /><path
         id="path240"
         style="fill:#f89b6a;fill-opacity:1;fill-rule:nonzero;stroke:none"
         d="m 2869.19,2548.42 c -7.41,-280.55 159.78,-316.67 220.28,-318.21 54.92,-1.38 242.1,0.86 278.47,279.14 36.36,278.29 -91.75,370.42 -217.18,380.26 -125.45,9.82 -274.16,-60.63 -281.57,-341.19" /><path
         id="path242"
         style="fill:#17282f;fill-opacity:1;fill-rule:nonzero;stroke:none"
         d="m 2911.78,2633.34 c 6.54,1.05 12.4,3.11 18.77,4.82 7.18,1.93 13.1,2.73 18.21,8.57 2.73,3.13 2.24,9.23 -0.55,12.18 -6.51,6.86 -15.9,6.68 -24.64,4.71 -9.48,-2.13 -16.25,-6.21 -22.24,-13.84 -5.81,-7.4 1.8,-17.83 10.45,-16.44" /><path
         id="path244"
         style="fill:#17282f;fill-opacity:1;fill-rule:nonzero;stroke:none"
         d="m 3099.31,2592.34 c -6.62,0.48 -12.63,2.02 -19.13,3.18 -7.32,1.29 -13.29,1.57 -18.88,6.95 -3,2.88 -3.04,9 -0.51,12.17 5.88,7.41 15.24,8.05 24.12,6.85 9.64,-1.31 16.74,-4.78 23.37,-11.86 6.44,-6.87 -0.25,-17.92 -8.97,-17.29" /><path
         id="path246"
         style="fill:#17282f;fill-opacity:1;fill-rule:nonzero;stroke:none"
         d="m 2953.14,2542.02 -1.35,-1.79 c 1.88,-19.02 0.84,-41.13 -15.99,-48.61 l 0.23,-1.06 c 20.85,4.38 21.95,33.74 17.11,51.46" /><path
         id="path248"
         style="fill:#17282f;fill-opacity:1;fill-rule:nonzero;stroke:none"
         d="m 2934.78,2560.79 c -30.82,0.27 -29.1,-61.39 -0.54,-61.65 28.1,-0.24 26.37,61.42 0.54,61.65" /><path
         id="path250"
         style="fill:#17282f;fill-opacity:1;fill-rule:nonzero;stroke:none"
         d="m 2922.04,2556.37 c -4.79,-3.4 -9.43,-9.47 -15.24,-10.02 -6.74,-0.63 -11.92,5.9 -16.4,12.17 l -0.94,-0.69 c 0,-11.8 4.25,-23.96 15.64,-25.91 10.38,-1.78 17.68,8.55 20.16,20.37 0.46,2.19 -1.3,5.45 -3.22,4.08" /><path
         id="path252"
         style="fill:#17282f;fill-opacity:1;fill-rule:nonzero;stroke:none"
         d="m 3078.66,2378.73 c -4.75,-4.32 -9.54,-10.33 -16.51,-10.66 -6.68,-0.33 -14.39,2.96 -20.41,5.54 l -0.86,-0.95 c 4.7,-7.52 15,-12.5 23.93,-11.26 8.72,1.21 13.27,8.55 15.67,16.4 0.32,1.11 -1.13,1.56 -1.82,0.93" /><path
         id="path254"
         style="fill:#17282f;fill-opacity:1;fill-rule:nonzero;stroke:none"
         d="m 2983.09,2455.41 c 0,0 -2.28,-28.59 -1.51,-41.97 0.08,-1.26 37.97,4.16 77.96,-6.81 6,-1.65 5.65,3.3 -1.19,6.89 -13.66,7.18 -31.13,14.16 -65.94,12.22 -1.15,3.64 4.34,43.95 2.21,43.99 -7.37,0.21 -21.49,-5.6 -30,-8.63 3.04,59.7 15.61,118.43 17.74,177.92 0.04,2.12 -3.03,2.58 -3.54,0.66 -17.54,-60.62 -22.54,-129.25 -27.26,-190.82 -0.65,-7.67 26.31,3.97 31.53,6.55" /><path
         id="path256"
         style="fill:#17282f;fill-opacity:1;fill-rule:nonzero;stroke:none"
         d="m 3116.57,2541.02 c -5.44,2.39 -11.28,3.32 -17.22,4.05 -5.95,0.47 -12.05,0.13 -18.15,-1.19 -6.03,-1.55 -12.14,-3.94 -17.55,-7.87 -5.41,-3.96 -9.93,-9.33 -13.14,-15.36 l -5.81,-10.93 12.05,1.33 c 8.14,0.89 17.14,1.06 25.61,0.13 8.54,-1.07 16.97,-3.13 24.74,-8.78 -4.27,8.88 -13.24,15.18 -22.53,18.29 -9.45,3.17 -19.05,4.24 -29.23,3.36 l 6.23,-9.6 c 4.95,8.56 12.73,14.89 22.59,18.84 9.8,3.86 20.81,6.34 32.41,7.73" /><path
         id="path258"
         style="fill:#17282f;fill-opacity:1;fill-rule:nonzero;stroke:none"
         d="m 3081.85,2491.35 c -9.05,3.12 -17.78,4.62 -25.94,10.06 -1.87,1.24 -9.16,6.74 -8.73,8.31 0.65,4.26 2.74,9.06 4.76,13.45 -2.88,-3.98 -6.13,-7.68 -7.48,-13.08 0.66,-4.56 3.99,-9.29 9.35,-12.41 8.64,-5.04 19.71,-6.73 28.04,-6.33" /><path
         id="path260"
         style="fill:#17282f;fill-opacity:1;fill-rule:nonzero;stroke:none"
         d="m 3015.43,2415.38 c 0,0 17.41,-24.91 37.42,-28 23.02,-3.54 25.74,17.17 0.32,28.93 -13.32,6.16 -37.74,-0.93 -37.74,-0.93" /><path
         id="path262"
         style="fill:#f577b8;fill-opacity:1;fill-rule:nonzero;stroke:none"
         d="m 3052.78,2387.44 c -8.57,1.23 -16.63,6.48 -23.1,12.25 4.72,7.18 15.75,15.05 40.43,1.75 3.67,-8.92 -2.81,-16.27 -17.33,-14" /><path
         id="path264"
         style="fill:#17282f;fill-opacity:1;fill-rule:nonzero;stroke:none"
         d="m 3365.96,2502.66 c -46.22,-5.84 -61.58,90.89 -61.58,90.89 0,0 -94.24,-4.86 -131.91,129.16 0,0 5.1,-62.98 47.16,-110.04 0,0 -167.03,9.55 -243.77,145.22 0,0 31.36,-69.48 58.75,-93.4 0,0 -70.65,16.06 -107.38,71.01 0,0 -25.2,-81.68 -46.53,-104.95 0,0 -7.25,291.13 263.63,273.28 0,0 169.22,-3.01 236.27,-133.59 67.06,-130.57 -14.64,-267.58 -14.64,-267.58" /><path
         id="path266"
         style="fill:#f89b6a;fill-opacity:1;fill-rule:nonzero;stroke:none"
         d="m 3322.78,2488.98 c 0,0 55.87,91.13 96.87,71.71 40.98,-19.41 2.64,-148.93 -42.89,-169.08 -45.54,-20.14 -65.02,21.65 -65.02,21.65 l 11.04,75.72" /><path
         id="path268"
         style="fill:#17282f;fill-opacity:1;fill-rule:nonzero;stroke:none"
         d="m 3407.73,2523.84 0.33,-1.23 c -31.87,-15.2 -47.24,-46.52 -57.4,-78.65 8.99,12.67 21.82,20.09 38.7,9.51 0.89,-0.56 0.16,-1.94 -0.78,-1.8 -13.55,2.06 -23.06,-0.84 -31.45,-12.1 -5.95,-7.97 -9.74,-17.83 -13.8,-26.87 -1.35,-3.01 -6.72,-1.76 -5.81,1.67 l 0.22,0.77 c -3.33,41.59 25.53,101.82 69.99,108.7" /><path
         id="path270"
         style="fill:#ffffff;fill-opacity:1;fill-rule:nonzero;stroke:none"
         d="m 3350.13,2406.26 c 0.38,-7.21 6.54,-12.75 13.76,-12.36 7.2,0.38 12.74,6.53 12.36,13.75 -0.38,7.21 -6.54,12.75 -13.75,12.36 -7.22,-0.38 -12.76,-6.53 -12.37,-13.75" /><path
         id="path272"
         style="fill:#ffffff;fill-opacity:1;fill-rule:nonzero;stroke:none"
         d="m 3381.82,2427.97 c 0.24,-4.62 4.18,-8.17 8.8,-7.92 4.62,0.24 8.17,4.18 7.92,8.8 -0.24,4.62 -4.19,8.17 -8.8,7.92 -4.62,-0.24 -8.17,-4.18 -7.92,-8.8" /><path
         id="path274"
         style="fill:#e7e8e5;fill-opacity:1;fill-rule:nonzero;stroke:none"
         d="m 2576.06,1432.35 -145.19,-33.73 -104.44,449.61 145.2,33.73 104.43,-449.61" /><path
         id="path276"
         style="fill:#999b9b;fill-opacity:1;fill-rule:nonzero;stroke:none"
         d="m 2373.01,1977.09 c -267.58,-62.14 -535.01,104.47 -597.16,372.04 -62.17,267.68 104.44,535.11 372.02,597.26 267.68,62.17 535.01,-104.47 597.18,-372.14 62.15,-267.58 -104.37,-534.99 -372.04,-597.16 m -255.16,1098.56 c -338.98,-78.73 -550.01,-417.46 -471.26,-756.54 78.73,-338.98 417.46,-550.01 756.44,-471.27 339.07,78.75 550.02,417.46 471.28,756.43 -78.75,339.07 -417.39,550.13 -756.46,471.38" /><path
         id="path278"
         style="fill:#17282f;fill-opacity:1;fill-rule:nonzero;stroke:none"
         d="m 2674.3,901.16 -97.48,-22.64 c -33.72,-7.829 -67.4,13.14 -75.23,46.871 l -124.57,536.279 c -7.83,33.72 13.15,67.41 46.88,75.23 l 97.48,22.65 c 33.71,7.83 67.39,-13.16 75.22,-46.88 l 124.57,-536.291 c 7.82,-33.707 -13.15,-67.391 -46.87,-75.219" /><path
         id="path280"
         style="fill:#ffffff;fill-opacity:1;fill-rule:nonzero;stroke:none"
         d="m 2237.18,1964.62 c -19.28,0.9 -38.37,2.91 -57.19,6.01 -17.01,6.47 -34.12,15.58 -51.1,27.48 -3.12,4.01 -6.13,8.25 -9.14,12.59 -8.01,12.03 -15.72,24.87 -23.08,38.47 l 456.74,412.19 c -1.6,-63.08 -10.33,-123.33 -24.4,-178.53 -6.84,-26.82 -14.94,-52.42 -24.09,-76.59 L 2237.18,1964.62 M 2057.31,2139 c -20.01,57.21 -34.17,121.84 -39.95,190.76 l 484.66,437.44 c 7.12,-18.18 13.65,-37.18 19.49,-56.91 11.85,-40.07 20.87,-83.18 26.3,-128.64 L 2057.31,2139 m -41.53,213.4 c -0.86,15.3 -1.3,30.8 -1.3,46.45 0,6.19 0.06,12.35 0.2,18.47 l 458.26,413.56 c 7.73,-14.63 15.06,-30.02 21.91,-46.14 L 2015.78,2352.4" /><path
         id="path282"
         style="fill:#2d5bb2;fill-opacity:1;fill-rule:nonzero;stroke:none"
         d="m 2179.99,1970.63 h -0.02 c -32.37,12.31 -65.11,34.09 -96.75,66.4 l 13.45,12.14 c 7.36,-13.6 15.07,-26.44 23.08,-38.47 3.01,-4.34 6.02,-8.58 9.14,-12.59 16.98,-11.9 34.09,-21.01 51.1,-27.48 m -154.15,139.97 c -27.92,45.91 -51.62,102.09 -68.35,165.12 l 59.87,54.04 c 5.78,-68.92 19.94,-133.55 39.95,-190.76 l -31.47,-28.4 m 479.08,95.64 c 9.15,24.17 17.25,49.77 24.09,76.59 -6.84,-26.8 -14.93,-52.42 -24.08,-76.57 l -0.01,-0.02 m -552.36,89.11 c -4.3,18.14 -8.02,36.8 -11.11,55.89 l 73.23,66.08 c -0.14,-6.12 -0.2,-12.28 -0.2,-18.47 v 0 0 c 0,-15.65 0.44,-31.15 1.3,-46.45 l -63.22,-57.05 m -4.45,355.2 c 15.72,75.09 41.25,141.87 72.52,196.57 l 103.04,92.98 c -4.5,-1.27 -8.97,-2.6 -13.4,-3.99 12.3,3.88 24.83,7.32 37.6,10.28 37.85,8.79 75.72,13.01 112.98,13.01 44,0 87.19,-5.88 128.6,-17.04 0.03,-0.02 0.05,-0.04 0.08,-0.06 -32.46,8.74 -66.02,14.25 -100.2,16.24 l -341.22,-307.99 m 573.4,59.74 c -5.84,19.73 -12.37,38.73 -19.49,56.91 h 0.01 c 7.12,-18.18 13.64,-37.18 19.48,-56.91 m -26.66,74.45 c -6.85,16.12 -14.18,31.51 -21.91,46.14 l 0.01,0.01 c 7.73,-14.63 15.06,-30.03 21.91,-46.14 l -0.01,-0.01 m -421.31,134.12 c 2.03,2.21 4.06,4.36 6.1,6.48 2.64,1.03 5.31,2.04 7.97,3.03 -2.04,-0.76 -4.09,-1.54 -6.12,-2.33 l -7.95,-7.18" /><path
         id="path284"
         style="fill:#406fbf;fill-opacity:1;fill-rule:nonzero;stroke:none"
         d="m 2179.97,1970.63 c -192.94,31.71 -357.15,176.27 -404.12,378.5 9.2,-39.32 22.71,-76.56 40.16,-111.09 l 125.44,113.2 c 3.09,-19.09 6.81,-37.75 11.11,-55.89 l -111.85,-100.94 c 3.24,-5.07 6.59,-10.05 10.04,-15.03 l 106.74,96.34 c 16.73,-63.03 40.43,-119.21 68.35,-165.12 l -57.3,-51.71 c 26.45,-19.08 54.64,-35.65 84.29,-49.29 l 30.39,27.43 c 31.64,-32.31 64.38,-54.09 96.75,-66.4 m 324.96,235.63 c 9.15,24.15 17.24,49.77 24.08,76.57 v 0 c 14.07,55.2 22.8,115.45 24.4,178.53 l 177.97,160.6 c -10.61,31.49 -24.11,61.22 -40.31,88.98 l -143.26,-129.29 c -5.43,45.46 -14.45,88.57 -26.3,128.64 v 0 c -5.84,19.73 -12.36,38.73 -19.48,56.91 l 81.04,73.15 c -4.51,4.03 -9.22,7.78 -13.94,11.42 l -74.27,-67.02 c -6.85,16.11 -14.18,31.51 -21.91,46.14 l 55.42,50.01 c -42.69,27.31 -89.5,48.1 -138.84,61.4 -0.03,0.02 -0.05,0.04 -0.08,0.06 171.51,-46.2 312.6,-182.99 355.6,-368.11 6.54,-28.17 10.55,-56.33 12.17,-84.26 -28.3,-39.12 -60.96,-73.28 -93.22,-111.16 -20.8,-24.43 -39.43,-51 -55.65,-79.24 l -103.42,-93.33 m 167.61,151.25 c 18.93,23.55 38.86,46.27 58.87,69.75 9.67,11.36 18.51,23.04 26.64,35.01 0.01,-0.37 0.01,-0.73 0.01,-1.1 -0.01,-2.86 -0.03,-5.72 -0.08,-8.57 -11.45,-16.95 -23.91,-33.6 -36.9,-51.28 l -48.54,-43.81 m -908.86,75.69 c -0.57,9.72 -0.85,19.4 -0.84,29.05 0.04,202.99 125.11,388.6 316.8,463.09 -2.04,-2.12 -4.07,-4.27 -6.1,-6.48 l -256.41,-231.4 c -6.79,-13.26 -13,-26.87 -18.51,-40.7 l 222.01,200.36 c -31.27,-54.7 -56.8,-121.48 -72.52,-196.57 l -184.68,-166.7 c -0.78,-16.76 -0.71,-33.66 0.25,-50.65" /><path
         id="path286"
         style="fill:#57666b;fill-opacity:1;fill-rule:nonzero;stroke:none"
         d="m 2751.22,2379.38 c 3.02,17.98 5.05,36.2 6.06,54.61 l -36.2,-32.67 c 12.99,17.68 25.45,34.33 36.9,51.28 -0.44,-24.75 -2.72,-49.2 -6.76,-73.22" /><path
         id="path288"
         style="fill:#57666b;fill-opacity:1;fill-rule:nonzero;stroke:none"
         d="m 2608.35,2299.59 c 16.22,28.24 34.85,54.81 55.65,79.24 32.26,37.88 64.92,72.04 93.22,111.16 0.54,-9.26 0.82,-18.52 0.83,-27.72 -8.13,-11.97 -16.97,-23.65 -26.64,-35.01 -20.01,-23.48 -39.94,-46.2 -58.87,-69.75 l -64.19,-57.92" /><path
         id="path290"
         style="fill:#b7b9b7;fill-opacity:1;fill-rule:nonzero;stroke:none"
         d="m 2237.18,1964.62 c -216.98,10.07 -409.78,162.55 -461.33,384.51 v 0 c 46.97,-202.23 211.18,-346.79 404.12,-378.5 h 0.02 v 0 c 18.82,-3.1 37.91,-5.11 57.19,-6.01 v 0 m 514.04,414.76 v 0 c 4.04,24.02 6.32,48.47 6.76,73.22 0.05,2.85 0.07,5.71 0.08,8.57 -0.01,-27.67 -2.34,-55 -6.84,-81.79 m -987.54,53.82 c -0.57,9.72 -0.85,19.4 -0.84,29.05 -0.01,-9.65 0.27,-19.33 0.84,-29.05 v 0" /><path
         id="path292"
         style="fill:#f9f8f8;fill-opacity:1;fill-rule:nonzero;stroke:none"
         d="m 2260.07,1964.09 c -7.65,0 -15.29,0.18 -22.89,0.53 l 267.74,241.62 c -15.99,-42.21 -35.2,-80 -56.5,-111.98 -48.94,-72.51 -103.03,-113.9 -156.32,-129.13 -10.71,-0.7 -21.4,-1.04 -32.03,-1.04" /><path
         id="path294"
         style="fill:#2d5bb2;fill-opacity:1;fill-rule:nonzero;stroke:none"
         d="m 2292.1,1965.13 c 53.29,15.23 107.38,56.62 156.32,129.13 21.3,31.98 40.51,69.77 56.5,111.98 l 0.01,0.02 c -15.98,-42.23 -35.18,-80.01 -56.49,-111.98 -48.91,-72.51 -103,-113.9 -156.29,-129.15 -0.02,0 -0.03,0 -0.05,0" /><path
         id="path296"
         style="fill:#7da6dd;fill-opacity:1;fill-rule:nonzero;stroke:none"
         d="m 2292.15,1965.13 c 53.29,15.25 107.38,56.64 156.29,129.15 21.31,31.97 40.51,69.75 56.49,111.98 l 103.42,93.33 c -43.32,-75.47 -69.39,-162.85 -73.53,-253.06 -48.04,-31.76 -102.43,-55.64 -161.81,-69.44 -27.03,-6.27 -54.05,-10.22 -80.86,-11.96 m 249.63,86.09 c 10.36,70.38 29.23,136.91 60.77,200.17 19.79,39.72 43.94,73.71 69.99,106.12 l 48.54,43.81 c -49.78,-67.79 -107.19,-150.71 -143.81,-323.34 -11.39,-9.42 -23.21,-18.34 -35.49,-26.76" /><path
         id="path298"
         style="fill:#506066;fill-opacity:1;fill-rule:nonzero;stroke:none"
         d="m 2577.27,2077.98 c 36.62,172.63 94.03,255.55 143.81,323.34 l 36.2,32.67 c -1.01,-18.41 -3.04,-36.63 -6.06,-54.61 -19.88,-118.16 -82.09,-225.43 -173.95,-301.4" /><path
         id="path300"
         style="fill:#506066;fill-opacity:1;fill-rule:nonzero;stroke:none"
         d="m 2534.82,2046.53 c 4.14,90.21 30.21,177.59 73.53,253.06 l 64.19,57.92 c -26.05,-32.41 -50.2,-66.4 -69.99,-106.12 -31.54,-63.26 -50.41,-129.79 -60.77,-200.17 -2.29,-1.58 -4.64,-3.15 -6.96,-4.69" /><path
         id="path302"
         style="fill:#b0b2b0;fill-opacity:1;fill-rule:nonzero;stroke:none"
         d="m 2260.1,1964.07 c -7.67,0 -15.32,0.18 -22.94,0.53 l 0.02,0.02 c 7.6,-0.35 15.24,-0.53 22.89,-0.53 10.63,0 21.32,0.34 32.03,1.04 v 0 c 0.02,0 0.03,0 0.05,0 26.81,1.74 53.83,5.69 80.86,11.96 59.38,13.8 113.77,37.68 161.81,69.44 2.32,1.54 4.67,3.11 6.96,4.69 12.28,8.42 24.1,17.34 35.49,26.76 91.86,75.97 154.07,183.24 173.95,301.4 v 0 c -32.26,-192.15 -176.51,-355.52 -378.24,-402.31 -37.83,-8.77 -75.62,-13 -112.88,-13" /><path
         id="path304"
         style="fill:#f9f8f8;fill-opacity:1;fill-rule:nonzero;stroke:none"
         d="m 2014.68,2417.32 c 3.26,150.17 46.09,281.24 105.07,371.8 64.33,90.01 136.95,133.88 203.63,133.88 1.58,0 3.15,-0.03 4.71,-0.07 1.56,0.04 3.12,0.07 4.67,0.07 34.64,0 70.33,-11.86 105.4,-36.06 3.46,-4.68 6.91,-9.36 10.26,-14.26 8.53,-13.11 16.73,-27.07 24.52,-41.8 l -458.26,-413.56" /><path
         id="path306"
         style="fill:#2d5bb2;fill-opacity:1;fill-rule:nonzero;stroke:none"
         d="m 1941.45,2351.24 c -6.78,41.88 -10.49,85.85 -10.49,131.14 0,59.27 6.18,115.74 17.15,168.17 l 341.22,307.99 c 34.18,-1.99 67.74,-7.5 100.2,-16.24 20.18,-18.95 39.93,-42.13 58.91,-69.6 8.53,-13.11 16.73,-27.07 24.51,-41.81 l -0.01,-0.01 c -7.79,14.73 -15.99,28.69 -24.52,41.8 -3.35,4.9 -6.8,9.58 -10.26,14.26 -35.07,24.2 -70.76,36.06 -105.4,36.06 -1.55,0 -3.11,-0.03 -4.67,-0.07 -1.56,0.04 -3.13,0.07 -4.71,0.07 -66.68,0 -139.3,-43.87 -203.63,-133.88 -58.98,-90.56 -101.81,-221.63 -105.07,-371.8 l -73.23,-66.08" /><path
         id="path308"
         style="fill:#7da6dd;fill-opacity:1;fill-rule:nonzero;stroke:none"
         d="m 1816.01,2238.04 c -17.45,34.53 -30.96,71.77 -40.16,111.09 v 0 c -6.53,28.11 -10.54,56.22 -12.17,84.07 -0.96,16.99 -1.03,33.89 -0.25,50.65 l 184.68,166.7 c -10.97,-52.43 -17.15,-108.9 -17.15,-168.17 0,-45.29 3.71,-89.26 10.49,-131.14 l -125.44,-113.2 m 656.94,592.85 c -7.78,14.74 -15.98,28.7 -24.51,41.81 -18.98,27.47 -38.73,50.65 -58.91,69.6 49.34,-13.3 96.15,-34.09 138.84,-61.4 l -55.42,-50.01" /><path
         id="path310"
         style="fill:#b0b2b0;fill-opacity:1;fill-rule:nonzero;stroke:none"
         d="m 1775.85,2349.13 v 0 0 c -6.59,28.09 -10.58,56.2 -12.17,84.07 v 0 c 1.63,-27.85 5.64,-55.96 12.17,-84.07 v 0" /><path
         id="path312"
         style="fill:#f9f8f8;fill-opacity:1;fill-rule:nonzero;stroke:none"
         d="m 2096.67,2049.17 c -14.7,27.15 -27.97,57.29 -39.36,89.83 l 490.5,442.65 c 3.83,-32 5.87,-65.17 5.87,-99.27 0,-7.04 -0.09,-14.04 -0.27,-21.02 l -456.74,-412.19" /><path
         id="path314"
         style="fill:#2d5bb2;fill-opacity:1;fill-rule:nonzero;stroke:none"
         d="m 2083.22,2037.03 c -16.01,16.34 -31.73,35.38 -46.99,57.25 -3.52,5.28 -6.98,10.73 -10.39,16.32 l 31.47,28.4 c 11.39,-32.54 24.66,-62.68 39.36,-89.83 l -13.45,-12.14" /><path
         id="path316"
         style="fill:#7da6dd;fill-opacity:1;fill-rule:nonzero;stroke:none"
         d="m 2052.83,2009.6 c -29.65,13.64 -57.84,30.21 -84.29,49.29 l 57.3,51.71 c 3.41,-5.59 6.87,-11.04 10.39,-16.32 15.26,-21.87 30.98,-40.91 46.99,-57.25 l -30.39,-27.43 m 500.58,451.76 c 0.18,6.98 0.27,13.98 0.27,21.02 0,34.1 -2.04,67.27 -5.87,99.27 l 143.26,129.29 c 16.2,-27.76 29.7,-57.49 40.31,-88.98 l -177.97,-160.6" /><path
         id="path318"
         style="fill:#f9f8f8;fill-opacity:1;fill-rule:nonzero;stroke:none"
         d="m 2017.36,2329.76 c -0.62,7.5 -1.15,15.05 -1.58,22.64 l 479.07,432.34 c 2.45,-5.76 4.84,-11.61 7.17,-17.54 l -484.66,-437.44" /><path
         id="path320"
         style="fill:#2d5bb2;fill-opacity:1;fill-rule:nonzero;stroke:none"
         d="m 1957.49,2275.72 c -1.71,6.47 -3.36,13.02 -4.93,19.63 l 63.22,57.05 c 0.43,-7.59 0.96,-15.14 1.58,-22.64 l -59.87,-54.04 m 544.53,491.48 c -2.33,5.93 -4.72,11.78 -7.17,17.54 l 0.01,0.01 c 2.45,-5.76 4.84,-11.61 7.17,-17.55 h -0.01" /><path
         id="path322"
         style="fill:#7da6dd;fill-opacity:1;fill-rule:nonzero;stroke:none"
         d="m 1850.75,2179.38 c -3.45,4.98 -6.8,9.96 -10.04,15.03 l 111.85,100.94 c 1.57,-6.61 3.22,-13.16 4.93,-19.63 l -106.74,-96.34 m 651.28,587.82 c -2.33,5.94 -4.72,11.79 -7.17,17.55 l 74.27,67.02 c 4.72,-3.64 9.43,-7.39 13.94,-11.42 l -81.04,-73.15" /><path
         id="path324"
         style="fill:#b0b2b0;fill-opacity:1;fill-rule:nonzero;stroke:none"
         d="m 2087.61,2928.37 c 7.45,2.76 15,5.34 22.66,7.74 -7.64,-2.41 -15.2,-4.99 -22.66,-7.74" /><path
         id="path326"
         style="fill:#2d5bb2;fill-opacity:1;fill-rule:nonzero;stroke:none"
         d="m 2020.63,2847.12 c 5.06,8.84 10.27,17.38 15.6,25.58 12.17,17.03 24.64,32.42 37.31,46.16 l 7.95,7.18 c 2.03,0.79 4.08,1.57 6.12,2.33 v 0 c 7.46,2.75 15.02,5.33 22.66,7.74 v 0 c 4.43,1.39 8.9,2.72 13.4,3.99 l -103.04,-92.98" /><path
         id="path328"
         style="fill:#7da6dd;fill-opacity:1;fill-rule:nonzero;stroke:none"
         d="m 1798.62,2646.76 c 5.51,13.83 11.72,27.44 18.51,40.7 l 256.41,231.4 c -12.67,-13.74 -25.14,-29.13 -37.31,-46.16 -5.33,-8.2 -10.54,-16.74 -15.6,-25.58 l -222.01,-200.36" /><path
         id="path330"
         style="fill:#ffffff;fill-opacity:1;fill-rule:nonzero;stroke:none"
         d="m 1907.2,2375.59 -0.38,2.06 c -1.74,9.58 1.28,-9.52 0.44,-3.06 -1,7.72 -1.99,15.42 -2.65,23.18 -2.3,27.12 -2.21,54.47 0.01,81.58 0.32,3.83 0.77,7.64 1.07,11.46 0.1,1.27 -1.12,-9.03 -0.06,-0.84 0.3,2.33 0.59,4.67 0.92,6.99 1.24,8.99 2.73,17.94 4.47,26.83 3.85,19.62 8.93,38.99 15.32,57.93 1.52,4.53 3.2,9.01 4.8,13.51 2.16,6.08 -2.8,-6.75 0.51,1.25 1.09,2.66 2.17,5.32 3.3,7.96 4.29,10.06 8.98,19.95 14.05,29.64 5.48,10.49 11.42,20.73 17.79,30.7 2.92,4.57 5.95,9.06 9.02,13.52 5.32,7.74 -2.46,-3.06 1.65,2.3 1.98,2.59 3.92,5.21 5.93,7.78 18.05,23.14 38.61,43.85 60.8,63.01 0.45,0.39 4.53,3.75 1.13,0.97 -3.46,-2.83 1.86,1.46 2.46,1.93 3.42,2.67 6.83,5.32 10.3,7.92 6.68,4.99 13.49,9.8 20.42,14.43 14.67,9.81 29.87,18.75 45.43,27.07 17.87,9.55 22.15,35.32 11.95,51.68 -11.31,18.16 -33.75,21.53 -51.68,11.95 -98.72,-52.75 -179.61,-135.93 -220.74,-240.81 -27.55,-70.22 -39.47,-146.54 -34.48,-221.88 1.11,-16.84 2.97,-33.88 6.33,-50.43 3.92,-19.28 28.66,-31.49 46.64,-25.26 20.62,7.15 29.45,25.99 25.25,46.63" /><path
         id="path332"
         style="fill:#ffffff;fill-opacity:1;fill-rule:nonzero;stroke:none"
         d="m 1940.79,2269.24 c 5.81,-19.52 -5.31,-40.05 -24.82,-45.85 -19.53,-5.81 -40.05,5.31 -45.86,24.83 -5.8,19.52 5.31,40.05 24.84,45.85 19.51,5.81 40.04,-5.31 45.84,-24.83" /><path
         id="path334"
         style="fill:#f89b6a;fill-opacity:1;fill-rule:nonzero;stroke:none"
         d="m 3531.8,1953.96 c 89.98,-325.44 133.2,-652.16 83.35,-820.65 -31.78,-107.39 -108.45,-179.841 -157.3,-203.99 -114.11,-56.429 -492.57,23.629 -739.21,73.19 -60.61,12.19 82.33,500.53 143.16,474.66 89.73,-38.16 365.54,-89.5 373.14,-92.08 16.28,-5.52 50.22,347.56 73.84,554.56 32.89,288.41 171.05,202.21 223.02,14.31" /><path
         id="path336"
         style="fill:#f89b6a;fill-opacity:1;fill-rule:nonzero;stroke:none"
         d="m 2244.73,1570.09 c -26.8,-43.66 7.99,-83.7 7.99,-83.7 0,0 -37.13,-17.16 -51.18,-53.86 -16.11,-42.02 42.73,-85.69 42.73,-85.69 0,0 -33.99,-25.16 -44.94,-65.41 -11.37,-41.78 41.72,-94.32 41.72,-94.32 0,0 -18.79,-40.82 -3.29,-82.4 26.48,-71.09 140,-94.34 212.01,-109.851 72.01,-15.519 290.8,7.941 332.94,8.181 l 103.53,461.32 c 0,0 -303.13,161.43 -390.38,167.65 -73.51,5.23 -221.05,-12.9 -251.13,-61.92" /><path
         id="path338"
         style="fill:#17282f;fill-opacity:1;fill-rule:nonzero;stroke:none"
         d="m 2257.57,1493.09 c 79.49,13.18 158.55,2.15 238.09,-4.38 1.77,-0.15 1.52,-2.91 -0.26,-2.75 -79.02,7.41 -158.51,-0.96 -237.67,3.3 -2.18,0.12 -2.3,3.48 -0.16,3.83" /><path
         id="path340"
         style="fill:#17282f;fill-opacity:1;fill-rule:nonzero;stroke:none"
         d="m 2247.1,1352.54 c 18.07,2.44 36.89,-1.09 54.82,-3.46 19.3,-2.56 38.54,-5.46 57.75,-8.66 38.44,-6.39 76.74,-13.66 114.81,-22.05 1.68,-0.37 1.53,-3.04 -0.25,-2.75 -38.33,6.31 -76.75,12.03 -115.32,16.72 -19.28,2.35 -38.61,4.52 -57.93,6.58 -17.98,1.9 -37.12,2.42 -54.35,8.31 -2.55,0.87 -2.26,4.94 0.47,5.31" /><path
         id="path342"
         style="fill:#17282f;fill-opacity:1;fill-rule:nonzero;stroke:none"
         d="m 2242.67,1186.9 c 15.62,2.75 33.81,-2.87 49.19,-5.75 17.46,-3.28 34.93,-6.47 52.42,-9.55 34.98,-6.17 69.96,-12.31 105.12,-17.25 1.76,-0.25 1.52,-3 -0.25,-2.75 -35.76,4.83 -71.58,9.19 -107.3,14.34 -17.53,2.53 -35.06,5.17 -52.57,7.89 -14.89,2.32 -33.76,3.52 -46.99,11.32 l 0.38,1.75" /><path
         id="path344"
         style="fill:#17282f;fill-opacity:1;fill-rule:nonzero;stroke:none"
         d="m 2343.52,1617.88 c -36.28,-4.67 -77.91,-12.64 -101.32,-43.53 -10.14,-13.36 -17.04,-29.85 -14.96,-46.91 1.98,-16.17 10.18,-30.12 22.44,-40.49 l -0.1,0.01 c -28.23,-8.64 -52.79,-36.39 -55.47,-65.99 -1.45,-16.01 4.27,-29.62 14.38,-41.72 4.92,-5.88 10.66,-11.13 16.11,-16.51 5.44,-5.37 11.63,-9.74 17.33,-14.69 -6.24,-4.55 -11.82,-10.41 -17.25,-15.79 -5.94,-5.87 -11.48,-12.12 -16.18,-19.03 -9.37,-13.8 -15.54,-29.69 -15.71,-46.51 -0.17,-16.83 7.42,-32.24 16.55,-45.93 8.59,-12.89 19.25,-26.15 33.28,-33.34 l 0.91,1.3 c -10.9,10.14 -19.88,21.04 -27.12,34.1 -7.72,13.91 -14.3,29.2 -13.62,45.42 0.64,15.32 7.03,29.79 14.97,42.66 4.22,6.82 8.86,13.37 13.77,19.72 4.06,5.25 14.81,15.98 13.8,16.62 -0.14,0.09 -11.9,12.54 -16.05,17.96 -4.26,5.55 -8.31,11.17 -12.09,17.06 -7.55,11.78 -12.21,24.62 -10,38.74 2.01,12.88 8.47,24.5 16.73,34.41 8.48,10.16 19.3,17.93 28.14,27.68 l 0.45,3.5 c -20.08,31.18 -17.47,60.8 3.96,83.86 10.7,11.53 23.78,20.14 37.65,27.37 15.74,8.2 33.01,12.52 49.77,18.08 1.03,0.35 0.79,2.1 -0.37,1.95" /><path
         id="path346"
         style="fill:#17282f;fill-opacity:1;fill-rule:nonzero;stroke:none"
         d="m 3006.56,946.07 c -21.31,6.508 -43.81,9.989 -65.57,14.762 -21.91,4.816 -43.87,9.277 -65.86,13.68 -22.41,4.476 -44.84,8.82 -67.29,13.047 -21.62,4.082 -43.26,8.921 -65.12,11.519 -21.29,2.522 -41.96,0.962 -63.17,-1.457 -21.12,-2.41 -42.33,-4.121 -63.57,-5.141 -42.8,-2.039 -85.88,-1.101 -128.55,2.809 -48.18,4.402 -96.31,13.161 -143.07,25.571 -0.98,0.27 -1.32,-1.21 -0.38,-1.51 81.16,-26.69 166.71,-40.78 252.22,-39.768 21.28,0.258 42.51,1.34 63.69,3.406 21.11,2.071 42.24,5.871 63.51,5.41 22.54,-0.476 44.77,-5.507 66.85,-9.636 22.06,-4.141 44.1,-8.332 66.21,-12.223 25,-4.398 49.97,-8.91 75.04,-12.84 24.73,-3.879 49.7,-9.437 74.66,-11.32 2.2,-0.168 2.33,3.101 0.4,3.691" /><path
         id="path348"
         style="fill:#17282f;fill-opacity:1;fill-rule:nonzero;stroke:none"
         d="m 3317.11,1364.89 c -31.99,10.95 -65.8,17.7 -98.65,25.62 -33.04,7.96 -66.17,15.55 -99.31,23.04 -63.19,14.27 -127.21,26.4 -189.63,43.83 -16.46,4.6 -32.78,9.68 -48.87,15.47 -8.08,2.9 -16.03,6.1 -23.93,9.47 -8.17,3.49 -16.98,6.29 -24.73,10.56 -0.93,0.51 -1.69,-0.89 -0.79,-1.44 6.39,-3.91 12.14,-8.62 18.63,-12.38 7.04,-4.08 14.41,-7.62 21.79,-11.03 13.5,-6.25 27.41,-11.62 41.5,-16.35 29.43,-9.87 59.74,-16.87 89.95,-23.81 66,-15.18 132.06,-30.14 198.28,-44.3 18.65,-4 37.3,-8.01 56,-11.74 19.47,-3.89 39.14,-8.26 58.87,-10.51 2.32,-0.26 3.17,2.79 0.89,3.57" /><path
         id="path350"
         style="fill:#273e47;fill-opacity:1;fill-rule:nonzero;stroke:none"
         d="m 3213.01,1485.95 457.14,-62.22 c 0,0 -83.57,475.54 -172.47,633.01 -87.73,155.44 -184.48,52.65 -221.47,-135.3 -41.02,-208.4 -63.2,-435.49 -63.2,-435.49" /><path
         id="path352"
         style="fill:#17282f;fill-opacity:1;fill-rule:nonzero;stroke:none"
         d="m 3636.13,1492.61 c -12.76,3.03 -25.85,4.93 -38.68,7.76 -12.47,2.73 -25.09,4.69 -37.7,6.67 -25.7,4.01 -51.48,7.56 -77.26,11.1 -50.79,6.96 -101.59,14.7 -152.56,20.27 -28.98,3.17 -57.84,7.56 -86.86,10.28 l -0.17,-1.55 c 50.49,-11.86 101.98,-20.57 153.15,-28.91 50.68,-8.26 101.57,-16.1 152.6,-21.67 14.3,-1.57 28.63,-3.38 43,-4.09 14.69,-0.72 29.52,-2.09 44.21,-2.32 1.41,-0.02 1.63,2.14 0.27,2.46" /><path
         id="path354"
         style="fill:#ffffff;fill-opacity:1;fill-rule:nonzero;stroke:none"
         d="m 3886.79,3217.84 c -17.54,-167.7 -167.8,-289.5 -335.5,-271.96 -67.78,7.09 -128.02,35.86 -174.68,78.82 l -152.76,-22.42 76.43,132.06 c -18.54,45.12 -26.36,95.34 -20.95,147.04 17.54,167.69 167.8,289.5 335.5,271.96 167.7,-17.55 289.49,-167.8 271.96,-335.5" /><path
         id="path356"
         style="fill:#17282f;fill-opacity:1;fill-rule:nonzero;stroke:none"
         d="m 3886.79,3217.84 c 9.27,92.02 -25.28,187.58 -92.72,250.8 -33.49,31.62 -74.01,55.58 -117.75,69.47 -43.81,13.71 -90.69,16.98 -135.81,10.19 -45.1,-6.93 -88.77,-23.72 -126.12,-49.82 -37.24,-26.16 -68.66,-60.37 -91.35,-99.65 -23.15,-39.2 -35.13,-84.12 -38.76,-129.2 -2.87,-45.25 4.53,-91.03 21.49,-133.03 l 1.1,-2.73 -1.45,-2.5 -76.89,-131.8 -5.46,8.06 152.91,21.41 2.1,0.3 1.51,-1.41 c 40.42,-37.94 91.57,-64.43 146.22,-75.32 13.64,-2.75 27.49,-4.48 41.42,-5.03 13.91,-1.47 27.84,-0.44 41.78,0.06 27.66,2.85 55.53,7.52 81.56,17.95 26.13,9.8 51.4,22.63 73.66,39.7 11.71,7.78 21.61,17.8 32.24,26.92 9.38,10.4 19.72,20.01 27.78,31.54 35.04,44 55.78,98.38 62.54,154.09 z m 0,0 c -6.38,-55.75 -26.76,-110.39 -61.63,-154.79 -8.01,-11.63 -18.33,-21.35 -27.68,-31.86 -10.62,-9.25 -20.51,-19.39 -32.23,-27.28 -22.33,-17.21 -47.43,-30.69 -73.66,-41.02 -26.1,-10.99 -54.19,-16.23 -82.21,-19.6 -14.12,-0.76 -28.27,-2.05 -42.42,-0.81 -14.18,0.33 -28.29,1.84 -42.25,4.4 -55.88,10.12 -108.8,36.27 -151.07,74.59 l 3.6,-1.11 -152.6,-23.43 -11.08,-1.71 5.61,9.77 75.99,132.32 -0.37,-5.22 c -37.01,87.16 -28.67,190.95 18.81,272.15 23.67,40.67 56.68,75.71 95.64,101.84 38.93,26.21 84.09,42.64 130.32,48.9 46.27,6.14 93.89,1.92 138.08,-12.76 44.13,-14.86 84.6,-39.85 117.75,-72.21 67.42,-64.09 101.32,-160.23 91.4,-252.17" /><path
         id="path358"
         style="fill:#406fbf;fill-opacity:1;fill-rule:nonzero;stroke:none"
         d="m 3446.44,3179.65 -7.09,243.05 h 48.62 l -7.09,-243.05 z m -12.65,-72.42 c 0,18.23 12.65,31.4 29.87,31.4 18.23,0 29.87,-13.17 29.87,-31.4 0,-17.72 -11.64,-31.39 -29.87,-31.39 -17.72,0 -29.87,13.67 -29.87,31.39" /><path
         id="path360"
         style="fill:#406fbf;fill-opacity:1;fill-rule:nonzero;stroke:none"
         d="m 3562.92,3179.65 -7.09,243.05 h 48.61 l -7.09,-243.05 z m -12.66,-72.42 c 0,18.23 12.66,31.4 29.88,31.4 18.23,0 29.88,-13.17 29.88,-31.4 0,-17.72 -11.65,-31.39 -29.88,-31.39 -17.73,0 -29.88,13.67 -29.88,31.39" /><path
         id="path362"
         style="fill:#406fbf;fill-opacity:1;fill-rule:nonzero;stroke:none"
         d="m 3679.39,3179.65 -7.09,243.05 h 48.62 l -7.09,-243.05 z m -12.65,-72.42 c 0,18.23 12.65,31.4 29.87,31.4 18.23,0 29.87,-13.17 29.87,-31.4 0,-17.72 -11.64,-31.39 -29.87,-31.39 -17.71,0 -29.87,13.67 -29.87,31.39" /></g></g></svg>
