<svg xmlns="http://www.w3.org/2000/svg" xmlns:xlink="http://www.w3.org/1999/xlink" width="24" height="24" viewBox="0 0 24 24">
    <defs>
        <filter id="p02e5vjtpb" width="126.7%" height="120.4%" x="-13.3%" y="-10.2%" filterUnits="objectBoundingBox">
            <feGaussianBlur in="SourceAlpha" result="shadowBlurInner1" stdDeviation="1.5"/>
            <feOffset dy="1" in="shadowBlurInner1" result="shadowOffsetInner1"/>
            <feComposite in="shadowOffsetInner1" in2="SourceAlpha" k2="-1" k3="1" operator="arithmetic" result="shadowInnerInner1"/>
            <feColorMatrix in="shadowInnerInner1" values="0 0 0 0 0 0 0 0 0 0 0 0 0 0 0 0 0 0 0.5 0"/>
        </filter>
        <path id="5t0ccmwtwa" d="M8.454.501l5.49 2.942C14.595 3.792 15 4.47 15 5.206v6.583c0 .737-.405 1.414-1.054 1.763l-5.484 2.942c-.59.316-1.297.317-1.887.002L1.058 13.55C.407 13.203 0 12.525 0 11.786v-6.63c0-.743.412-1.425 1.07-1.77L6.58.493C7.167.185 7.87.188 8.454.501z"/>
    </defs>
    <g fill="none" fill-rule="evenodd" transform="translate(5 3)">
        <use fill="#3D3C45" xlink:href="#5t0ccmwtwa"/>
        <use fill="#000" filter="url(#p02e5vjtpb)" xlink:href="#5t0ccmwtwa"/>
        <path id="check" opacity="0" stroke="#1D60FF" stroke-linecap="round" stroke-linejoin="round" d="M0.513 3.838L3.554 7.269 11.513 0.269" transform="translate(3 4)"/>
        <path id="check-outline" opacity="0" stroke="#1D60FF" stroke-linecap="round" d="M15 9v2.79c0 .736-.405 1.413-1.054 1.762l-5.484 2.942c-.59.316-1.297.317-1.887.002L1.058 13.55C.407 13.203 0 12.525 0 11.786v-6.63c0-.743.412-1.425 1.07-1.77L6.58.493C7.167.185 7.87.188 8.454.501l2.282 1.223"/>
        <path id="outline" opacity="1" stroke="#7F848C" stroke-linecap="round" stroke-width=".5" d="M8.454.501l5.49 2.942C14.595 3.792 15 4.47 15 5.206v6.583c0 .737-.405 1.414-1.054 1.763l-5.484 2.942c-.59.316-1.297.317-1.887.002L1.058 13.55C.407 13.203 0 12.525 0 11.786v-6.63c0-.743.412-1.425 1.07-1.77L6.58.493C7.167.185 7.87.188 8.454.501z"/>
    </g>
</svg>
