<?xml version="1.0" encoding="UTF-8" standalone="no"?>
<svg
   xmlns="http://www.w3.org/2000/svg"
   viewBox="0 0 566.30664 516.73334"
   height="516.73334"
   width="566.30664"
   xml:space="preserve"
   id="svg2"
   version="1.1"><defs
     id="defs6" /><g
     transform="matrix(1.3333333,0,0,-1.3333333,0,516.73333)"
     id="g10"><g
       transform="scale(0.1)"
       id="g12"><path
         id="path14"
         style="fill:#f8f8f9;fill-opacity:1;fill-rule:nonzero;stroke:none"
         d="m 2103.95,226.398 c 1070.82,0 1938.9,-50.679 1938.9,-113.199 C 4042.85,50.6797 3174.77,0 2103.95,0 1033.12,0 165.055,50.6797 165.055,113.199 c 0,62.52 868.065,113.199 1938.895,113.199" /><path
         id="path16"
         style="fill:#e9e9e8;fill-opacity:1;fill-rule:nonzero;stroke:none"
         d="M 56.9961,3836.57 C 26.8789,3836.51 2.50391,3812.08 2.50391,3781.96 v -2714.3 c 0,-30.11 24.37499,-54.54 54.49219,-54.6 H 1987.9 c 30.13,0.06 54.55,24.47 54.61,54.6 v 2714.3 c -0.06,30.13 -24.48,54.55 -54.61,54.61 H 56.9961 M 1987.9,1010.56 H 56.9961 c -31.4922,0.06 -56.99219375,25.61 -56.99219375,57.1 v 2714.3 C 0.277344,3813.26 25.6992,3838.51 56.9961,3838.56 H 1987.9 c 31.54,0 57.1,-25.56 57.1,-57.1 v -2713.8 c 0,-31.53 -25.56,-57.1 -57.1,-57.1" /><path
         id="path18"
         style="fill:#e9e9e8;fill-opacity:1;fill-rule:nonzero;stroke:none"
         d="m 2220,3836.57 c -30.13,-0.06 -54.55,-24.48 -54.61,-54.61 v -2714.3 c 0.06,-30.13 24.48,-54.54 54.61,-54.6 h 1931 c 30.13,0.06 54.54,24.47 54.6,54.6 v 2714.3 c -0.06,30.13 -24.47,54.55 -54.6,54.61 H 2220 M 4151,1010.56 H 2220 c -31.51,0.06 -57.05,25.59 -57.1,57.1 v 2714.3 c 0.33,31.32 25.78,56.55 57.1,56.6 h 1931 c 31.26,-0.11 56.63,-25.34 56.89,-56.6 v -2714.3 c 0,-31.45 -25.43,-56.99 -56.89,-57.1" /><path
         id="path20"
         style="fill:#f8f8f9;fill-opacity:1;fill-rule:nonzero;stroke:none"
         d="M 1681.44,2451.28 1667.75,1275.54 C 1619.38,884.449 926.031,573.93 926.031,573.93 c 0,0 -693.34,310.519 -741.711,701.61 l -14.511,1175.74 741.035,243.92 770.596,-243.92" /><path
         id="path22"
         style="fill:#e3e3e2;fill-opacity:1;fill-rule:nonzero;stroke:none"
         d="M 1584.8,2376.85 1572.86,1321.44 C 1530.68,980.359 925.98,709.551 925.98,709.551 c 0,0 -604.695,270.808 -646.875,611.889 l -12.656,1055.41 646.289,212.74 672.062,-212.74" /><path
         id="path24"
         style="fill:#ffffff;fill-opacity:1;fill-rule:nonzero;stroke:none"
         d="m 1523.51,1980.43 c -0.1,-8.28 6.54,-15.07 14.82,-15.17 8.29,-0.1 15.08,6.54 15.18,14.83 0.09,8.28 -6.55,15.07 -14.83,15.17 -8.28,0.09 -15.08,-6.55 -15.17,-14.83 m -3.81,-329.98 c -0.1,-8.28 6.54,-15.07 14.82,-15.17 8.29,-0.09 15.08,6.54 15.17,14.83 0.1,8.28 -6.54,15.07 -14.82,15.17 -8.28,0.09 -15.08,-6.54 -15.17,-14.83 m -6.61,-326.96 c -1.59,-8.13 3.71,-16.01 11.84,-17.6 8.13,-1.59 16.01,3.71 17.6,11.84 1.59,8.13 -3.71,16.01 -11.84,17.6 -8.13,1.59 -16.01,-3.71 -17.6,-11.84 m -170.7,-265.44 c -6.04,-5.67 -6.36,-15.16 -0.69,-21.21 5.66,-6.04 15.15,-6.35 21.2,-0.69 v 0 c 6.05,5.66 6.36,15.15 0.69,21.2 -5.66,6.05 -15.15,6.36 -21.2,0.69 v 0.01 M 1078.35,865.832 c -7.14,-4.203 -9.52,-13.391 -5.32,-20.531 4.2,-7.141 13.39,-9.52 20.53,-5.321 v 0 c 7.14,4.2 9.52,13.399 5.32,20.54 -4.2,7.14 -13.39,9.519 -20.53,5.312 M 799.887,849.16 c -7.207,4.09 -16.36,1.559 -20.446,-5.648 -4.086,-7.211 -1.55,-16.364 5.657,-20.453 7.207,-4.079 16.359,-1.547 20.445,5.66 4.086,7.203 1.551,16.359 -5.656,20.441 m -268.422,186.67 c -6.223,5.47 -15.699,4.87 -21.172,-1.35 -5.473,-6.22 -4.863,-15.7 1.355,-21.17 6.219,-5.47 15.7,-4.87 21.172,1.35 5.473,6.22 4.864,15.7 -1.355,21.17 M 344.039,1292.6 c -2.422,7.93 -10.809,12.39 -18.73,9.97 -7.922,-2.43 -12.383,-10.81 -9.961,-18.73 v 0 c 2.422,-7.93 10.804,-12.39 18.73,-9.97 7.922,2.43 12.383,10.81 9.961,18.73 M 329.871,1617 c -0.098,8.28 -6.898,14.91 -15.18,14.81 -8.285,-0.1 -14.918,-6.9 -14.816,-15.18 0.102,-8.29 6.898,-14.92 15.184,-14.82 8.281,0.11 14.914,6.9 14.812,15.19 m -4.039,329.97 c -0.102,8.29 -6.898,14.92 -15.184,14.82 -8.285,-0.1 -14.914,-6.9 -14.812,-15.19 0.102,-8.28 6.898,-14.91 15.18,-14.81 8.285,0.1 14.918,6.9 14.816,15.18 m -4.039,329.98 c -0.105,8.28 -6.902,14.91 -15.184,14.81 -8.285,-0.1 -14.918,-6.9 -14.816,-15.18 0.102,-8.28 6.898,-14.92 15.184,-14.82 8.281,0.11 14.914,6.9 14.816,15.19 M 592.73,2388.7 c 7.868,2.59 12.149,11.07 9.559,18.94 -2.59,7.87 -11.07,12.14 -18.937,9.55 -7.872,-2.59 -12.149,-11.06 -9.559,-18.93 2.59,-7.87 11.066,-12.15 18.937,-9.56 m 313.454,103.18 c 7.871,2.59 12.152,11.06 9.558,18.93 -2.59,7.87 -11.066,12.15 -18.937,9.56 -7.867,-2.59 -12.149,-11.07 -9.559,-18.94 2.594,-7.87 11.07,-12.14 18.938,-9.55 m 305.356,-92.67 c 7.9,-2.51 16.33,1.87 18.83,9.77 2.5,7.9 -1.87,16.33 -9.77,18.83 -7.9,2.5 -16.33,-1.88 -18.83,-9.78 -2.5,-7.9 1.88,-16.32 9.77,-18.82 m 314.62,-99.59 c 7.9,-2.5 16.33,1.87 18.83,9.77 2.5,7.9 -1.88,16.33 -9.78,18.83 -7.9,2.5 -16.32,-1.88 -18.83,-9.77 -2.5,-7.9 1.88,-16.33 9.78,-18.83 m 1.16,10.79 c -0.1,-8.28 6.54,-15.08 14.83,-15.17 8.28,-0.1 15.07,6.54 15.17,14.82 0.09,8.29 -6.54,15.08 -14.83,15.18 -8.28,0.09 -15.07,-6.55 -15.17,-14.83" /><path
         id="path26"
         style="fill:#f8f8f9;fill-opacity:1;fill-rule:nonzero;stroke:none"
         d="m 2673.38,507.578 h 1333.84 v 2340.41 H 2673.38 Z" /><path
         id="path28"
         style="fill:#e3e3e2;fill-opacity:1;fill-rule:nonzero;stroke:none"
         d="m 2771.91,507.578 h 1138.46 v 2248.42 H 2771.91 Z" /><path
         id="path30"
         style="fill:#ffffff;fill-opacity:1;fill-rule:nonzero;stroke:none"
         d="m 2803.74,497.57 c -1.99,0 -3.99,0.399 -5.8,1.2 -1.79,0.699 -3.39,1.789 -4.79,3.199 -1.5,1.402 -2.6,3.101 -3.3,4.902 -0.7,1.801 -1.11,3.688 -1.11,5.699 0,3.899 1.61,7.801 4.41,10.602 3.4,3.5 8.6,5 13.5,4.098 l 2.8,-0.801 2.6,-1.399 2.3,-1.898 1.8,-2.301 c 0.6,-0.801 0.99,-1.609 1.39,-2.601 0.4,-0.899 0.71,-1.801 0.91,-2.801 0.2,-0.899 0.29,-1.899 0.29,-2.899 0,-2.011 -0.4,-3.898 -1.2,-5.699 -0.69,-1.801 -1.79,-3.5 -3.19,-4.902 -2.9,-2.797 -6.6,-4.399 -10.61,-4.399" /><path
         id="path32"
         style="fill:#ffffff;fill-opacity:1;fill-rule:nonzero;stroke:none"
         d="m 2788.74,2354.37 c 0,8.3 6.7,15 15,15 8.31,0 15,-6.7 15,-15 0,-8.3 -6.69,-15 -15,-15 -8.3,0 -15,6.7 -15,15 z m 0,-368.3 c 0,8.2 6.7,15 15,15 8.31,0 15,-6.8 15,-15 0,-8.3 -6.69,-15 -15,-15 -8.3,0 -15,6.7 -15,15 z m 0,-368.4 c 0,8.29 6.7,15 15,15 8.31,0 15,-6.71 15,-15 0,-8.3 -6.69,-15 -15,-15 -8.3,0 -15,6.7 -15,15 z m 0,-368.41 c 0,8.31 6.7,15 15,15 8.31,0 15,-6.69 15,-15 0,-8.19 -6.69,-15 -15,-15 -8.3,0 -15,6.81 -15,15 z m 0,-368.299 c 0,8.301 6.7,15 15,15 8.31,0 15,-6.699 15,-15 0,-8.289 -6.69,-15 -15,-15 -8.3,0 -15,6.711 -15,15" /><path
         id="path34"
         style="fill:#ffffff;fill-opacity:1;fill-rule:nonzero;stroke:none"
         d="m 2803.74,2707.77 c -3.99,0 -7.9,1.6 -10.59,4.4 -0.7,0.7 -1.4,1.4 -1.91,2.3 -0.49,0.8 -0.99,1.6 -1.39,2.5 -0.4,1 -0.7,1.9 -0.8,2.9 -0.2,0.9 -0.31,1.9 -0.31,2.9 0,3.9 1.61,7.8 4.41,10.6 l 2.2,1.9 2.59,1.3 c 0.91,0.4 1.91,0.7 2.81,0.9 2,0.4 3.89,0.4 5.9,0 l 2.8,-0.9 2.6,-1.3 2.3,-1.9 c 2.79,-2.8 4.39,-6.7 4.39,-10.6 0,-1 -0.09,-2 -0.29,-2.9 -0.2,-1 -0.51,-1.9 -0.91,-2.9 -0.4,-0.9 -0.79,-1.7 -1.39,-2.5 -0.5,-0.9 -1.11,-1.6 -1.8,-2.3 -2.8,-2.8 -6.7,-4.4 -10.61,-4.4" /><path
         id="path36"
         style="fill:#ffffff;fill-opacity:1;fill-rule:nonzero;stroke:none"
         d="m 3145.75,2722.77 c 0,8.3 6.7,14.99 15,14.99 8.3,0 15,-6.69 15,-14.99 0,-8.3 -6.7,-15 -15,-15 -8.3,0 -15,6.7 -15,15 m 357,0 c 0,8.3 6.7,14.99 15,14.99 8.3,0 15,-6.69 15,-14.99 0,-8.3 -6.7,-15 -15,-15 -8.3,0 -15,6.7 -15,15" /><path
         id="path38"
         style="fill:#ffffff;fill-opacity:1;fill-rule:nonzero;stroke:none"
         d="m 3874.75,2707.77 c -1.01,0 -1.9,0.1 -2.9,0.3 -1.01,0.2 -1.9,0.5 -2.8,0.8 l -2.6,1.4 -2.3,1.9 c -2.8,2.8 -4.4,6.6 -4.4,10.6 0,3.9 1.6,7.8 4.4,10.6 l 2.3,1.8 2.6,1.4 c 0.9,0.4 1.79,0.7 2.8,0.9 1.89,0.4 3.9,0.4 5.9,0 0.9,-0.2 1.8,-0.5 2.8,-0.9 l 2.5,-1.4 2.3,-1.8 c 2.8,-2.8 4.4,-6.7 4.4,-10.6 0,-4 -1.6,-7.8 -4.4,-10.6 l -2.3,-1.9 -2.5,-1.4 c -1,-0.3 -1.9,-0.6 -2.8,-0.8 -1,-0.2 -2,-0.3 -3,-0.3" /><path
         id="path40"
         style="fill:#ffffff;fill-opacity:1;fill-rule:nonzero;stroke:none"
         d="m 3859.75,2354.37 c 0,8.3 6.7,15 15,15 8.3,0 15,-6.7 15,-15 0,-8.3 -6.7,-15 -15,-15 -8.3,0 -15,6.7 -15,15 z m 0,-368.3 c 0,8.3 6.7,15 15,15 8.3,0 15,-6.7 15,-15 0,-8.3 -6.7,-15 -15,-15 -8.3,0 -15,6.7 -15,15 z m 0,-368.4 c 0,8.29 6.7,15 15,15 8.3,0 15,-6.71 15,-15 0,-8.3 -6.7,-15 -15,-15 -8.3,0 -15,6.7 -15,15 z m 0,-368.41 c 0,8.31 6.7,15 15,15 8.3,0 15,-6.69 15,-15 0,-8.19 -6.7,-15 -15,-15 -8.3,0 -15,6.81 -15,15 z m 0,-368.299 c 0,8.301 6.7,15 15,15 8.3,0 15,-6.699 15,-15 0,-8.289 -6.7,-15 -15,-15 -8.3,0 -15,6.711 -15,15" /><path
         id="path42"
         style="fill:#ffffff;fill-opacity:1;fill-rule:nonzero;stroke:none"
         d="m 3874.75,497.57 c -4,0 -7.8,1.602 -10.6,4.399 -2.8,2.801 -4.4,6.601 -4.4,10.601 0,4 1.6,7.801 4.4,10.602 l 2.3,1.898 2.6,1.399 c 0.9,0.293 1.79,0.601 2.8,0.801 1.89,0.402 3.9,0.402 5.9,0 0.9,-0.2 1.89,-0.508 2.8,-0.801 l 2.5,-1.399 2.3,-1.898 c 2.8,-2.801 4.4,-6.602 4.4,-10.602 0,-4 -1.5,-7.8 -4.4,-10.601 -2.81,-2.797 -6.61,-4.399 -10.6,-4.399" /><path
         id="path44"
         style="fill:#e3e3e2;fill-opacity:1;fill-rule:nonzero;stroke:none"
         d="m 141.852,503.77 h 412.097 v -2.5 H 141.852 v 2.5" /><path
         id="path46"
         style="fill:#e3e3e2;fill-opacity:1;fill-rule:nonzero;stroke:none"
         d="m 980.648,523.77 h 413.302 v -2.5 H 980.648 v 2.5" /><path
         id="path48"
         style="fill:#e3e3e2;fill-opacity:1;fill-rule:nonzero;stroke:none"
         d="m 1831.75,523.77 h 100 v -2.5 h -100 v 2.5" /><path
         id="path50"
         style="fill:#e3e3e2;fill-opacity:1;fill-rule:nonzero;stroke:none"
         d="m 469.75,438.371 h 462.5 v -2.5 h -462.5 v 2.5" /><path
         id="path52"
         style="fill:#e3e3e2;fill-opacity:1;fill-rule:nonzero;stroke:none"
         d="m 2315.95,505.07 h 216 v -2.5 h -216 v 2.5" /><path
         id="path54"
         style="fill:#e3e3e2;fill-opacity:1;fill-rule:nonzero;stroke:none"
         d="m 2620.95,505.07 h 279.3 v -2.5 h -279.3 v 2.5" /><path
         id="path56"
         style="fill:#e3e3e2;fill-opacity:1;fill-rule:nonzero;stroke:none"
         d="m 3622.85,462.77 h 624.4 v -2.5 h -624.4 v 2.5" /><path
         id="path58"
         style="fill:#eeeeee;fill-opacity:1;fill-rule:nonzero;stroke:none"
         d="M 1938.05,3549.34 H 1477.4 l 25.11,287.12 h 460.66 l -25.12,-287.12" /><path
         id="path60"
         style="fill:#fcfdfd;fill-opacity:1;fill-rule:nonzero;stroke:none"
         d="m 1947.39,3875.47 -12.6,-149.94 -12.6,-180.15 h -443.07 l 25.19,330.09 h 443.08" /><path
         id="path62"
         style="fill:#e3e3e2;fill-opacity:1;fill-rule:nonzero;stroke:none"
         d="m 1905.01,3836.43 25.12,-287.1 h -460.62 l -25.12,287.1 h 39.16 l 13.64,21.59 h 124.09 l 17.78,-21.59 h 265.95" /><path
         id="path64"
         style="fill:#eeeeee;fill-opacity:1;fill-rule:nonzero;stroke:none"
         d="m 2161.86,2995.07 h 490.172 v 490.156 H 2161.86 Z" /><path
         id="path66"
         style="fill:#e3e3e2;fill-opacity:1;fill-rule:nonzero;stroke:none"
         d="m 2652.03,3485.23 h 12.49 v -490.16 h -12.49 v 490.16" /><path
         id="path68"
         style="fill:#f8f8f9;fill-opacity:1;fill-rule:nonzero;stroke:none"
         d="m 2207.09,3040.31 h 399.609 v 399.602 H 2207.09 Z" /><path
         id="path70"
         style="fill:#e3e3e2;fill-opacity:1;fill-rule:nonzero;stroke:none"
         d="m 2207.19,3040.31 h 3.6484 v 399.602 h -3.6484 z" /><path
         id="path72"
         style="fill:#e3e3e2;fill-opacity:1;fill-rule:nonzero;stroke:none"
         d="m 2332.76,3281.59 c 0,-54.82 34.88,-99.25 77.91,-99.25 43.03,0 77.9,44.43 77.9,99.25 0,54.8 -34.87,99.24 -77.9,99.24 -43.03,0 -77.91,-44.44 -77.91,-99.24" /><path
         id="path74"
         style="fill:#e3e3e2;fill-opacity:1;fill-rule:nonzero;stroke:none"
         d="m 2369.94,3132.2 h 82.11 v 82.12 h -82.11 v -82.12" /><path
         id="path76"
         style="fill:#e3e3e2;fill-opacity:1;fill-rule:nonzero;stroke:none"
         d="m 2257.91,3040.31 h 300.82 v 27.96 c 0,53.24 -43.16,96.39 -96.4,96.39 H 2354.3 c -53.24,0 -96.39,-43.15 -96.39,-96.39 v -27.96" /><path
         id="path78"
         style="fill:#e3e3e2;fill-opacity:1;fill-rule:nonzero;stroke:none"
         d="m 2250.35,3207.09 c 0,-16.36 29.63,-29.63 29.63,-29.63 0,0 29.61,13.27 29.61,29.63 0,7.75 -10.89,12.14 -17.9,10.14 -7.76,-2.2 -11.71,-11.28 -11.71,-11.28 0,0 -7.33,9.69 -14.69,12.03 -7.45,2.37 -14.94,-2.67 -14.94,-10.89" /><path
         id="path80"
         style="fill:#e3e3e2;fill-opacity:1;fill-rule:nonzero;stroke:none"
         d="m 2516.51,3279.96 c 0,-21.49 38.9,-38.91 38.9,-38.91 0,0 38.89,17.42 38.89,38.91 0,10.18 -14.31,15.93 -23.49,13.32 -10.21,-2.9 -15.4,-14.82 -15.4,-14.82 0,0 -9.61,12.73 -19.28,15.81 -9.79,3.11 -19.62,-3.51 -19.62,-14.31" /><path
         id="path82"
         style="fill:#f8f8f9;fill-opacity:1;fill-rule:nonzero;stroke:none"
         d="m 1661.06,832.641 c 4.57,-28.891 25.49,-53.813 27.12,-83.012 1.27,-22.84 -9.46,-44.391 -14.72,-66.641 -5.25,-22.258 -2.75,-50 16.84,-61.797 13.57,-8.179 31.62,-5.66 45.11,2.649 13.49,8.32 23.21,21.512 31.56,34.98 30.55,49.211 47.51,106.782 48.47,164.711 0.42,24.578 -2.47,50.547 -16.92,70.43 -44.96,61.848 -148.85,10.687 -137.46,-61.32" /><path
         id="path84"
         style="fill:#f8f8f9;fill-opacity:1;fill-rule:nonzero;stroke:none"
         d="m 1624.37,909.121 c 4.14,-4.769 9.99,-7.84 16.1,-9.422 7.61,-1.969 16.61,-1.359 22.08,4.289 5.19,5.364 5.77,13.66 5.01,21.09 -0.91,9.121 -3.48,18.301 -9.07,25.563 -5.58,7.257 -14.55,12.308 -23.68,11.558 -9.13,-0.75 -17.73,-8.238 -18.19,-17.39 -0.5,-9.809 1.15,-28.09 7.75,-35.688" /><path
         id="path86"
         style="fill:#f8f8f9;fill-opacity:1;fill-rule:nonzero;stroke:none"
         d="m 1707.08,969.25 c -5.01,6.789 -12.25,10 -19.46,8.531 -7.07,-1.453 -13.57,-8.011 -14.4,-15.429 -0.25,-2.204 -0.37,-4.723 -0.33,-7.282 0.05,-3.769 0.37,-7.871 1.27,-11.672 0.99,-4.187 2.74,-7.968 5.12,-10.339 3.4,-3.368 7.81,-5.481 12.47,-6.34 5.79,-1.09 12.48,-0.207 16.65,4.121 4.37,4.551 5.5,11.25 5.28,17.492 -0.28,7.379 -2.19,14.918 -6.6,20.918" /><path
         id="path88"
         style="fill:#f8f8f9;fill-opacity:1;fill-rule:nonzero;stroke:none"
         d="m 1753.39,971.781 c -4.97,7.047 -11.34,8.899 -17.51,6.617 -5.89,-2.179 -11.19,-8.566 -12.39,-15.136 -0.39,-2.153 -0.64,-4.434 -0.73,-6.59 -0.14,-3.461 -0.08,-7.184 0.74,-10.66 0.88,-3.742 2.69,-7.09 5.13,-9.09 3,-2.453 6.6,-3.871 10.39,-4.192 4.71,-0.398 9.96,0.821 13.37,4.379 4.04,4.243 5.76,10.141 6,15.911 0.28,6.531 -1.19,13.339 -5,18.761" /><path
         id="path90"
         style="fill:#f8f8f9;fill-opacity:1;fill-rule:nonzero;stroke:none"
         d="m 1794.66,962.16 c -4.89,7.328 -10.46,7.828 -15.56,4.699 -4.73,-2.89 -8.86,-9.129 -10.37,-14.859 -0.55,-2.078 -0.94,-4.129 -1.15,-5.891 -0.35,-3.148 -0.51,-6.488 0.22,-9.64 0.76,-3.289 2.6,-6.258 5.13,-7.86 2.53,-1.589 5.4,-2.257 8.31,-2.019 3.62,0.281 7.45,1.84 10.08,4.629 3.72,3.941 6.01,9.043 6.75,14.34 0.78,5.671 -0.18,11.773 -3.41,16.601" /><path
         id="path92"
         style="fill:#f8f8f9;fill-opacity:1;fill-rule:nonzero;stroke:none"
         d="m 1802.79,921.699 c -0.52,-2.398 -0.82,-4.898 -0.28,-7.277 0.55,-2.391 2.07,-4.66 4.34,-5.594 3.88,-1.566 8.14,1.184 11,4.242 2.86,3.078 5.25,6.711 6.31,10.782 1.07,4.078 0.72,8.628 -1.53,12.187 -9.1,14.492 -18.32,-7.199 -19.84,-14.34" /><path
         id="path94"
         style="fill:#f8f8f9;fill-opacity:1;fill-rule:nonzero;stroke:none"
         d="m 1810.87,164.762 c 6.71,23.648 10.59,49.488 1.72,72.418 -27.58,71.308 -141.12,48.539 -148.59,-23.981 l 146.87,-48.437" /><path
         id="path96"
         style="fill:#f8f8f9;fill-opacity:1;fill-rule:nonzero;stroke:none"
         d="m 1648.17,296.539 c 2.77,-5.668 7.64,-10.148 13.14,-13.238 6.86,-3.852 15.71,-5.582 22.44,-1.531 6.4,3.859 9.08,11.73 10.27,19.109 1.44,9.043 1.32,18.582 -2.22,27.031 -3.52,8.442 -10.9,15.629 -19.91,17.25 -9.01,1.621 -19.25,-3.41 -22.05,-12.14 -3,-9.36 -6.1,-27.442 -1.67,-36.481" /><path
         id="path98"
         style="fill:#f8f8f9;fill-opacity:1;fill-rule:nonzero;stroke:none"
         d="m 1743.54,333.41 c -3.1,7.871 -9.27,12.82 -16.6,13.25 -7.21,0.422 -15.19,-4.262 -17.89,-11.211 -0.8,-2.058 -1.57,-4.469 -2.19,-6.961 -0.91,-3.656 -1.67,-7.687 -1.77,-11.597 -0.11,-4.313 0.61,-8.422 2.31,-11.313 2.41,-4.117 6.14,-7.289 10.41,-9.328 5.32,-2.539 12.02,-3.41 17.16,-0.301 5.39,3.289 8.19,9.473 9.58,15.551 1.64,7.211 1.72,14.988 -1.01,21.91" /><path
         id="path100"
         style="fill:#f8f8f9;fill-opacity:1;fill-rule:nonzero;stroke:none"
         d="m 1788.95,323.98 c -2.98,8.102 -8.68,11.52 -15.21,10.891 -6.26,-0.601 -13.02,-5.41 -15.87,-11.461 -0.92,-1.969 -1.76,-4.109 -2.41,-6.18 -1.01,-3.308 -1.91,-6.91 -2.01,-10.48 -0.11,-3.84 0.77,-7.539 2.62,-10.109 2.26,-3.141 5.39,-5.43 8.96,-6.711 4.45,-1.59 9.85,-1.77 14.05,0.8 5,3.071 8.18,8.321 9.89,13.84 1.94,6.231 2.27,13.2 -0.02,19.41" /><path
         id="path102"
         style="fill:#f8f8f9;fill-opacity:1;fill-rule:nonzero;stroke:none"
         d="m 1826.37,304.078 c -2.85,8.344 -8.09,10.25 -13.84,8.543 -5.31,-1.582 -10.89,-6.551 -13.83,-11.711 -1.07,-1.859 -1.98,-3.738 -2.62,-5.398 -1.14,-2.942 -2.17,-6.133 -2.27,-9.364 -0.1,-3.367 0.9,-6.707 2.95,-8.91 2.04,-2.187 4.63,-3.558 7.5,-4.09 3.58,-0.648 7.68,-0.128 10.94,1.891 4.61,2.859 8.13,7.191 10.21,12.121 2.21,5.289 2.84,11.43 0.96,16.918" /><path
         id="path104"
         style="fill:#f8f8f9;fill-opacity:1;fill-rule:nonzero;stroke:none"
         d="m 1823.83,262.891 c -1.1,-2.18 -2.04,-4.512 -2.13,-6.969 -0.07,-2.453 0.81,-5.024 2.77,-6.5 3.34,-2.524 8.16,-0.961 11.71,1.269 3.56,2.239 6.79,5.141 8.87,8.797 2.08,3.66 2.9,8.141 1.65,12.172 -5.07,16.34 -19.55,-2.262 -22.87,-8.769" /><path
         id="path106"
         style="fill:#f8f8f9;fill-opacity:1;fill-rule:nonzero;stroke:none"
         d="m 1416.7,589.238 c 3.61,-29.039 -9.6,-58.769 -3.07,-87.277 5.11,-22.301 21.38,-40.039 32.6,-59.961 11.21,-19.93 16.49,-47.289 0.93,-64.039 -10.78,-11.621 -28.82,-14.191 -44.09,-9.949 -15.26,4.25 -28.25,14.238 -40.01,24.859 -42.99,38.84 -75.21,89.469 -92.2,144.848 -7.19,23.511 -11.61,49.269 -3.23,72.371 26.08,71.879 140.07,51.488 149.07,-20.852" /><path
         id="path108"
         style="fill:#f8f8f9;fill-opacity:1;fill-rule:nonzero;stroke:none"
         d="m 1430.78,672.879 c -2.66,-5.719 -7.43,-10.301 -12.87,-13.508 -6.76,-3.992 -15.58,-5.91 -22.4,-1.992 -6.47,3.723 -9.32,11.531 -10.66,18.883 -1.64,9.008 -1.71,18.547 1.64,27.07 3.36,8.52 10.58,15.859 19.55,17.656 8.98,1.813 19.32,-3 22.3,-11.668 3.2,-9.289 6.67,-27.308 2.44,-36.441" /><path
         id="path110"
         style="fill:#f8f8f9;fill-opacity:1;fill-rule:nonzero;stroke:none"
         d="m 1334.65,707.75 c 2.93,7.922 9.01,13 16.33,13.578 7.2,0.582 15.26,-3.93 18.12,-10.828 0.85,-2.051 1.67,-4.43 2.33,-6.91 0.99,-3.629 1.83,-7.66 2.01,-11.551 0.21,-4.32 -0.43,-8.43 -2.06,-11.359 -2.33,-4.168 -5.99,-7.418 -10.22,-9.551 -5.27,-2.649 -11.95,-3.66 -17.15,-0.649 -5.45,3.161 -8.39,9.282 -9.9,15.34 -1.79,7.168 -2.04,14.95 0.54,21.93" /><path
         id="path112"
         style="fill:#f8f8f9;fill-opacity:1;fill-rule:nonzero;stroke:none"
         d="m 1289.45,697.371 c 2.81,8.149 8.44,11.688 14.99,11.199 6.27,-0.461 13.12,-5.14 16.09,-11.121 0.98,-1.949 1.86,-4.07 2.54,-6.121 1.09,-3.297 2.06,-6.879 2.24,-10.437 0.18,-3.84 -0.63,-7.571 -2.41,-10.172 -2.2,-3.18 -5.28,-5.539 -8.82,-6.891 -4.42,-1.687 -9.81,-1.976 -14.07,0.492 -5.05,2.969 -8.35,8.16 -10.17,13.641 -2.07,6.187 -2.55,13.148 -0.39,19.41" /><path
         id="path114"
         style="fill:#f8f8f9;fill-opacity:1;fill-rule:nonzero;stroke:none"
         d="m 1252.46,676.691 c 2.67,8.387 7.88,10.418 13.65,8.821 5.34,-1.461 11.03,-6.313 14.08,-11.403 1.1,-1.859 2.05,-3.711 2.72,-5.347 1.22,-2.93 2.3,-6.09 2.48,-9.321 0.17,-3.371 -0.77,-6.73 -2.77,-8.961 -1.99,-2.25 -4.56,-3.671 -7.42,-4.25 -3.55,-0.73 -7.66,-0.3 -10.97,1.649 -4.66,2.769 -8.28,7.031 -10.46,11.922 -2.32,5.23 -3.07,11.359 -1.31,16.89" /><path
         id="path116"
         style="fill:#f8f8f9;fill-opacity:1;fill-rule:nonzero;stroke:none"
         d="m 1255.85,635.559 c 1.16,-2.149 2.14,-4.477 2.28,-6.918 0.14,-2.442 -0.7,-5.051 -2.63,-6.559 -3.28,-2.594 -8.14,-1.141 -11.73,1.02 -3.61,2.168 -6.9,4.988 -9.06,8.617 -2.15,3.609 -3.06,8.082 -1.9,12.121 4.73,16.449 19.6,-1.84 23.04,-8.281" /><path
         id="path118"
         style="fill:#e3e3e2;fill-opacity:1;fill-rule:nonzero;stroke:none"
         d="m 1147.42,3160.92 c -30.07,-4.2 -51.13,-32.08 -46.93,-62.15 4.2,-30.07 32.08,-51.12 62.15,-46.93 30.07,4.2 51.13,32.08 46.93,62.15 -4.19,30.07 -32.08,51.12 -62.15,46.93 z m 23.85,-170.93 c -64.17,-8.95 -123.67,35.97 -132.62,100.14 -8.97,64.18 35.96,123.69 100.13,132.64 64.18,8.96 123.69,-35.97 132.65,-100.14 8.96,-64.18 -35.98,-123.68 -100.16,-132.64" /><path
         id="path120"
         style="fill:#e3e3e2;fill-opacity:1;fill-rule:nonzero;stroke:none"
         d="m 1166.78,3172.51 -44.18,-6.17 -39.66,284.14 44.18,6.17 39.66,-284.14" /><path
         id="path122"
         style="fill:#e3e3e2;fill-opacity:1;fill-rule:nonzero;stroke:none"
         d="m 1169.74,3449.09 -82.94,-11.58 -6.17,44.18 82.94,11.57 6.17,-44.17" /><path
         id="path124"
         style="fill:#e3e3e2;fill-opacity:1;fill-rule:nonzero;stroke:none"
         d="m 1177.73,3392.32 -77.99,-10.89 -6.16,44.18 77.99,10.89 6.16,-44.18" /><path
         id="path126"
         style="fill:#e3e3e2;fill-opacity:1;fill-rule:nonzero;stroke:none"
         d="m 1189.04,3312.25 -68.08,-9.49 -6.16,44.17 68.08,9.51 6.16,-44.19" /><path
         id="path128"
         style="fill:#4870c0;fill-opacity:1;fill-rule:nonzero;stroke:none"
         d="m 1140.48,2175.3 c 12.19,-139.25 -90.83,-252.13 -230.074,-252.13 -139.258,0 -262.023,112.88 -274.199,252.13 -12.187,139.26 90.82,252.15 230.078,252.15 139.255,0 262.025,-112.89 274.195,-252.15" /><path
         id="path130"
         style="fill:#dbe8f7;fill-opacity:1;fill-rule:nonzero;stroke:none"
         d="m 910.406,1923.17 c -139.258,0 -262.023,112.88 -274.199,252.13 -0.656,7.48 -0.977,14.89 -0.98,22.2 -0.039,128.86 99.281,229.95 231.058,229.95 22.278,0 44.137,-2.89 65.184,-8.32 110.501,-28.51 198.741,-126.9 208.961,-243.79 0.66,-7.51 0.98,-14.94 0.98,-22.29 0,-77.65 -36.07,-145.22 -93.57,-186.66 -37.9,-27.29 -85.106,-43.22 -137.434,-43.22" /><path
         id="path132"
         style="fill:#4870c0;fill-opacity:1;fill-rule:nonzero;stroke:none"
         d="m 770.863,2333.47 c -3.054,0 -6.074,1.39 -8.035,4.04 -3.293,4.44 -2.363,10.69 2.07,13.99 31.739,23.56 71.719,36.01 115.614,36.01 h 0.148 c 5.516,0 9.988,-4.48 9.988,-10 0,-5.53 -4.48,-10 -10,-10 h -0.136 c -39.578,0 -75.43,-11.09 -103.699,-32.07 -1.79,-1.33 -3.879,-1.97 -5.95,-1.97" /><path
         id="path134"
         style="fill:#4870c0;fill-opacity:1;fill-rule:nonzero;stroke:none"
         d="m 818.16,1989.44 c -1.594,0 -3.203,0.38 -4.707,1.18 -61.992,33.19 -105.371,92.18 -119.004,161.83 -12.277,62.7 2.352,124.77 40.125,170.31 3.516,4.23 9.836,4.83 14.082,1.3 4.25,-3.52 4.836,-9.82 1.309,-14.08 -33.926,-40.89 -47.012,-96.91 -35.887,-153.69 12.469,-63.73 52.137,-117.69 108.809,-148.04 4.871,-2.6 6.707,-8.67 4.101,-13.54 -1.808,-3.36 -5.254,-5.27 -8.828,-5.27" /><path
         id="path136"
         style="fill:#4870c0;fill-opacity:1;fill-rule:nonzero;stroke:none"
         d="m 918.246,1963.35 c -21.57,0 -43.719,3.51 -65.879,10.65 -5.254,1.69 -8.144,7.32 -6.453,12.58 1.699,5.26 7.352,8.17 12.586,6.45 61.504,-19.8 122.941,-8.79 168.47,30.27 46.41,39.82 68,101.86 57.73,165.98 -0.88,5.45 2.84,10.58 8.29,11.45 5.42,0.91 10.58,-2.83 11.46,-8.29 11.38,-71.04 -12.73,-139.94 -64.46,-184.32 -34.41,-29.51 -76.802,-44.76 -121.744,-44.77" /><path
         id="path138"
         style="fill:#4870c0;fill-opacity:1;fill-rule:nonzero;stroke:none"
         d="m 1086.45,2214.69 c -4.23,0 -8.15,2.7 -9.52,6.94 -18.43,57.27 -61.71,105.48 -115.762,128.97 -5.07,2.19 -7.395,8.09 -5.188,13.15 2.188,5.07 8.059,7.4 13.157,5.19 59.243,-25.74 106.673,-78.52 126.833,-141.18 1.69,-5.26 -1.2,-10.89 -6.45,-12.58 -1.03,-0.33 -2.05,-0.49 -3.07,-0.49" /><path
         id="path140"
         style="fill:#4870c0;fill-opacity:1;fill-rule:nonzero;stroke:none"
         d="m 928.832,2361.86 -2.312,0.27 c -15.04,3.56 -30.481,5.37 -45.879,5.38 -5.52,0.01 -10,4.49 -9.993,10.01 0.012,5.52 4.485,9.99 10,9.99 h 0.012 c 16.942,-0.01 33.926,-2.01 50.469,-5.92 5.371,-1.28 8.699,-6.66 7.422,-12.04 -1.086,-4.6 -5.188,-7.69 -9.719,-7.69" /><path
         id="path142"
         style="fill:#4870c0;fill-opacity:1;fill-rule:nonzero;stroke:none"
         d="m 752.457,2122.92 c -4.074,0 -7.902,2.51 -9.387,6.55 -18.777,51.06 -12.39,104.94 17.532,147.81 28.66,41.07 74.304,64.63 125.222,64.63 h 0.031 c 5.528,0 10,-4.48 10,-10 0,-5.52 -4.484,-10 -10,-10 h -0.031 c -44.285,0 -83.953,-20.44 -108.828,-56.08 -26.121,-37.43 -31.641,-84.61 -15.156,-129.45 1.906,-5.19 -0.75,-10.93 -5.938,-12.84 -1.132,-0.42 -2.304,-0.62 -3.445,-0.62" /><path
         id="path144"
         style="fill:#4870c0;fill-opacity:1;fill-rule:nonzero;stroke:none"
         d="m 911.078,2008.76 h -0.098 c -58.054,0.59 -116.882,33.84 -149.871,84.71 -3.007,4.63 -1.691,10.82 2.95,13.83 4.629,3.01 10.82,1.68 13.828,-2.95 29.441,-45.4 81.758,-75.07 133.289,-75.59 5.527,-0.06 9.961,-4.58 9.902,-10.1 -0.058,-5.49 -4.519,-9.9 -10,-9.9" /><path
         id="path146"
         style="fill:#4870c0;fill-opacity:1;fill-rule:nonzero;stroke:none"
         d="m 948.414,2013.09 c -4.484,0 -8.566,3.04 -9.699,7.59 -1.328,5.36 1.933,10.78 7.297,12.11 81.108,20.2 102.108,91.1 95.448,145.68 -8.69,71.2 -64.94,143.34 -155.616,143.44 -5.528,0.01 -10,4.49 -9.989,10.01 0.008,5.52 4.481,9.99 10,9.99 h 0.008 c 102.297,-0.11 165.697,-81.09 175.447,-161.01 10.08,-82.54 -33.29,-148.29 -110.474,-167.51 l -2.422,-0.3" /><path
         id="path148"
         style="fill:#4870c0;fill-opacity:1;fill-rule:nonzero;stroke:none"
         d="m 844.996,2266.68 c -3.781,0 -7.394,2.14 -9.082,5.8 -2.324,5.01 -0.137,10.95 4.871,13.27 14.922,6.91 31.75,10.56 48.653,10.56 5.527,0 10,-4.48 10,-10 0,-5.52 -4.473,-10 -10,-10 -14.024,0 -27.938,-3.01 -40.254,-8.71 -1.356,-0.63 -2.782,-0.92 -4.188,-0.92" /><path
         id="path150"
         style="fill:#4870c0;fill-opacity:1;fill-rule:nonzero;stroke:none"
         d="m 909.215,2055.35 c -50.344,0 -96.77,30.69 -119.055,79.06 -20.73,45.01 -14.656,92.16 16.242,126.11 3.719,4.09 10.047,4.38 14.121,0.67 4.082,-3.71 4.383,-10.04 0.665,-14.12 -25.313,-27.83 -30.118,-66.81 -12.852,-104.29 19.473,-42.29 60.613,-68.75 104.07,-67.38 35.332,1.09 64.707,20.39 78.586,51.64 15.728,35.43 8.653,77.29 -18.476,109.23 -3.586,4.21 -3.067,10.52 1.14,14.09 4.219,3.56 10.528,3.07 14.094,-1.14 32.16,-37.85 40.4,-87.78 21.52,-130.3 -17.067,-38.44 -53.055,-62.18 -96.239,-63.51 -1.277,-0.04 -2.547,-0.06 -3.816,-0.06" /><path
         id="path152"
         style="fill:#4870c0;fill-opacity:1;fill-rule:nonzero;stroke:none"
         d="m 951.391,2257.88 c -1.844,0 -3.7,0.51 -5.371,1.57 -17.266,11.03 -36.836,16.86 -56.582,16.86 -5.528,0 -10,4.48 -10,10 0,5.52 4.484,10 10,10 23.566,0 46.855,-6.92 67.343,-20 4.66,-2.97 6.016,-9.15 3.047,-13.81 -1.902,-2.99 -5.137,-4.62 -8.437,-4.62" /><path
         id="path154"
         style="fill:#4870c0;fill-opacity:1;fill-rule:nonzero;stroke:none"
         d="m 904.234,2100.47 c -23.078,0 -45.39,10.33 -61.132,29.04 -19.786,23.52 -24.356,54.74 -11.914,81.47 11.57,24.87 34.988,39.72 62.644,39.73 5.52,0 10,-4.47 10,-10 0,-5.52 -4.473,-10 -10,-10 -19.668,-0.01 -36.309,-10.54 -44.512,-28.16 -9.121,-19.61 -5.632,-42.66 9.094,-60.17 15.047,-17.89 37.93,-25.64 59.766,-20.2 18.554,4.61 31.972,18.2 35.879,36.35 1.16,5.39 6.414,8.81 11.882,7.66 5.403,-1.16 8.829,-6.48 7.668,-11.88 -5.558,-25.77 -24.472,-45.04 -50.605,-51.53 -6.242,-1.55 -12.531,-2.31 -18.77,-2.31" /><path
         id="path156"
         style="fill:#4870c0;fill-opacity:1;fill-rule:nonzero;stroke:none"
         d="m 962.125,2179.64 c -4.258,0 -8.203,2.74 -9.543,7.02 -7.977,25.49 -32.684,44.02 -58.758,44.05 -5.527,0 -10,4.49 -9.992,10.01 0.012,5.52 4.484,9.99 10,9.99 h 0.012 c 34.578,-0.04 67.312,-24.47 77.82,-58.08 1.652,-5.27 -1.289,-10.88 -6.551,-12.53 -0.996,-0.31 -2.004,-0.46 -2.988,-0.46" /><path
         id="path158"
         style="fill:#4870c0;fill-opacity:1;fill-rule:nonzero;stroke:none"
         d="m 906.617,2142.06 c -5.39,0 -9.844,4.3 -9.992,9.73 -0.145,5.52 4.211,10.12 9.727,10.26 9.101,0.25 10.461,6.76 10.461,10.62 0,5.9 -3.848,14.79 -14.446,15.07 -2.89,-0.09 -5.769,-1.31 -7.793,-3.51 -2.039,-2.24 -3.015,-5.25 -2.801,-8.73 0.332,-5.51 -3.859,-10.25 -9.375,-10.59 -5.5,-0.38 -10.246,3.86 -10.585,9.38 -0.54,8.89 2.304,17.21 8.015,23.44 5.684,6.21 13.692,9.76 22.531,10 22.567,-0.59 34.454,-18.5 34.454,-35.06 0,-17.55 -12.305,-30.13 -29.915,-30.61 h -0.281" /><path
         id="path160"
         style="fill:#4870c0;fill-opacity:1;fill-rule:nonzero;stroke:none"
         d="m 1164.33,2175.34 c 12.19,-139.3 -90.83,-252.2 -230.135,-252.2 -3.593,0 -7.207,0.1 -10.82,0.3 132.595,6.8 228.855,117 217.055,251.9 -11.79,134.8 -127.33,245 -261.129,251.8 3.586,0.2 7.179,0.3 10.773,0.3 139.306,0 262.076,-112.9 274.256,-252.1" /><path
         id="path162"
         style="fill:#8daee0;fill-opacity:1;fill-rule:nonzero;stroke:none"
         d="m 934.195,1923.14 c -3.593,0 -7.207,0.1 -10.82,0.3 125.215,6.42 218.025,105.05 218.035,229.61 0,7.35 -0.32,14.78 -0.98,22.29 -11.79,134.8 -127.33,245 -261.129,251.8 3.586,0.2 7.179,0.3 10.773,0.3 139.306,0 262.076,-112.9 274.256,-252.1 0.66,-7.48 0.98,-14.89 0.98,-22.21 0.04,-128.9 -99.29,-229.99 -231.115,-229.99" /><path
         id="path164"
         style="fill:#4870c0;fill-opacity:1;fill-rule:nonzero;stroke:none"
         d="m 1368.1,3404.45 c 0.26,-3 0.72,-6 1.28,-8.9 3.69,-19.3 14.01,-36.7 28.15,-49.7 16.31,-15 37.83,-24.3 60.73,-24.3 h 844.9 c 42.79,0 75.16,32.4 75.92,74 0.05,2.9 -0.01,5.9 -0.28,8.9 -1.99,22.8 -13.11,43.6 -29.41,58.5 -16.32,15 -37.83,24.3 -60.73,24.3 h -844.91 c -45.8,0 -79.64,-37.1 -75.65,-82.8" /><path
         id="path166"
         style="fill:#dbe8f7;fill-opacity:1;fill-rule:nonzero;stroke:none"
         d="m 2303.16,3321.55 h -844.9 c -22.9,0 -44.42,9.3 -60.73,24.3 -14.14,13 -24.46,30.4 -28.15,49.7 -0.56,2.9 -1.02,5.9 -1.28,8.9 -0.22,2.5 -0.32,4.97 -0.32,7.42 0.05,35.86 23.58,65.18 57.2,73.2 -13.54,-3.25 -25.46,-9.97 -34.83,-19.2 v 0 0 l 898.5,1.4 c 22.9,0 44.4,-9.31 60.7,-24.31 15.6,-14.19 26.5,-33.79 29.1,-55.39 0.4,2.6 0.6,5.3 0.6,8 0.02,0.77 0.04,1.54 0.04,2.32 0,0.38 -0.01,0.76 -0.01,1.14 0.01,-0.57 0.01,-1.14 0.01,-1.7 0,-0.6 0,-1.19 -0.01,-1.78 -0.17,-9.34 -1.93,-18.21 -5.05,-26.36 -5.82,-15.23 -16.38,-27.93 -30.1,-36.38 -11.64,-7.16 -25.54,-11.26 -40.77,-11.26 m 63.3,120.53 c -4.67,7.76 -10.47,14.81 -17.11,20.88 -4.73,4.36 -9.9,8.24 -15.42,11.54 5.53,-3.31 10.72,-7.19 15.46,-11.55 6.64,-6.07 12.41,-13.11 17.07,-20.87" /><path
         id="path168"
         style="fill:#4870c0;fill-opacity:1;fill-rule:nonzero;stroke:none"
         d="m 2379.05,3395.57 c 0,-2.7 -0.2,-5.4 -0.6,-8 -2.6,21.6 -13.5,41.2 -29.1,55.39 -16.3,15 -37.8,24.31 -60.7,24.31 l -898.5,-1.4 c 13.5,13.3 32.3,21.4 53.6,21.4 h 844.9 c 22.9,0 44.4,-9.31 60.7,-24.31 16.3,-14.89 27.5,-35.69 29.5,-58.5 0.2,-2.99 0.3,-6 0.2,-8.89" /><path
         id="path170"
         style="fill:#a1bce6;fill-opacity:1;fill-rule:nonzero;stroke:none"
         d="m 2378.45,3387.57 c -2.6,21.6 -13.5,41.2 -29.1,55.39 -16.3,15 -37.8,24.31 -60.7,24.31 l -898.5,-1.4 c 13.5,13.3 32.3,21.4 53.6,21.4 h 844.9 c 22.9,0 44.4,-9.31 60.7,-24.31 16.3,-14.89 27.5,-35.69 29.5,-58.5 0.15,-2.2 0.24,-4.4 0.24,-6.57 0,-0.78 -0.02,-1.55 -0.04,-2.32 0,-2.7 -0.2,-5.4 -0.6,-8" /><path
         id="path172"
         style="fill:#4870c0;fill-opacity:1;fill-rule:nonzero;stroke:none"
         d="m 2233.57,3447.3 3.53,-40.42 37.63,14.03 8.95,-19.95 -38.47,-12.76 27.62,-33.91 -17.24,-12.77 -26.91,35.25 -20.4,-35.25 -18.93,12.77 21.32,33.91 -40.33,12.76 5.43,19.83 40.43,-13.52 -3.5,40.03 h 20.87" /><path
         id="path174"
         style="fill:#4870c0;fill-opacity:1;fill-rule:nonzero;stroke:none"
         d="m 2002.49,3447.3 3.54,-40.42 37.63,14.03 8.94,-19.95 -38.46,-12.76 27.61,-33.91 -17.23,-12.77 -26.92,35.25 -20.39,-35.25 -18.93,12.77 21.32,33.91 -40.34,12.76 5.44,19.83 40.43,-13.52 -3.5,40.03 h 20.86" /><path
         id="path176"
         style="fill:#4870c0;fill-opacity:1;fill-rule:nonzero;stroke:none"
         d="m 1771.42,3447.3 3.54,-40.42 37.63,14.03 8.94,-19.95 -38.46,-12.76 27.61,-33.91 -17.23,-12.77 -26.92,35.25 -20.39,-35.25 -18.93,12.77 21.32,33.91 -40.33,12.76 5.43,19.83 40.43,-13.52 -3.51,40.03 h 20.87" /><path
         id="path178"
         style="fill:#4870c0;fill-opacity:1;fill-rule:nonzero;stroke:none"
         d="m 1540.35,3447.3 3.54,-40.42 37.63,14.03 8.93,-19.95 -38.45,-12.76 27.61,-33.91 -17.23,-12.77 -26.93,35.25 -20.39,-35.25 -18.92,12.77 21.32,33.91 -40.34,12.76 5.43,19.83 40.43,-13.52 -3.49,40.03 h 20.86" /><path
         id="path180"
         style="fill:#4870c0;fill-opacity:1;fill-rule:nonzero;stroke:none"
         d="m 2100.4,3516.45 h -39.38 v 10 h 39.38 v -10" /><path
         id="path182"
         style="fill:#4870c0;fill-opacity:1;fill-rule:nonzero;stroke:none"
         d="m 2269.78,3516.45 h -128.54 v 10 h 128.54 v -10" /><path
         id="path184"
         style="fill:#e3edf9;fill-opacity:1;fill-rule:nonzero;stroke:none"
         d="m 3555.14,2847.99 h -435.1 l 26.72,305.44 c 2.67,30.5 29.52,55.2 60.03,55.2 h 324.7 c 28.83,0 50.55,-22.08 50.58,-50.25 0.01,-1.64 -0.06,-3.29 -0.21,-4.95 l -26.72,-305.44" /><path
         id="path186"
         style="fill:#e3ecf9;fill-opacity:1;fill-rule:nonzero;stroke:none"
         d="m 3547.09,2756 h -435.1 l 8.05,91.99 h 435.1 l -8.05,-91.99" /><path
         id="path188"
         style="fill:#e1ecf9;fill-opacity:1;fill-rule:nonzero;stroke:none"
         d="m 3480.91,2630.52 h -324.69 c -12.01,0 -22.78,3.81 -31.2,10.4 -11.95,9.02 -19.37,23.41 -19.39,39.87 0,1.63 0.07,3.27 0.21,4.93 l 6.15,70.28 h 435.1 l -6.15,-70.28 c -1.24,-14.09 -7.56,-26.9 -17.1,-36.49 -11,-11.5 -26.43,-18.71 -42.93,-18.71 m 36.84,107.24 c -8.3,0 -15,-6.69 -15,-14.99 0,-8.3 6.7,-15 15,-15 8.3,0 15,6.7 15,15 0,8.3 -6.7,14.99 -15,14.99 m -357,0 c -8.3,0 -15,-6.69 -15,-14.99 0,-8.3 6.7,-15 15,-15 8.3,0 15,6.7 15,15 0,8.3 -6.7,14.99 -15,14.99" /><path
         id="path190"
         style="fill:#e2edf9;fill-opacity:1;fill-rule:nonzero;stroke:none"
         d="m 3517.75,2707.77 c -8.3,0 -15,6.7 -15,15 0,8.3 6.7,14.99 15,14.99 8.3,0 15,-6.69 15,-14.99 0,-8.3 -6.7,-15 -15,-15 m -357,0 c -8.3,0 -15,6.7 -15,15 0,8.3 6.7,14.99 15,14.99 8.3,0 15,-6.69 15,-14.99 0,-8.3 -6.7,-15 -15,-15" /><path
         id="path192"
         style="fill:#4870c0;fill-opacity:1;fill-rule:nonzero;stroke:none"
         d="m 3176.74,3078.1 -0.88,0.04 c -5.5,0.48 -9.57,5.33 -9.09,10.83 l 3.74,42.77 c 0.45,5.17 4.78,9.13 9.96,9.13 h 45.15 c 5.53,0 10,-4.48 10,-10 0,-5.52 -4.47,-10 -10,-10 h -35.99 l -2.94,-33.64 c -0.45,-5.2 -4.82,-9.13 -9.95,-9.13" /><path
         id="path194"
         style="fill:#4870c0;fill-opacity:1;fill-rule:nonzero;stroke:none"
         d="m 3540.34,3078.1 -0.88,0.04 c -5.51,0.48 -9.57,5.33 -9.09,10.83 l 2.79,31.9 h -34.24 c -5.53,0 -10,4.48 -10,10 0,5.52 4.47,10 10,10 h 45.15 c 2.8,0 5.48,-1.17 7.37,-3.24 1.89,-2.07 2.83,-4.83 2.59,-7.63 l -3.74,-42.77 c -0.46,-5.2 -4.83,-9.13 -9.95,-9.13" /><path
         id="path196"
         style="fill:#4870c0;fill-opacity:1;fill-rule:nonzero;stroke:none"
         d="m 3193.65,2755.34 h -45.16 c -2.8,0 -5.48,1.18 -7.37,3.25 -1.9,2.06 -2.83,4.83 -2.59,7.62 l 3.75,42.78 c 0.49,5.5 5.42,9.62 10.83,9.08 5.51,-0.48 9.57,-5.33 9.09,-10.83 l -2.79,-31.9 h 34.24 c 5.52,0 10,-4.48 10,-10 0,-5.52 -4.48,-10 -10,-10" /><path
         id="path198"
         style="fill:#4870c0;fill-opacity:1;fill-rule:nonzero;stroke:none"
         d="m 3512.08,2755.34 h -45.14 c -5.53,0 -10,4.48 -10,10 0,5.52 4.47,10 10,10 h 35.98 l 2.94,33.64 c 0.49,5.5 5.52,9.63 10.83,9.09 5.51,-0.48 9.57,-5.33 9.1,-10.83 l -3.74,-42.77 c -0.45,-5.17 -4.78,-9.13 -9.97,-9.13" /><path
         id="path200"
         style="fill:#ffffff;fill-opacity:1;fill-rule:nonzero;stroke:none"
         d="m 3483.1,2949.59 c -7.82,-89.41 -73.73,-161.88 -147.22,-161.88 -73.48,0 -126.71,72.47 -118.88,161.88 7.81,89.4 73.73,161.88 147.21,161.88 73.48,0 126.71,-72.48 118.89,-161.88" /><path
         id="path202"
         style="fill:#ffffff;fill-opacity:1;fill-rule:nonzero;stroke:none"
         d="m 3389.44,2700.59 h -129.5 l 11.32,129.5 h 129.52 l -11.34,-129.5" /><path
         id="path204"
         style="fill:#ffffff;fill-opacity:1;fill-rule:nonzero;stroke:none"
         d="m 3540.94,2685.72 c -1.24,-14.09 -7.56,-26.9 -17.1,-36.49 -11,-11.5 -26.43,-18.71 -42.93,-18.71 h -324.69 c -12.01,0 -22.78,3.81 -31.2,10.4 -13.13,9.91 -20.8,26.31 -19.18,44.8 0,0 149.23,47.21 167.63,47.21 18.3,0 115.29,0 115.29,0 l 152.18,-47.21" /><path
         id="path206"
         style="fill:#4870c0;fill-opacity:1;fill-rule:nonzero;stroke:none"
         d="m 3595.21,2832.42 -9.96,0.82 15.15,183.72 9.97,-0.82 -15.16,-183.72" /><path
         id="path208"
         style="fill:#4870c0;fill-opacity:1;fill-rule:nonzero;stroke:none"
         d="m 3617.93,3064.04 -9.96,0.82 2.98,36.09 9.96,-0.82 -2.98,-36.09" /><path
         id="path210"
         style="fill:#4870c0;fill-opacity:1;fill-rule:nonzero;stroke:none"
         d="m 3262.73,1975.17 h -39.38 v 10 h 39.38 v -10" /><path
         id="path212"
         style="fill:#4870c0;fill-opacity:1;fill-rule:nonzero;stroke:none"
         d="m 3432.12,1975.17 h -128.54 v 10 h 128.54 v -10" /><path
         id="path214"
         style="fill:#4870c0;fill-opacity:1;fill-rule:nonzero;stroke:none"
         d="m 3667.26,2155.9 -24.93,-285.05 c -2.26,-25.7 -24.9,-46.53 -50.6,-46.53 -25.68,0 -44.68,20.83 -42.44,46.53 l 24.93,285.05 c 8.06,92.05 -60.28,166.99 -152.33,166.99 h -101.97 c -92.06,0 -173.51,-74.94 -181.57,-166.99 l -10.18,-116.41 h -93.04 l 10.19,116.41 c 12.55,143.37 139.4,260.03 282.73,260.03 h 101.98 c 143.32,0 249.78,-116.66 237.23,-260.03" /><path
         id="path216"
         style="fill:#a1bce6;fill-opacity:1;fill-rule:nonzero;stroke:none"
         d="m 3591.73,1824.32 c -24.28,0 -42.59,18.62 -42.62,42.36 0,1.37 0.06,2.76 0.18,4.17 l 24.93,285.05 c 0.44,4.94 0.65,9.83 0.65,14.67 0,85.21 -65.87,152.32 -152.98,152.32 h -101.97 c -92.06,0 -173.51,-74.94 -181.57,-166.99 l -10.18,-116.41 h -93.04 l 10.19,116.41 c 12.55,143.37 139.4,260.03 282.73,260.03 h 101.98 c 135.63,0 238.24,-104.46 238.24,-237.18 0,-7.53 -0.34,-15.15 -1.01,-22.85 l -24.93,-285.05 c -2.26,-25.7 -24.9,-46.53 -50.6,-46.53" /><path
         id="path218"
         style="fill:#4870c0;fill-opacity:1;fill-rule:nonzero;stroke:none"
         d="m 3673.99,1881.29 -48.59,-555.38 c -3.07,-35.14 -33.99,-63.57 -69.14,-63.57 h -555.37 c -35.09,0 -61.08,28.43 -58,63.57 l 48.58,555.38 c 1.98,22.68 15.67,42.63 34.54,53.85 10.3,6.15 22.19,9.72 34.6,9.72 h 555.37 c 12.04,0 22.96,-3.36 32.02,-9.1 17.48,-11.16 28.01,-31.37 25.99,-54.47" /><path
         id="path220"
         style="fill:#ffffff;fill-opacity:1;fill-rule:nonzero;stroke:none"
         d="m 3096.43,1638.7 144.28,-222.14 475.92,475.93 c 4.19,4.18 -1.59,10.69 -6.24,7.04 l -453.55,-355.5 -85.64,138.1 -74.77,-43.43" /><path
         id="path222"
         style="fill:#4870c0;fill-opacity:1;fill-rule:nonzero;stroke:none"
         d="M 823.52,2712.81 H 462.105 c -33.937,0 -63.859,27.51 -66.828,61.45 l -31.621,361.42 c -2.968,33.94 22.141,61.45 56.074,61.45 h 361.418 c 33.934,0 63.856,-27.51 66.825,-61.45 l 31.621,-361.42 c 2.969,-33.94 -22.141,-61.45 -56.074,-61.45" /><path
         id="path224"
         style="fill:#dbe8f7;fill-opacity:1;fill-rule:nonzero;stroke:none"
         d="M 823.52,2712.81 H 462.105 c -33.937,0 -63.859,27.51 -66.828,61.45 l -31.621,361.42 c -0.164,1.86 -0.242,3.7 -0.238,5.51 0.043,31.35 24.234,55.94 56.312,55.94 h 361.418 c 33.934,0 63.856,-27.51 66.825,-61.45 l 17.57,-200.8 c -22.379,22.64 -85.008,83.58 -149.18,124.21 2.012,11.94 10.797,64.09 12.559,75.85 0.41,2.73 -1.465,5.28 -4.199,5.69 -0.243,0.04 -0.481,0.05 -0.715,0.05 -2.422,0 -4.598,-1.75 -4.969,-4.25 -1.601,-10.66 -9.047,-54.94 -11.867,-71.66 -29.281,17.57 -58.504,30.36 -83.992,32.78 l -6.672,76.29 c -0.227,2.55 -2.27,4.58 -4.82,4.58 -0.196,0 -0.395,-0.01 -0.598,-0.03 -2.746,-0.25 -4.785,-2.67 -4.543,-5.42 l 6.562,-75.04 c -24.839,-0.56 -51.406,-12.27 -77.203,-29.42 -2.633,10.99 -10.343,32.21 -21.41,61.35 -2.371,6.27 -4.09,10.75 -4.453,11.95 -0.652,2.16 -2.605,3.55 -4.77,3.55 -0.484,0 -0.976,-0.07 -1.468,-0.21 -2.637,-0.8 -4.133,-3.6 -3.332,-6.24 0.382,-1.26 2.168,-6 4.679,-12.59 5.985,-15.77 21.883,-57.63 21.746,-64.04 v 0 C 457.086,3012.22 395.09,2926.63 391.402,2921.48 l 8.125,-5.83 c 0.039,0.06 0.219,0.31 0.528,0.73 77.582,-36.54 153.84,-48.94 221.64,-48.94 0.133,0 0.27,0 0.399,0 5.355,-0.76 10.801,-1.15 16.301,-1.15 8.375,0 16.453,0.91 24.16,2.63 105.273,7.6 183.609,42.21 203.086,51.54 0.64,-0.67 1.004,-1.05 1.074,-1.12 l 0.172,0.16 12.707,-145.24 c 0.164,-1.86 0.242,-3.69 0.238,-5.51 -0.039,-31.35 -24.23,-55.94 -56.312,-55.94" /><path
         id="path226"
         style="fill:#ffffff;fill-opacity:1;fill-rule:nonzero;stroke:none"
         d="m 395.465,2918.57 c 0,0 128.387,178.88 223.105,174.3 94.715,-4.59 251.766,-170.09 251.766,-170.09 0,0 -231.727,-121.66 -474.871,-4.21" /><path
         id="path228"
         style="fill:#1d2a30;fill-opacity:1;fill-rule:nonzero;stroke:none"
         d="m 399.527,2915.65 -8.125,5.83 c 5.235,7.3 127.774,176.48 223.563,176.48 1.289,0 2.57,-0.04 3.848,-0.1 95.617,-4.63 248.683,-164.82 255.148,-171.64 l -7.246,-6.88 c -1.563,1.64 -156.762,164.1 -248.391,168.53 -1.121,0.06 -2.265,0.09 -3.406,0.09 -90.664,0 -214.141,-170.57 -215.391,-172.31" /><path
         id="path230"
         style="fill:#1d2a30;fill-opacity:1;fill-rule:nonzero;stroke:none"
         d="m 382.113,2912.28 c -19.363,0 -44.519,7.19 -53.425,34.61 -0.852,2.63 0.585,5.45 3.21,6.3 2.618,0.83 5.45,-0.59 6.301,-3.21 11.485,-35.38 54.434,-26.9 56.25,-26.52 2.645,0.53 5.352,-1.17 5.906,-3.88 0.567,-2.7 -1.171,-5.35 -3.875,-5.91 -4.023,-0.83 -8.964,-1.39 -14.367,-1.39" /><path
         id="path232"
         style="fill:#1d2a30;fill-opacity:1;fill-rule:nonzero;stroke:none"
         d="m 458.402,2989.07 c -1.062,0 -2.136,0.34 -3.047,1.04 -1.503,1.15 -36.98,28.6 -46.035,56.45 -0.847,2.62 0.586,5.44 3.215,6.3 2.617,0.85 5.449,-0.6 6.297,-3.22 8.086,-24.88 42.266,-51.33 42.617,-51.6 2.188,-1.68 2.598,-4.82 0.918,-7.01 -0.984,-1.28 -2.469,-1.96 -3.965,-1.96" /><path
         id="path234"
         style="fill:#1d2a30;fill-opacity:1;fill-rule:nonzero;stroke:none"
         d="m 531.898,3057.18 h -0.105 c -2.766,0.05 -4.953,2.34 -4.895,5.1 0.137,6.41 -15.761,48.27 -21.746,64.04 -2.511,6.59 -4.297,11.33 -4.679,12.59 -0.801,2.64 0.695,5.44 3.332,6.24 2.691,0.8 5.437,-0.7 6.238,-3.34 0.363,-1.2 2.082,-5.68 4.453,-11.95 13.938,-36.69 22.551,-60.84 22.402,-67.79 -0.058,-2.73 -2.285,-4.89 -5,-4.89" /><path
         id="path236"
         style="fill:#1d2a30;fill-opacity:1;fill-rule:nonzero;stroke:none"
         d="m 618.559,3087.87 c -2.559,0 -4.746,1.96 -4.969,4.56 l -7.043,80.54 c -0.242,2.75 1.797,5.17 4.543,5.42 2.82,0.34 5.176,-1.8 5.418,-4.55 l 7.043,-80.54 c 0.242,-2.75 -1.797,-5.17 -4.543,-5.41 l -0.449,-0.02" /><path
         id="path238"
         style="fill:#1d2a30;fill-opacity:1;fill-rule:nonzero;stroke:none"
         d="m 885.328,2917.72 c -8.098,0 -14.074,1.16 -14.601,1.26 -2.704,0.54 -4.454,3.18 -3.914,5.88 0.546,2.71 3.125,4.5 5.878,3.93 0.243,-0.04 24.414,-4.68 39.422,5.87 6.367,4.49 10.117,10.98 11.446,19.84 0.41,2.74 2.988,4.57 5.683,4.2 2.727,-0.41 4.61,-2.95 4.199,-5.68 -1.726,-11.56 -6.98,-20.5 -15.613,-26.56 -10.09,-7.09 -22.812,-8.74 -32.5,-8.74" /><path
         id="path240"
         style="fill:#1d2a30;fill-opacity:1;fill-rule:nonzero;stroke:none"
         d="m 795.551,2994.39 c -1.375,0 -2.754,0.58 -3.738,1.69 -1.836,2.06 -1.641,5.22 0.417,7.06 0.305,0.26 29.571,26.47 33.262,51.03 0.41,2.74 2.981,4.58 5.684,4.2 2.734,-0.41 4.609,-2.96 4.199,-5.69 -4.219,-28.17 -35.195,-55.86 -36.512,-57.03 -0.949,-0.84 -2.129,-1.26 -3.312,-1.26" /><path
         id="path242"
         style="fill:#1d2a30;fill-opacity:1;fill-rule:nonzero;stroke:none"
         d="m 711.031,3052.5 -0.84,0.07 c -2.726,0.46 -4.562,3.04 -4.101,5.76 0.105,0.65 10.976,64.94 12.949,78.1 0.41,2.74 2.988,4.59 5.684,4.2 2.734,-0.41 4.609,-2.96 4.199,-5.69 -1.984,-13.24 -12.863,-77.63 -12.969,-78.28 -0.41,-2.43 -2.531,-4.16 -4.922,-4.16" /><path
         id="path244"
         style="fill:#4870c0;fill-opacity:1;fill-rule:nonzero;stroke:none"
         d="m 741.773,2979.58 c 5.469,-62.56 -40.812,-113.29 -103.378,-113.29 -62.571,0 -117.727,50.73 -123.204,113.29 -5.468,62.56 40.809,113.29 103.379,113.29 62.567,0 117.723,-50.73 123.203,-113.29" /><path
         id="path246"
         style="fill:#b2b1b0;fill-opacity:1;fill-rule:nonzero;stroke:none"
         d="m 741.813,2979.58 h -0.04 v 0 c -2.375,27.12 -14.085,52.02 -31.687,71.52 0.027,-0.02 0.051,-0.03 0.078,-0.05 17.574,-19.49 29.277,-44.37 31.649,-71.47" /><path
         id="path248"
         style="fill:#161c1e;fill-opacity:1;fill-rule:nonzero;stroke:none"
         d="m 710.164,3051.05 c -0.027,0.02 -0.051,0.03 -0.078,0.05 -21.918,24.29 -52.973,40.21 -86.516,41.66 0,0.01 0,0.01 0,0.02 33.555,-1.45 64.653,-17.4 86.594,-41.73" /><path
         id="path250"
         style="fill:#b2b1b0;fill-opacity:1;fill-rule:nonzero;stroke:none"
         d="m 524.078,3033.44 c 4.578,10.09 10.723,19.26 18.168,27.22 0.016,0 0.027,0.02 0.039,0.02 -7.461,-7.96 -13.617,-17.13 -18.207,-27.24" /><path
         id="path252"
         style="fill:#161c1e;fill-opacity:1;fill-rule:nonzero;stroke:none"
         d="m 542.246,3060.66 c 17.652,18.84 42.609,30.85 71.313,32.11 v -0.01 c -28.672,-1.26 -53.618,-13.25 -71.274,-32.08 -0.012,0 -0.023,-0.02 -0.039,-0.02" /><path
         id="path254"
         style="fill:#161c1e;fill-opacity:1;fill-rule:nonzero;stroke:none"
         d="m 613.559,3092.76 v 0.01 c 1.668,0.08 3.347,0.11 5.039,0.11 1.664,0 3.32,-0.03 4.972,-0.1 0,-0.01 0,-0.01 0,-0.02 -1.664,0.07 -3.328,0.11 -5,0.11 -1.683,0 -3.355,-0.04 -5.011,-0.11" /><path
         id="path256"
         style="fill:#2e53ac;fill-opacity:1;fill-rule:nonzero;stroke:none"
         d="m 741.773,2979.58 h -66.464 c 0.082,1.13 0.125,2.27 0.125,3.41 -0.004,1.38 -0.067,2.77 -0.196,4.19 -0.261,3.02 -0.8,5.98 -1.582,8.84 17.422,3.75 29.375,19.5 27.727,38.37 -1.906,21.66 -20.988,39.22 -42.649,39.22 -21.363,0 -37.23,-17.08 -35.847,-38.32 -0.02,0 -0.035,0 -0.051,0 -25.106,0 -44.121,-19.3 -44.082,-43.94 0.004,-1.37 0.062,-2.76 0.187,-4.17 0.235,-2.6 0.645,-5.1 1.368,-7.6 h -65.098 c -1.707,19.5 1.605,37.84 8.867,53.86 4.59,10.11 10.746,19.28 18.207,27.24 17.656,18.83 42.602,30.82 71.274,32.08 1.656,0.07 3.328,0.11 5.011,0.11 1.672,0 3.336,-0.04 5,-0.11 33.543,-1.45 64.598,-17.37 86.516,-41.66 17.602,-19.5 29.312,-44.4 31.687,-71.52 v 0" /><path
         id="path258"
         style="fill:#192546;fill-opacity:1;fill-rule:nonzero;stroke:none"
         d="m 631.254,2939.09 c -23.906,0 -45.332,17.5 -50.945,40.49 v 0 c -0.723,2.5 -1.133,5 -1.368,7.6 -0.125,1.41 -0.183,2.8 -0.187,4.17 -0.039,24.64 18.976,43.94 44.082,43.94 0.016,0 0.031,0 0.051,0 0.019,-0.3 0.039,-0.6 0.066,-0.9 1.895,-21.65 20.988,-39.21 42.649,-39.21 2.785,0 5.48,0.29 8.054,0.84 0.782,-2.86 1.321,-5.82 1.582,-8.84 0.129,-1.42 0.192,-2.81 0.196,-4.19 0,-1.14 -0.043,-2.28 -0.125,-3.41 v 0 0 c -1.692,-22.99 -20.059,-40.49 -44.055,-40.49" /><path
         id="path260"
         style="fill:#c1ceed;fill-opacity:1;fill-rule:nonzero;stroke:none"
         d="m 673.656,2996.02 c -6.105,22.36 -27.211,39.24 -50.769,39.27 -1.383,21.24 14.484,38.32 35.847,38.32 21.661,0 40.743,-17.56 42.649,-39.22 1.648,-18.87 -10.305,-34.62 -27.727,-38.37" /><path
         id="path262"
         style="fill:#b8bdcb;fill-opacity:1;fill-rule:nonzero;stroke:none"
         d="m 665.602,2995.18 c -21.661,0 -40.754,17.56 -42.649,39.21 -0.027,0.3 -0.047,0.6 -0.066,0.9 23.558,-0.03 44.664,-16.91 50.769,-39.27 -2.574,-0.55 -5.269,-0.84 -8.054,-0.84" /><path
         id="path264"
         style="fill:#4870c0;fill-opacity:1;fill-rule:nonzero;stroke:none"
         d="m 546.52,3232.02 h -39.375 v 10 h 39.375 v -10" /><path
         id="path266"
         style="fill:#4870c0;fill-opacity:1;fill-rule:nonzero;stroke:none"
         d="M 715.902,3232.02 H 587.367 v 10 h 128.535 v -10" /><path
         id="path268"
         style="fill:#f8a461;fill-opacity:1;fill-rule:nonzero;stroke:none"
         d="m 2363.72,2509.37 3.45,-4.11 4.6,-5.28 c 3.3,-3.5 6.49,-7.2 10.09,-10.62 6.88,-7.21 14.39,-14.17 21.98,-21.34 15.21,-14 31.15,-27.17 47.75,-39.49 16.89,-12.52 34.64,-24.08 52.5,-35.46 9.69,-5.38 18.17,-11.1 27.58,-16.26 l 21.73,-12.01 c 3.15,-1.4 6.69,-1.61 9.98,-0.59 6.97,2.09 47.2,41.9 60,56.64 28.35,32.54 71.41,75.27 94.55,111.71 l 26.41,-35.72 c -16.36,-44.59 -38.09,-87.03 -64.69,-126.39 -14.33,-21.24 -31.48,-40.44 -50.96,-57.09 -11.74,-9.89 -24.99,-17.83 -39.26,-23.52 -18.03,-7.22 -37.84,-8.71 -56.75,-4.25 -4.9,1.18 -9.71,2.77 -14.35,4.76 l -8.98,3.93 -16.19,7.37 c -10.93,4.86 -21.42,10.59 -32.01,15.93 -21.2,11.29 -41.77,23.75 -61.6,37.3 -20,13.73 -39.19,28.62 -57.48,44.58 -9.52,8.28 -18.03,16.69 -26.71,25.82 -4.35,4.47 -8.68,9.23 -12.89,14.09 l -6.26,7.58 c -2.24,2.84 -3.92,4.94 -7.07,9.24 l 74.58,53.18" /><path
         id="path270"
         style="fill:#f8a461;fill-opacity:1;fill-rule:nonzero;stroke:none"
         d="m 2714.32,2527.05 46.43,99.19 44.28,-79.35 c 0,0 -29.08,-50.11 -60.69,-50.05 l -30.02,30.21" /><path
         id="path272"
         style="fill:#f8a461;fill-opacity:1;fill-rule:nonzero;stroke:none"
         d="m 2812.97,2667.43 46.83,-60.18 -54.76,-60.26 -44.29,79.25 52.22,41.19" /><path
         id="path274"
         style="fill:#4870c0;fill-opacity:1;fill-rule:nonzero;stroke:none"
         d="m 2796.68,2519.57 h 73.66 c 4.32,0 7.93,3.3 8.3,7.6 l 15.46,176.69 c 0.43,4.87 -3.41,9.06 -8.3,9.06 h -73.66 c -4.32,0 -7.93,-3.3 -8.3,-7.61 l -15.46,-176.69 c -0.43,-4.86 3.41,-9.05 8.3,-9.05" /><path
         id="path276"
         style="fill:#799bd7;fill-opacity:1;fill-rule:nonzero;stroke:none"
         d="m 2871.25,2537.29 h -73.83 l 13.82,157.91 h 73.81 l -13.8,-157.91" /><path
         id="path278"
         style="fill:#f8a461;fill-opacity:1;fill-rule:nonzero;stroke:none"
         d="m 2792.67,2559.64 v 0 l 13.12,6.74 c 6.64,3.4 12.77,7.71 18.24,12.78 l 2.42,8.75 c -2.87,4.79 -8.56,7.08 -13.95,5.62 l -10.89,-2.96 -54.04,-4.12 -1.34,-22.76 15.78,-24.47 5.48,-0.21 c 12.4,-0.48 23.21,8.37 25.18,20.63" /><path
         id="path280"
         style="fill:#1d2a30;fill-opacity:1;fill-rule:nonzero;stroke:none"
         d="m 2269.59,2606.31 c 37.48,6.8 301.99,-222.56 301.99,-222.56 l -78.42,-114.99 c 0,0 -289.25,201.39 -280.35,250.05 9.21,50.64 2.11,77.52 56.78,87.5" /><path
         id="path282"
         style="fill:#cecdcc;fill-opacity:1;fill-rule:nonzero;stroke:none"
         d="m 2438.5,2305.74 c 0,0 -56.62,43.42 -99.36,76.29 0.11,0.55 0.22,1.08 0.33,1.62 33.81,-27.13 68.67,-53.35 96.63,-73.88 l 2.4,-4.03" /><path
         id="path284"
         style="fill:#182124;fill-opacity:1;fill-rule:nonzero;stroke:none"
         d="m 2436.1,2309.77 c -27.96,20.53 -62.82,46.75 -96.63,73.88 7.01,34.36 8.1,61.87 -0.48,88.58 l 97.11,-162.46" /><path
         id="path286"
         style="fill:#f8a461;fill-opacity:1;fill-rule:nonzero;stroke:none"
         d="m 2093.25,222.801 88.74,-8.762 28.11,205.691 -88.74,8.77 -28.11,-205.699" /><path
         id="path288"
         style="fill:#f8a461;fill-opacity:1;fill-rule:nonzero;stroke:none"
         d="m 1219.97,1429.81 -22.75,-86.4 191.94,-82.73 39.76,87.66 -208.95,81.47" /><path
         id="path290"
         style="fill:#4870c0;fill-opacity:1;fill-rule:nonzero;stroke:none"
         d="m 2261.59,214.172 c 1.35,0.058 2.71,-0.25 3.92,-0.883 0.85,-0.469 1.39,-1.359 1.41,-2.34 0.24,-2.539 -0.74,-5.039 -2.65,-6.73 -5.53,-4.68 -20.28,-5.047 -40,-1.207 11.81,5.847 24.52,9.648 37.6,11.226 z m -16.15,-17.942 c 7.63,-0.921 15.35,0.79 21.88,4.829 2.95,2.523 4.46,6.332 4.06,10.191 -0.05,2.371 -1.34,4.559 -3.39,5.75 -10.77,6.391 -46.99,-10.781 -51.04,-12.73 l -1.21,-2.141 1.67,-1.75 c 9.2,-2.238 18.58,-3.629 28.03,-4.149" /><path
         id="path292"
         style="fill:#4870c0;fill-opacity:1;fill-rule:nonzero;stroke:none"
         d="m 2239.92,235.77 1.26,0.312 c 3.85,-0.582 4.02,-2.094 4.05,-2.602 0.92,-6.16 -13.87,-20.871 -24.95,-26.82 1.05,10.141 5.32,19.68 12.17,27.238 2.22,1.582 4.96,2.262 7.66,1.922 z m -22.05,-35.59 0.78,0.199 c 10.84,4.453 32.47,23.133 31.06,33.293 -0.57,2.328 -1.85,5.406 -7.72,6.219 -4.23,0.738 -8.57,-0.332 -11.95,-2.981 -11.47,-8.93 -14.23,-33.019 -14.4,-33.98 l 0.51,-2.039 1.72,-0.711" /><path
         id="path294"
         style="fill:#1d2a30;fill-opacity:1;fill-rule:nonzero;stroke:none"
         d="m 2177.59,249.832 -80.37,-3.332 c -3.59,-0.039 -6.57,-2.801 -6.89,-6.379 l -19.18,-111.609 c -0.45,-8 5.67,-14.84 13.66,-15.293 l 1.67,0.011 c 34.87,1.801 51.68,4.391 95.88,5.899 27.09,0.91 110.43,-8.91 146.99,-0.481 36.56,8.422 30.11,45.082 14.13,44.84 -51.41,-0.988 -110.71,32.492 -140.46,71.672 -4.42,3.352 -19.89,15.012 -25.43,14.672" /><path
         id="path296"
         style="fill:#1d2a30;fill-opacity:1;fill-rule:nonzero;stroke:none"
         d="m 1238.01,1332.03 40.79,69.32 c 1.92,3.04 1.22,7.05 -1.62,9.25 l -83.35,76.65 c -6.47,4.72 -15.54,3.29 -20.26,-3.18 l -0.9,-1.4 c -17.4,-30.28 -24.34,-45.8 -47.05,-83.76 -13.93,-23.24 -67.38,-87.94 -80.14,-123.22 -12.76,-35.28 21.55,-49.75 30.01,-36.2 27.06,43.74 87.36,75.39 136.41,79.13 5.2,1.89 23.39,8.57 26.11,13.41" /><path
         id="path298"
         style="fill:#cecdcc;fill-opacity:1;fill-rule:nonzero;stroke:none"
         d="m 2107.38,326.18 7.65,56.398 h 0.06 l -7.71,-56.398" /><path
         id="path300"
         style="fill:#de8546;fill-opacity:1;fill-rule:nonzero;stroke:none"
         d="m 2195.6,313.711 -88.74,8.66 0.52,3.809 7.71,56.398 89.21,-5.277 -8.7,-63.59" /><path
         id="path302"
         style="fill:#b3b2b1;fill-opacity:1;fill-rule:nonzero;stroke:none"
         d="m 1364.63,1270.81 -41.25,18.22 41.39,-17.83 -0.14,-0.39 m 32.95,89.75 -42.68,16.64 v 0 l 42.86,-16.17 -0.18,-0.47" /><path
         id="path304"
         style="fill:#de8546;fill-opacity:1;fill-rule:nonzero;stroke:none"
         d="m 1364.77,1271.2 -41.39,17.83 31.52,88.17 42.68,-16.64 -32.81,-89.36" /><path
         id="path306"
         style="fill:#1d2a30;fill-opacity:1;fill-rule:nonzero;stroke:none"
         d="m 2326.22,2500.33 c 50.71,-86.14 -11.28,-158.91 -63.02,-416.51 l -334.26,-0.89 c 5.42,138.82 4.85,251.05 -54.4,524.13 -5.5,24.86 10.2,49.47 35.06,54.96 3.23,0.71 6.52,1.08 9.83,1.09 27.64,-0.04 62.34,-0.99 97.6,-4.58 55.68,-4.52 110.98,-12.88 165.5,-25.03 46.43,-11.16 57.7,-17.34 87.06,-27.19 17.14,-5.85 37.87,-52.63 56.63,-105.98" /><path
         id="path308"
         style="fill:#4870c0;fill-opacity:1;fill-rule:nonzero;stroke:none"
         d="m 2275.56,2066.43 c 0,0 187.69,-542.7 183.15,-803.65 -2.57,-149.5 -13.83,-428.069 -58.94,-624.01 -36.82,-159.879 -186.78,-261.989 -186.78,-261.989 l -120.29,7.117 c 0,0 -64.9,244 -53.61,341.102 22.46,193.25 89.14,338.49 81.11,515.96 -12.84,290.65 -98.81,830.13 -98.81,830.13 l 254.17,-4.66" /><path
         id="path310"
         style="fill:#1d2a30;fill-opacity:1;fill-rule:nonzero;stroke:none"
         d="m 2068.82,352.59 169.48,-10.031 15.48,50.941 -189.4,17.512 4.44,-58.422" /><path
         id="path312"
         style="fill:#cecdcc;fill-opacity:1;fill-rule:nonzero;stroke:none"
         d="m 2094.3,1003.49 6.14,51.01 c 1.8,1.83 3.55,3.67 5.3,5.58 -3.45,-18.87 -7.32,-37.7 -11.44,-56.59" /><path
         id="path314"
         style="fill:#395eb4;fill-opacity:1;fill-rule:nonzero;stroke:none"
         d="m 2090.28,970.07 4.02,33.42 c 4.12,18.89 7.99,37.72 11.44,56.59 92.73,100.92 119.86,312.46 121.41,516.07 l 26.63,-251.97 c 17.09,-203.17 -51.42,-353.668 -152.42,-353.668 -3.34,0 -6.73,0.168 -10.14,0.5 l -0.94,-0.942" /><path
         id="path316"
         style="fill:#4870c0;fill-opacity:1;fill-rule:nonzero;stroke:none"
         d="m 2191.38,2070.99 c 0,0 149.15,-954.31 -161.06,-1061.73 -163.67,-62.022 -301.4,5.22 -464.47,77.4 -94.27,41.73 -212.08,154.61 -212.08,154.61 l 45.29,123.3 c 0,0 107.06,34.76 249.67,12.63 159.03,-24.67 165.7,-69.65 222.22,-35.79 118.77,293.7 -85.62,525.78 53.29,730.06 l 267.14,-0.48" /><path
         id="path318"
         style="fill:#1d2a30;fill-opacity:1;fill-rule:nonzero;stroke:none"
         d="m 1407.91,1387.94 -60.53,-159.86 44.61,-34.1 71.91,190.26 -55.99,3.7" /><path
         id="path320"
         style="fill:#f8a461;fill-opacity:1;fill-rule:nonzero;stroke:none"
         d="m 1382.94,2250.29 c -15.13,-22.34 -91.7,-7.23 -91.7,-7.23 l -16.25,94.9 94.03,-37.69 13.92,-49.98" /><path
         id="path322"
         style="fill:#f8a461;fill-opacity:1;fill-rule:nonzero;stroke:none"
         d="m 1293.8,2342.91 14.69,-98.61 -56.56,-8.47 c -6.27,-0.53 -11.96,3.66 -13.33,9.8 l -21.6,70.63 c -0.76,3.4 1.32,6.79 4.68,7.68 l 72.12,18.97" /><path
         id="path324"
         style="fill:#f8a461;fill-opacity:1;fill-rule:nonzero;stroke:none"
         d="m 1268.61,2298.15 32.27,-5.71 30.42,22.95 -11.76,8.4 c -7.98,5.69 -13.59,14.11 -15.75,23.67 -2.32,10.29 -3.86,21.39 -4.12,30.5 l -0.09,3.42 c -0.81,6.19 -5.62,11.09 -11.79,12.01 l -8,-5.93 c -5.06,-10.92 -1.45,-23.56 -2.08,-32.06 l -1.27,-16.55 -12.92,-5.6 5.09,-35.1" /><path
         id="path326"
         style="fill:#f8a461;fill-opacity:1;fill-rule:nonzero;stroke:none"
         d="m 1890.68,2625.86 -189.19,-260.3 -347.72,-68.28 v -57.03 c 0,0 326.62,-24.22 399.88,18.55 73.27,42.77 196.54,301.65 196.54,301.65 l -59.51,65.41" /><path
         id="path328"
         style="fill:#1d2a30;fill-opacity:1;fill-rule:nonzero;stroke:none"
         d="m 1888.45,3125.96 c -79.36,26.65 -171.48,-22.65 -207.83,-98.07 -36.35,-75.41 -23.57,-167.91 17.29,-240.97 12.34,-22.03 27.08,-42.81 37.1,-65.98 10.03,-23.17 15.05,-49.8 6.9,-73.7 -8.15,-23.89 -16.56,-39.22 -46.18,-35.35 0,0 -0.36,16.39 11.3,14.41 0,0 -23.95,-13.32 -33.35,-4.6 10.83,-16.85 39.9,-10.69 49.23,7.04 13.98,26.54 -11.7,62.42 -41.69,62.09 -29.99,-0.34 -54.37,-30.62 -53.4,-60.59 0.96,-29.98 23.01,-56.65 50.38,-68.91 -16.21,-3.2 -34.03,6.32 -40.37,21.58 13.58,-35.62 58.02,-51.37 95.5,-44.38 37.48,6.98 69.23,31.07 98.59,55.38 39.6,32.78 80.91,74.21 79.68,125.6 -0.93,38.27 -25.53,71.19 -46.2,103.42 -20.68,32.22 -38.81,71.7 -25.68,107.66 11.13,30.5 41.29,48.9 67.95,67.43 19.19,13.34 58.17,43.06 53.57,71.11 -4.3,26.29 -50.32,49.28 -72.79,56.83" /><path
         id="path330"
         style="fill:#1d2a30;fill-opacity:1;fill-rule:nonzero;stroke:none"
         d="m 1709.56,2235.79 -52.39,138.67 12.01,-0.99 c 19.83,-1.64 38.75,8.4 48.47,25.76 39.83,71.2 143.31,251.95 172.42,260.94 41.51,12.3 84.2,-20.91 100.31,-69.9 11.83,-36.13 -109.79,-190.87 -166.24,-278.91 -50,-77.94 -114.58,-75.57 -114.58,-75.57" /><path
         id="path332"
         style="fill:#4870c0;fill-opacity:1;fill-rule:nonzero;stroke:none"
         d="m 1213.82,1316.61 c 1.85,-12.83 2.62,-30.21 -2.03,-34.24 -0.9,-0.75 -2.14,-0.95 -3.23,-0.51 -2.73,0.52 -4.99,2.39 -6.02,4.96 -1.78,5.42 1.98,16.42 11.26,29.5 z m -15.41,-30.14 -0.07,-1.1 c 1.47,-3.93 4.86,-6.82 8.97,-7.64 2.48,-0.8 5.2,-0.19 7.11,1.58 8.47,7.61 3.07,39.89 2.56,43.13 l -1.61,1.7 -2.15,-0.78 c -6.68,-9.62 -17.51,-26.71 -14.81,-36.89" /><path
         id="path334"
         style="fill:#4870c0;fill-opacity:1;fill-rule:nonzero;stroke:none"
         d="m 1240.81,1298.69 c 0.48,-1.8 0.18,-3.7 -0.82,-5.27 -1.33,-2.32 -2.63,-2.34 -3.63,-2.18 -6.13,1.26 -15.46,16.34 -18.45,26.83 7.69,-3.85 20.18,-11.21 22.63,-18.77 z m -27.19,19.54 c 2.66,-10.78 12.79,-29.21 21.79,-31.35 3.39,-0.66 6.81,1.08 8.26,4.22 1.58,2.89 1.78,6.33 0.55,9.39 -4.07,12.36 -27.71,22.57 -28.69,23.03 l -2.09,0.13 -0.82,-1.95 c 0.27,-1.19 0.6,-2.34 1,-3.47" /><path
         id="path336"
         style="fill:#4870c0;fill-opacity:1;fill-rule:nonzero;stroke:none"
         d="m 1927.7,2099.9 -9.24,-32.51 c -1.25,-2.53 1.7,-5.11 5.92,-5.06 l 344.96,0.46 c 3.29,-0.19 6.01,1.65 6.22,3.64 l 3.23,32.57 c 0.13,2.19 -2.65,4.16 -6.27,4.07 l -338.94,-0.41 c -2.32,0.19 -4.55,-0.86 -5.88,-2.76" /><path
         id="path338"
         style="fill:#a1bce6;fill-opacity:1;fill-rule:nonzero;stroke:none"
         d="m 1924.25,2062.33 c -3.49,0 -6.07,1.8 -6.08,3.86 0,0.4 0.09,0.8 0.29,1.2 l 9.24,32.51 c 1.23,1.75 3.22,2.78 5.34,2.78 0.18,0 0.36,-0.01 0.54,-0.02 l 338.94,0.41 c 0.08,0.01 0.16,0.01 0.24,0.01 3.41,0 6.03,-1.84 6.04,-3.93 0,-0.05 0,-0.1 -0.01,-0.15 l -3.23,-32.57 c -0.2,-1.89 -2.67,-3.65 -5.74,-3.65 -0.16,0 -0.32,0.01 -0.48,0.01 l -344.96,-0.46 c -0.04,0 -0.09,0 -0.13,0" /><path
         id="path340"
         style="fill:#4870c0;fill-opacity:1;fill-rule:nonzero;stroke:none"
         d="m 1993.56,2059.32 -10.02,-0.01 c -1.89,0.11 -3.45,1 -3.27,2.2 l 4.51,42.31 c 0.07,1.19 1.83,2.19 3.83,2.17 l 10.03,0.11 c 1.89,-0.12 3.44,-1.01 3.27,-2.3 l -4.51,-42.21 c -0.17,-1.19 -1.94,-2.29 -3.84,-2.27" /><path
         id="path342"
         style="fill:#4870c0;fill-opacity:1;fill-rule:nonzero;stroke:none"
         d="m 2242.61,2059.36 h -10.01 c -1.9,0.1 -3.45,1 -3.28,2.19 l 4.5,42.21 c 0.08,1.3 1.85,2.3 3.74,2.28 l 10.02,0.01 c 1.9,-0.11 3.45,-1 3.28,-2.2 l -4.51,-42.2 c -0.07,-1.3 -1.74,-2.31 -3.74,-2.29" /><path
         id="path344"
         style="fill:#4870c0;fill-opacity:1;fill-rule:nonzero;stroke:none"
         d="m 2128.56,2059.59 -10.02,-0.01 c -1.89,0.11 -3.45,1.01 -3.27,2.2 l 4.5,42.21 c 0.08,1.3 1.84,2.29 3.74,2.28 l 10.02,0.01 c 1.89,-0.12 3.45,-1.01 3.27,-2.2 l -4.5,-42.21 c -0.08,-1.3 -1.74,-2.3 -3.74,-2.28" /><path
         id="path346"
         style="fill:#f8a461;fill-opacity:1;fill-rule:nonzero;stroke:none"
         d="m 2032.61,2840.52 c 10.61,-54.42 21.01,-152.8 -15.92,-182.48 0,0 14.73,-55.86 113.63,-70.73 109.21,-16.49 51.88,45.71 51.88,45.71 -59.4,23.55 -57.96,66.54 -47.7,106.1 l -101.89,101.4" /><path
         id="path348"
         style="fill:#f8a461;fill-opacity:1;fill-rule:nonzero;stroke:none"
         d="m 2017.03,2658.53 c 55.65,-4.39 102.23,-9.59 156.71,-21.8 l 74.82,-22.23 c 13.33,-26.83 -8.47,-81.94 -71.12,-92.39 0,0 -157.71,-21.78 -204.23,140.62 l 43.82,-4.2" /><path
         id="path350"
         style="fill:#cecdcc;fill-opacity:1;fill-rule:nonzero;stroke:none"
         d="m 2129.41,2710.77 c -0.01,0.01 -0.02,0.01 -0.02,0.01 0.16,1.97 0.36,3.95 0.62,5.94 -0.24,-1.98 -0.44,-3.96 -0.6,-5.95" /><path
         id="path352"
         style="fill:#de8546;fill-opacity:1;fill-rule:nonzero;stroke:none"
         d="m 2129.39,2710.78 c -22.75,6.67 -59.31,31.76 -61.79,55.74 -0.08,11.2 2.15,22.28 6.54,32.58 l 60.26,-59.97 c -2.01,-7.35 -3.48,-14.85 -4.39,-22.41 -0.26,-1.99 -0.46,-3.97 -0.62,-5.94" /><path
         id="path354"
         style="fill:#f8a461;fill-opacity:1;fill-rule:nonzero;stroke:none"
         d="m 1965.86,2909.39 c 26.75,-84.63 36.21,-121.05 91.04,-154.35 81.88,-50.03 180.39,1.24 179.06,92.08 -0.77,81.78 -44.28,206.37 -137.25,219.69 -66.1,9.88 -127.68,-35.7 -137.55,-101.79 -2.8,-18.66 -1.17,-37.71 4.7,-55.63" /><path
         id="path356"
         style="fill:#f5782f;fill-opacity:1;fill-rule:nonzero;stroke:none"
         d="m 2167.7,2922.59 c 9.48,-14.92 20.99,-28.46 34.18,-40.21 -6.29,-6.65 -15.17,-10.21 -24.3,-9.75 l -9.88,49.96" /><path
         id="path358"
         style="fill:#1d2a30;fill-opacity:1;fill-rule:nonzero;stroke:none"
         d="m 2158.21,2827.41 c 3.42,0.36 6.8,1 10.12,1.91 1.08,0.26 1.74,1.34 1.49,2.41 l -0.03,0.11 c -0.32,1.08 -1.41,1.76 -2.52,1.55 -17.55,-4.87 -36.37,-1 -50.57,10.41 l -3.01,-0.13 0.12,-3.01 c 12.43,-10.18 28.42,-14.95 44.4,-13.25" /><path
         id="path360"
         style="fill:#4870c0;fill-opacity:1;fill-rule:nonzero;stroke:none"
         d="m 1936.77,3078.31 c -22.11,-14.05 -36.59,-39.41 -37.46,-65.59 -0.16,-4.98 0.17,-10.12 2.32,-14.62 2.14,-4.49 6.45,-8.22 11.42,-8.5 7.64,-0.41 13.24,6.75 17.42,13.15 6.45,9.86 12.89,19.72 19.35,29.58 6.32,9.67 16.82,20.9 20.24,31.94 6.25,20.1 -21.46,21.56 -33.29,14.04" /><path
         id="path362"
         style="fill:#1d2a30;fill-opacity:1;fill-rule:nonzero;stroke:none"
         d="m 1946.27,3058.37 c -53.15,-61.37 -76.87,-231.29 78.65,-278.67 25.99,20.57 -15.99,58.04 -33.81,105.46 -11.66,31.03 47.6,88.95 70.74,112.68 23.14,23.72 44.36,58.09 77.04,52.59 8.56,-1.45 17.67,-4.28 25.57,-0.7 25.89,11.73 13.32,27.22 0.3,38.06 -19.14,15.94 -46.07,23.16 -70.48,25.81 -54.15,5.86 -111.95,-13.61 -148.01,-55.23" /><path
         id="path364"
         style="fill:#1d2a30;fill-opacity:1;fill-rule:nonzero;stroke:none"
         d="m 2119,3078.93 c 62.42,-52.08 -20.29,-53.39 -63.72,-86.38 -41.95,-31.68 -12.54,-83.61 -83.41,-107.66 -57.92,-16.94 -71.29,-6.77 -87.32,4.44 0,0 65.64,8.26 75.28,81.98 4.95,37.91 87.71,168.05 159.17,107.62" /><path
         id="path366"
         style="fill:#f8a461;fill-opacity:1;fill-rule:nonzero;stroke:none"
         d="m 1956.44,2838.3 c 9.77,-14.12 24.71,-23.82 41.57,-27 22.41,-3.93 31.04,16.59 23.3,36.58 -7.24,17.96 -27.57,41.7 -49.22,36.58 -15.56,-4 -24.95,-19.86 -20.95,-35.43 1,-3.9 2.81,-7.56 5.3,-10.73" /><path
         id="path368"
         style="fill:#1d2a30;fill-opacity:1;fill-rule:nonzero;stroke:none"
         d="m 2108.23,3073.66 c 12.1,-30.77 47,-26.73 72.84,-58.91 15.87,-19.67 47.05,41.69 4.62,66.04 -42.44,24.36 -96.45,41.08 -77.46,-7.13" /><path
         id="path370"
         style="fill:#1d2a30;fill-opacity:1;fill-rule:nonzero;stroke:none"
         d="m 2071.49,2943.68 c 1.81,-0.22 3.53,0.78 4.25,2.45 8.21,18.28 32.83,22.84 33.05,22.86 2.3,0.43 3.8,2.64 3.37,4.93 -0.43,2.29 -2.63,3.8 -4.93,3.36 -1.24,-0.17 -29.29,-5.89 -39.24,-27.89 -0.97,-2.1 -0.07,-4.6 2.03,-5.59 h 0.02 l 1.45,-0.12" /><path
         id="path372"
         style="fill:#1d2a30;fill-opacity:1;fill-rule:nonzero;stroke:none"
         d="m 2201.46,2980.45 c 1.49,-0.1 2.92,0.62 3.72,1.87 1.31,1.92 0.82,4.54 -1.09,5.85 l -0.06,0.04 c -11.25,7.74 -25.56,9.56 -38.38,4.87 -2.16,-0.92 -3.16,-3.42 -2.24,-5.57 0.93,-2.16 3.42,-3.16 5.58,-2.24 10.18,3.62 21.49,2.05 30.3,-4.2 l 2.17,-0.62" /><path
         id="path374"
         style="fill:#4870c0;fill-opacity:1;fill-rule:nonzero;stroke:none"
         d="m 2612.56,2433.03 -58.5,-33.3 -60.9,-130.97 c 0,0 58.81,-37.43 105.15,-7.13 46.33,30.3 14.25,171.4 14.25,171.4" /><path
         id="path376"
         style="fill:#a1bce6;fill-opacity:1;fill-rule:nonzero;stroke:none"
         d="m 2556.85,2249.8 c -33.89,0 -63.69,18.96 -63.69,18.96 l 60.9,130.97 58.5,33.3 c 0,0 10.83,-47.64 10.82,-93.5 -0.01,-33.06 -5.66,-65.2 -25.07,-77.9 -13.36,-8.73 -27.74,-11.83 -41.46,-11.83" /><path
         id="path378"
         style="fill:#4870c0;fill-opacity:1;fill-rule:nonzero;stroke:none"
         d="m 1587.84,2392.56 69.31,-19.6 65.72,-135.94 c 0,0 -52.87,-48.82 -109.96,-2.16 -42.87,35.03 -25.07,157.7 -25.07,157.7" /><path
         id="path380"
         style="fill:#a1bce6;fill-opacity:1;fill-rule:nonzero;stroke:none"
         d="m 1665.32,2214.67 c -15.9,0 -33.89,5.08 -52.32,20.11 -0.03,0.03 -0.06,0.05 -0.09,0.08 -23.4,19.13 -28.73,64.36 -28.73,101.51 -0.01,30.89 3.66,56.19 3.66,56.19 l 69.31,-19.6 65.72,-135.94 c 0,0 -24.21,-22.35 -57.55,-22.35" /><path
         id="path382"
         style="fill:#1d2a30;fill-opacity:1;fill-rule:nonzero;stroke:none"
         d="m 2197.43,2946.55 c 4.8,0.9 9.8,-4.49 11.1,-11.89 1.3,-7.41 -1.6,-14.2 -6.4,-15 -4.8,-0.8 -9.8,4.5 -11.1,11.89 -1.4,7.21 1.6,14.11 6.4,15" /><path
         id="path384"
         style="fill:#1d2a30;fill-opacity:1;fill-rule:nonzero;stroke:none"
         d="m 2212.23,2953.86 -16.9,-8.31 c 10.2,-7.19 16.9,8.31 16.9,8.31" /><path
         id="path386"
         style="fill:#1d2a30;fill-opacity:1;fill-rule:nonzero;stroke:none"
         d="m 2113.72,2929.42 c 4.79,0.89 9.79,-4.51 11.09,-11.9 1.31,-7.41 -1.59,-14.2 -6.4,-15 -4.79,-0.81 -9.79,4.5 -11.1,11.9 -1.4,7.19 1.6,14.1 6.41,15" /><path
         id="path388"
         style="fill:#1d2a30;fill-opacity:1;fill-rule:nonzero;stroke:none"
         d="m 2128.51,2936.71 -16.89,-8.3 c 10.19,-7.2 16.89,8.3 16.89,8.3" /><path
         id="path390"
         style="fill:#1d2a30;fill-opacity:1;fill-rule:nonzero;stroke:none"
         d="m 1690.57,2546.77 c -9.53,0 -18.9,1.67 -27.53,5.2 -30.97,12.66 -45.41,44.93 -39.58,88.53 0.36,2.74 2.92,4.67 5.62,4.3 2.73,-0.37 4.66,-2.88 4.28,-5.62 -5.16,-38.74 7.03,-67.15 33.47,-77.95 28.59,-11.7 66.61,0 86.52,26.59 25.05,33.44 16.95,80.82 -22.24,130.01 -102.39,128.5 -95.54,196.83 -81.09,250.8 21.02,78.4 82.55,168.24 256.53,150.97 2.74,-0.28 4.74,-2.72 4.47,-5.47 -0.27,-2.75 -2.6,-4.71 -5.47,-4.49 -166.86,16.62 -225.86,-68.95 -245.86,-143.6 -14.47,-53.97 -20.26,-117.11 79.23,-241.98 60.01,-75.31 35.68,-124.56 22.44,-142.24 -16.56,-22.11 -44.3,-35.05 -70.79,-35.05" /></g></g></svg>
